<?xml version="1.0" standalone="no"?>
<!DOCTYPE svg PUBLIC "-//W3C//DTD SVG 1.1//EN" "http://www.w3.org/Graphics/SVG/1.1/DTD/svg11.dtd" >
<svg xmlns="http://www.w3.org/2000/svg" xmlns:xlink="http://www.w3.org/1999/xlink" version="1.1">
<metadata></metadata>
<defs>
<font id="visueltregular" horiz-adv-x="558" >
<font-face units-per-em="1000" ascent="800" descent="-200" />
<missing-glyph horiz-adv-x="294" />
<glyph unicode="&#xd;" horiz-adv-x="0" />
<glyph unicode=" "  horiz-adv-x="294" />
<glyph unicode="&#x09;" horiz-adv-x="294" />
<glyph unicode="&#xa0;" horiz-adv-x="294" />
<glyph unicode="#" horiz-adv-x="717" d="M342 700l-33 -190h156l33 190h90l-33 -190h118l-15 -82h-118l-27 -156h118l-15 -82h-118l-33 -190h-90l33 190h-156l-33 -190h-90l33 190h-118l15 82h118l27 156h-118l15 82h118l33 190h90zM294 428l-27 -156h156l27 156h-156z" />
<glyph unicode="$" horiz-adv-x="598" d="M261 800h72v-93c114 -13 187 -85 195 -197h-91c-9 61 -45 97 -104 108v-199l13 -2c135 -27 203 -87 203 -206c0 -123 -92 -207 -216 -219v-92h-72v93c-122 14 -217 97 -224 225h93c7 -77 61 -124 131 -137v268c-113 25 -190 82 -190 188c0 96 79 162 190 172v91zM453 208 c0 69 -27 102 -120 126v-254c71 9 120 52 120 128zM165 536c0 -43 26 -73 96 -97v181c-60 -7 -96 -38 -96 -84z" />
<glyph unicode="%" horiz-adv-x="833" d="M449 162c0 99 69 172 170 172s170 -73 170 -172s-69 -172 -170 -172s-170 73 -170 172zM721 162c0 71 -45 108 -102 108s-102 -37 -102 -108s45 -108 102 -108s102 37 102 108zM652 692l57 -47l-527 -637l-57 47zM45 538c0 99 69 172 170 172s170 -73 170 -172 s-69 -172 -170 -172s-170 73 -170 172zM317 538c0 71 -45 108 -102 108s-102 -37 -102 -108s45 -108 102 -108s102 37 102 108z" />
<glyph unicode="&#x26;" horiz-adv-x="645" d="M524 0l-50 61c-46 -44 -110 -71 -191 -71c-134 0 -236 83 -236 222c0 98 58 166 142 210c-29 43 -44 86 -44 131c0 96 75 157 160 157c93 0 154 -57 154 -134c0 -83 -48 -135 -141 -176l147 -183c10 35 15 77 15 135v16h94v-36c0 -70 -13 -139 -43 -196l111 -136h-118z M284 78c59 0 104 17 135 51l-184 230c-68 -33 -92 -84 -92 -148c0 -83 64 -133 141 -133zM238 558c0 -43 10 -67 32 -99c69 28 99 62 99 108c0 34 -26 61 -64 61c-33 0 -67 -27 -67 -70z" />
<glyph unicode="'" horiz-adv-x="232" d="M70 700h92l-12 -250h-68z" />
<glyph unicode="(" horiz-adv-x="317" d="M233 796l62 -63c-98 -102 -152 -223 -152 -383s54 -281 152 -383l-62 -63c-109 104 -186 244 -186 446s77 342 186 446z" />
<glyph unicode=")" horiz-adv-x="317" d="M23 733l62 63c109 -104 186 -244 186 -446s-77 -342 -186 -446l-62 63c98 102 152 223 152 383s-54 281 -152 383z" />
<glyph unicode="*" horiz-adv-x="440" d="M264 700l-16 -120l109 52l27 -83l-119 -22l83 -87l-71 -52l-57 105l-57 -105l-71 52l83 87l-119 22l27 83l109 -52l-16 120h88z" />
<glyph unicode="+" horiz-adv-x="461" d="M270 558v-158h159v-80h-159v-159h-80v159h-158v80h158v158h80z" />
<glyph unicode="," horiz-adv-x="240" d="M68 -134l-21 20c39 35 69 67 72 114c-42 0 -70 39 -70 72c0 39 30 72 72 72c44 0 72 -33 72 -72c0 -89 -46 -149 -125 -206z" />
<glyph unicode="-" horiz-adv-x="401" d="M32 380h337v-80h-337v80z" />
<glyph unicode="." horiz-adv-x="240" d="M49 72c0 39 33 72 72 72s72 -33 72 -72s-33 -72 -72 -72s-72 33 -72 72z" />
<glyph unicode="/" horiz-adv-x="517" d="M400 700h97l-380 -700h-97z" />
<glyph unicode="0" horiz-adv-x="662" d="M331 710c180 0 283 -155 283 -360s-103 -360 -283 -360s-283 155 -283 360s103 360 283 360zM331 78c127 0 185 112 185 272s-58 272 -185 272s-185 -112 -185 -272s58 -272 185 -272z" />
<glyph unicode="1" horiz-adv-x="333" d="M33 610h16c71 0 110 26 118 90h96v-700h-96v566c-32 -28 -67 -36 -134 -36v80z" />
<glyph unicode="2" horiz-adv-x="550" d="M37 0v82l289 260c52 47 88 90 88 160c0 76 -56 120 -135 120c-80 0 -139 -51 -143 -139h-92c7 132 105 227 231 227c135 0 231 -78 231 -203c0 -92 -45 -156 -117 -219l-227 -200h358v-88h-483z" />
<glyph unicode="3" horiz-adv-x="588" d="M513 700v-91l-159 -137c97 -23 192 -91 192 -230c0 -143 -109 -252 -251 -252c-161 0 -254 116 -261 249h90c6 -93 66 -161 169 -161c95 0 155 61 155 164c0 106 -83 156 -173 156h-22v87l140 127h-328v88h448z" />
<glyph unicode="4" horiz-adv-x="565" d="M40 154v88l332 458h90v-458h84v-88h-84v-154h-96v154h-326zM366 549l-224 -307h224v307z" />
<glyph unicode="5" horiz-adv-x="591" d="M128 357l-69 33l44 310h394v-88h-321l-29 -167c40 27 102 50 166 50c145 0 238 -92 238 -244c0 -137 -95 -261 -259 -261c-140 0 -243 94 -252 229h96c8 -72 58 -141 156 -141s161 63 161 170c0 110 -69 166 -153 166c-91 0 -144 -37 -172 -57z" />
<glyph unicode="6" horiz-adv-x="572" d="M286 -10c-71 0 -148 37 -194 99c-43 59 -60 136 -60 235c0 232 99 386 271 386c119 0 200 -72 213 -182h-93c-20 71 -59 94 -123 94c-94 0 -165 -87 -165 -235c49 58 108 76 179 76c128 0 226 -89 226 -228c0 -138 -102 -245 -254 -245zM140 233c0 -85 56 -155 151 -155 s151 77 151 155s-56 155 -151 155s-151 -77 -151 -155z" />
<glyph unicode="7" horiz-adv-x="485" d="M469 700v-76l-268 -624h-93l262 612h-353v88h452z" />
<glyph unicode="8" horiz-adv-x="552" d="M276 -10c-144 0 -232 95 -232 220c0 80 45 144 105 177c-46 34 -73 88 -73 145c0 104 89 178 200 178s200 -74 200 -178c0 -57 -27 -111 -73 -145c60 -33 105 -97 105 -177c0 -125 -88 -220 -232 -220zM142 212c0 -81 61 -134 134 -134s134 53 134 134s-61 134 -134 134 s-134 -53 -134 -134zM168 527c0 -63 45 -105 108 -105s108 42 108 105s-45 105 -108 105s-108 -42 -108 -105z" />
<glyph unicode="9" horiz-adv-x="572" d="M286 710c71 0 148 -37 194 -99c43 -59 60 -136 60 -235c0 -232 -99 -386 -271 -386c-119 0 -200 72 -213 182h93c20 -71 59 -94 123 -94c94 0 165 87 165 235c-49 -58 -108 -76 -179 -76c-128 0 -226 89 -226 228c0 138 102 245 254 245zM432 467c0 85 -56 155 -151 155 s-151 -77 -151 -155s56 -155 151 -155s151 77 151 155z" />
<glyph unicode=":" horiz-adv-x="240" d="M49 438c0 39 33 72 72 72s72 -33 72 -72s-33 -72 -72 -72s-72 33 -72 72zM49 72c0 39 33 72 72 72s72 -33 72 -72s-33 -72 -72 -72s-72 33 -72 72z" />
<glyph unicode=";" horiz-adv-x="240" d="M68 -134l-21 20c39 35 52 69 55 116c-30 9 -53 37 -53 70c0 39 33 72 72 72c38 0 72 -33 72 -72c0 -89 -53 -156 -125 -206zM49 438c0 39 33 72 72 72s72 -33 72 -72s-33 -72 -72 -72s-72 33 -72 72z" />
<glyph unicode="&#x3c;" horiz-adv-x="501" d="M70 262v76l361 196v-92l-261 -142l261 -142v-92z" />
<glyph unicode="=" horiz-adv-x="461" d="M32 495h397v-80h-397v80zM32 305h397v-80h-397v80z" />
<glyph unicode="&#x3e;" horiz-adv-x="501" d="M431 338v-76l-361 -196v92l261 142l-261 142v92z" />
<glyph unicode="?" horiz-adv-x="501" d="M289 212h-80l-2 37c-5 96 46 138 94 174c55 41 72 69 72 110c0 48 -46 89 -121 89s-130 -44 -137 -112h-88c4 115 90 200 225 200c148 0 217 -75 217 -172c0 -67 -31 -118 -98 -165c-53 -37 -77 -69 -80 -122zM177 72c0 39 33 72 72 72s72 -33 72 -72s-33 -72 -72 -72 s-72 33 -72 72z" />
<glyph unicode="@" horiz-adv-x="766" d="M706 450v-450h-88v55c-29 -31 -82 -65 -159 -65c-123 0 -229 100 -229 260s100 260 231 260c64 0 119 -23 157 -63c0 104 -59 183 -202 183c-116 0 -274 -85 -274 -380c0 -255 133 -380 278 -380c76 0 126 11 171 63h86c-54 -101 -126 -143 -257 -143 c-166 0 -366 117 -366 460c0 298 163 460 362 460c198 0 290 -104 290 -260zM473 430c-84 0 -155 -54 -155 -180s71 -180 155 -180c79 0 145 60 145 131v96c0 71 -66 133 -145 133z" />
<glyph unicode="A" horiz-adv-x="598" d="M497 0l-47 136h-303l-46 -136h-102l252 700h96l252 -700h-102zM286 539l-109 -315h243l-108 315l-13 75z" />
<glyph unicode="B" horiz-adv-x="621" d="M71 700h260c137 0 219 -77 219 -176c0 -76 -41 -123 -91 -151c64 -18 131 -78 131 -170c0 -123 -93 -203 -243 -203h-276v700zM167 616v-214h173c75 0 119 34 119 107s-44 107 -119 107h-173zM167 318v-230h206c78 0 126 41 126 115s-48 115 -126 115h-206z" />
<glyph unicode="C" horiz-adv-x="736" d="M145 350c0 -157 97 -272 249 -272c111 0 189 58 217 153h96c-29 -143 -145 -241 -312 -241c-190 0 -348 145 -348 360s158 360 348 360c168 0 283 -98 312 -241h-96c-28 95 -106 153 -217 153c-152 0 -249 -115 -249 -272z" />
<glyph unicode="D" horiz-adv-x="686" d="M639 350c0 -211 -137 -350 -366 -350h-202v700h202c229 0 366 -139 366 -350zM543 350c0 184 -111 262 -274 262h-102v-524h102c163 0 274 78 274 262z" />
<glyph unicode="E" horiz-adv-x="537" d="M490 612h-323v-218h296v-88h-296v-218h334v-88h-430v700h419v-88z" />
<glyph unicode="F" horiz-adv-x="531" d="M502 612h-335v-228h309v-88h-309v-296h-96v700h431v-88z" />
<glyph unicode="G" horiz-adv-x="763" d="M324 288v88h389v-57c0 -190 -123 -329 -318 -329c-190 0 -348 145 -348 360s158 360 348 360c163 0 280 -94 306 -230h-96c-29 92 -100 142 -211 142c-152 0 -249 -115 -249 -272s97 -272 249 -272c136 0 212 80 222 210h-292z" />
<glyph unicode="H" horiz-adv-x="657" d="M71 700h96v-306h323v306h96v-700h-96v306h-323v-306h-96v700z" />
<glyph unicode="I" horiz-adv-x="238" d="M71 700h96v-700h-96v700z" />
<glyph unicode="J" horiz-adv-x="530" d="M47 211h93c1 -85 41 -133 112 -133c74 0 111 46 111 125v497h96v-484c0 -138 -70 -226 -207 -226c-129 0 -205 92 -205 221z" />
<glyph unicode="K" horiz-adv-x="584" d="M71 700h96v-298l267 298h113l-296 -330l310 -370h-123l-271 322v-322h-96v700z" />
<glyph unicode="L" horiz-adv-x="550" d="M71 0v700h96v-612h345v-88h-441z" />
<glyph unicode="M" horiz-adv-x="798" d="M71 700h102l226 -580l226 580h102v-700h-96v474l-182 -474h-100l-182 474v-474h-96v700z" />
<glyph unicode="N" horiz-adv-x="668" d="M501 700h96v-700h-108l-322 549v-549h-96v700h108l322 -549v549z" />
<glyph unicode="O" horiz-adv-x="790" d="M395 710c194 0 348 -145 348 -360s-154 -360 -348 -360s-348 145 -348 360s154 360 348 360zM395 78c153 0 250 112 250 272s-97 272 -250 272s-250 -112 -250 -272s97 -272 250 -272z" />
<glyph unicode="P" horiz-adv-x="610" d="M71 700h240c156 0 259 -86 259 -229s-103 -229 -259 -229h-144v-242h-96v700zM167 612v-282h146c104 0 161 44 161 141s-57 141 -161 141h-146z" />
<glyph unicode="Q" horiz-adv-x="790" d="M601 -98l-34 -74c-96 12 -196 76 -216 165c-173 19 -304 158 -304 357c0 215 154 360 348 360s348 -145 348 -360c0 -194 -125 -330 -291 -355c22 -44 76 -83 149 -93zM395 78c153 0 250 112 250 272s-97 272 -250 272s-250 -112 -250 -272s97 -272 250 -272z" />
<glyph unicode="R" horiz-adv-x="602" d="M71 700h221c160 0 257 -90 257 -225c0 -93 -46 -153 -125 -198l161 -277h-110l-145 254h-163v-254h-96v700zM167 612v-270h141c91 0 145 53 145 135s-50 135 -145 135h-141z" />
<glyph unicode="S" horiz-adv-x="590" d="M280 622c-74 0 -126 -33 -126 -82c0 -61 56 -88 180 -116c134 -30 214 -94 214 -213c0 -133 -109 -221 -249 -221c-134 0 -255 87 -263 228h93c9 -91 82 -140 170 -140c84 0 153 43 153 130c0 80 -48 115 -182 144c-120 26 -210 73 -210 185c0 105 97 173 220 173 c139 0 228 -74 237 -200h-91c-11 75 -62 112 -146 112z" />
<glyph unicode="T" horiz-adv-x="498" d="M297 612v-612h-96v612h-178v88h452v-88h-178z" />
<glyph unicode="U" horiz-adv-x="644" d="M68 700h96v-448c0 -110 50 -174 158 -174s158 64 158 174v448h96v-452c0 -150 -94 -258 -254 -258s-254 108 -254 258v452z" />
<glyph unicode="V" horiz-adv-x="588" d="M6 700h104l166 -517l18 -88l18 88l166 517h104l-232 -700h-112z" />
<glyph unicode="W" horiz-adv-x="952" d="M11 700h102l139 -517l17 -88l15 88l141 517h102l141 -517l15 -88l17 88l139 517h102l-202 -700h-108l-155 568l-155 -568h-108z" />
<glyph unicode="X" horiz-adv-x="586" d="M60 700h103l130 -230l130 230h103l-184 -315l236 -385h-105l-180 302l-180 -302h-105l236 385z" />
<glyph unicode="Y" horiz-adv-x="544" d="M16 700h104l137 -296l15 -68l15 68l137 296h104l-208 -440v-260h-96v260z" />
<glyph unicode="Z" horiz-adv-x="564" d="M35 88l362 524h-344v88h458v-68l-372 -544h384v-88h-488v88z" />
<glyph unicode="[" horiz-adv-x="284" d="M61 -200v900h191v-78h-105v-744h105v-78h-191z" />
<glyph unicode="\" horiz-adv-x="517" d="M20 700h97l380 -700h-97z" />
<glyph unicode="]" horiz-adv-x="284" d="M223 700v-900h-191v78h105v744h-105v78h191z" />
<glyph unicode="^" horiz-adv-x="500" d="M212 700h76l186 -281h-98l-126 195l-126 -195h-98z" />
<glyph unicode="_" horiz-adv-x="491" d="M22 -10h447v-80h-447v80z" />
<glyph unicode="`" horiz-adv-x="267" d="M151 700l80 -133h-89l-106 133h115z" />
<glyph unicode="a" horiz-adv-x="555" d="M535 70v-66c-24 -8 -40 -10 -56 -10c-44 0 -85 18 -99 78c-33 -40 -95 -82 -169 -82c-94 0 -159 56 -159 145c0 98 79 148 169 157l156 16v34c0 60 -47 88 -111 88c-53 0 -95 -24 -109 -81h-83c16 112 108 161 198 161c117 0 193 -63 193 -158v-234c0 -32 14 -52 44 -52 c8 0 16 1 26 4zM377 148v90l-150 -17c-59 -7 -87 -42 -87 -82c0 -47 35 -69 81 -69c61 0 112 34 156 78z" />
<glyph unicode="b" horiz-adv-x="586" d="M65 730h88v-283c38 40 97 63 161 63c131 0 227 -100 227 -260s-106 -260 -229 -260c-77 0 -130 34 -159 65v-55h-88v730zM298 430c-79 0 -145 -62 -145 -133v-96c0 -71 66 -131 145 -131c84 0 155 54 155 180s-71 180 -155 180z" />
<glyph unicode="c" horiz-adv-x="574" d="M133 250c0 -113 69 -180 163 -180c84 0 136 42 152 111h83c-18 -121 -108 -191 -236 -191c-143 0 -250 104 -250 260s107 260 250 260c128 0 218 -70 236 -191h-83c-16 69 -68 111 -152 111c-94 0 -163 -67 -163 -180z" />
<glyph unicode="d" horiz-adv-x="586" d="M433 730h88v-730h-88v55c-29 -31 -82 -65 -159 -65c-123 0 -229 100 -229 260s96 260 227 260c64 0 123 -23 161 -63v283zM288 430c-84 0 -155 -54 -155 -180s71 -180 155 -180c79 0 145 60 145 131v96c0 71 -66 133 -145 133z" />
<glyph unicode="e" horiz-adv-x="574" d="M524 222h-390c3 -96 66 -152 156 -152c78 0 129 41 147 101h82c-27 -111 -107 -181 -230 -181c-152 0 -244 104 -244 260s113 260 244 260c134 0 235 -93 235 -254v-34zM289 430c-78 0 -140 -48 -154 -132h306c-7 88 -74 132 -152 132z" />
<glyph unicode="f" horiz-adv-x="329" d="M196 0h-88v420h-86v80h86v95c0 102 64 145 140 145c28 0 50 -5 63 -10v-79c-12 4 -33 11 -57 11c-34 0 -58 -21 -58 -62v-100h112v-80h-112v-420z" />
<glyph unicode="g" horiz-adv-x="576" d="M521 500v-497c0 -128 -83 -213 -230 -213c-129 0 -199 64 -211 155h96c10 -43 41 -75 112 -75c112 0 145 66 145 138v58c-44 -45 -91 -66 -161 -66c-131 0 -227 95 -227 255s106 255 229 255c77 0 130 -34 159 -65v55h88zM288 80c88 0 145 62 145 142v64 c0 84 -66 144 -145 144c-84 0 -155 -49 -155 -175s71 -175 155 -175z" />
<glyph unicode="h" horiz-adv-x="570" d="M65 730h88v-295c35 37 104 75 181 75c107 0 171 -64 171 -165v-345h-88v329c0 66 -43 103 -108 103c-59 0 -119 -38 -156 -90v-342h-88v730z" />
<glyph unicode="i" horiz-adv-x="228" d="M70 500h88v-500h-88v500zM54 636c0 33 27 60 60 60s60 -27 60 -60s-27 -60 -60 -60s-60 27 -60 60z" />
<glyph unicode="j" horiz-adv-x="228" d="M70 500h88v-582c0 -89 -46 -128 -127 -128c-25 0 -40 4 -61 10v79c17 -6 31 -11 54 -11c32 0 46 17 46 50v582zM54 636c0 33 27 60 60 60s60 -27 60 -60s-27 -60 -60 -60s-60 27 -60 60z" />
<glyph unicode="k" horiz-adv-x="477" d="M65 730h86v-410l177 180h114l-221 -223l242 -277h-112l-200 224v-224h-86v730z" />
<glyph unicode="l" horiz-adv-x="216" d="M65 730h86v-730h-86v730z" />
<glyph unicode="m" horiz-adv-x="808" d="M65 500h88v-59c39 42 90 69 152 69c64 0 100 -24 125 -72c49 45 104 72 166 72c102 0 147 -57 147 -135v-375h-88v349c0 51 -26 83 -81 83c-50 0 -93 -25 -126 -71v-361h-88v345c0 53 -23 87 -80 87c-48 0 -94 -37 -127 -83v-349h-88v500z" />
<glyph unicode="n" d="M65 500h88v-65c35 37 101 75 175 75c107 0 165 -64 165 -165v-345h-88v329c0 66 -36 103 -102 103c-61 0 -113 -42 -150 -96v-336h-88v500z" />
<glyph unicode="o" horiz-adv-x="604" d="M45 250c0 149 104 260 257 260s257 -111 257 -260s-104 -260 -257 -260s-257 111 -257 260zM471 250c0 118 -74 180 -169 180s-169 -62 -169 -180s74 -180 169 -180s169 62 169 180z" />
<glyph unicode="p" horiz-adv-x="576" d="M143 -200h-88v700h88v-55c29 31 82 65 159 65c123 0 229 -100 229 -260s-96 -260 -227 -260c-64 0 -123 23 -161 63v-253zM288 70c84 0 155 54 155 180s-71 180 -155 180c-79 0 -145 -60 -145 -131v-96c0 -71 66 -133 145 -133z" />
<glyph unicode="q" horiz-adv-x="576" d="M521 -200h-88v253c-38 -40 -97 -63 -161 -63c-131 0 -227 100 -227 260s106 260 229 260c77 0 130 -34 159 -65v55h88v-700zM288 70c79 0 145 62 145 133v96c0 71 -66 131 -145 131c-84 0 -155 -54 -155 -180s71 -180 155 -180z" />
<glyph unicode="r" horiz-adv-x="357" d="M65 500h88v-65c34 39 84 75 147 75c18 0 31 -3 40 -8l-14 -73c-8 2 -15 3 -32 3c-56 0 -108 -34 -141 -96v-336h-88v500z" />
<glyph unicode="s" horiz-adv-x="453" d="M400 352h-87c-7 54 -46 82 -101 82c-39 0 -85 -17 -85 -57c0 -37 41 -57 131 -81c105 -28 162 -66 162 -144c0 -92 -75 -162 -189 -162c-119 0 -196 62 -206 166h83c13 -51 45 -86 125 -86c53 0 101 25 101 71c0 45 -46 65 -144 90c-99 25 -147 66 -147 144 c0 73 69 135 169 135c107 0 179 -55 188 -158z" />
<glyph unicode="t" horiz-adv-x="347" d="M116 650l88 -32v-118h120v-80h-120v-298c0 -33 19 -54 62 -54c23 0 35 3 53 6v-74c-27 -7 -46 -10 -80 -10c-76 0 -123 43 -123 126v304h-99v80h99v150z" />
<glyph unicode="u" d="M493 0h-88v65c-35 -37 -101 -75 -175 -75c-107 0 -165 64 -165 165v345h88v-329c0 -66 36 -103 102 -103c61 0 113 42 150 96v336h88v-500z" />
<glyph unicode="v" horiz-adv-x="518" d="M18 500h93l129 -339l19 -83l19 83l129 339h93l-194 -500h-94z" />
<glyph unicode="w" horiz-adv-x="739" d="M12 500h93l94 -323l14 -89l16 89l96 323h89l95 -323l17 -89l14 89l94 323h93l-150 -500h-98l-110 398l-109 -398h-98z" />
<glyph unicode="x" horiz-adv-x="488" d="M351 500h98l-154 -224l177 -276h-98l-130 208l-130 -208h-98l177 276l-154 224h98l107 -159z" />
<glyph unicode="y" horiz-adv-x="498" d="M125 -200l89 222l-198 478h92l134 -319l13 -61l146 380h89l-278 -700h-87z" />
<glyph unicode="z" horiz-adv-x="423" d="M26 66l260 354h-248v80h355v-62l-261 -358h261v-80h-367v66z" />
<glyph unicode="{" horiz-adv-x="338" d="M26 211v78h15c47 0 74 19 74 94v204c0 79 44 113 117 113h48v-78h-19c-45 0 -60 -24 -60 -64v-210c0 -59 -25 -85 -64 -98c39 -13 64 -39 64 -98v-210c0 -40 15 -64 60 -64h19v-78h-48c-73 0 -117 34 -117 113v204c0 75 -27 94 -74 94h-15z" />
<glyph unicode="|" horiz-adv-x="238" d="M77 700h84v-820h-84v820z" />
<glyph unicode="}" horiz-adv-x="338" d="M312 289v-78h-15c-47 0 -74 -19 -74 -94v-204c0 -79 -44 -113 -117 -113h-48v78h19c45 0 60 24 60 64v210c0 59 25 85 64 98c-39 13 -64 39 -64 98v210c0 40 -15 64 -60 64h-19v78h48c73 0 117 -34 117 -113v-204c0 -75 27 -94 74 -94h15z" />
<glyph unicode="~" horiz-adv-x="458" d="M351 403h77c-3 -85 -52 -132 -115 -132c-89 0 -110 59 -161 59c-29 0 -43 -25 -45 -54h-77c3 85 52 132 115 132c89 0 110 -59 161 -59c29 0 43 25 45 54z" />
<glyph unicode="&#xa1;" horiz-adv-x="292" d="M106 288h80l18 -488h-116zM218 428c0 -39 -33 -72 -72 -72s-72 33 -72 72s33 72 72 72s72 -33 72 -72z" />
<glyph unicode="&#xa2;" horiz-adv-x="574" d="M258 610h72v-102c109 -12 184 -80 201 -189h-83c-14 59 -54 98 -118 108v-355c64 10 104 50 118 109h83c-17 -110 -92 -177 -201 -189v-92h-72v93c-124 16 -213 115 -213 257s89 241 213 257v103zM133 250c0 -97 51 -160 125 -176v352c-74 -16 -125 -79 -125 -176z" />
<glyph unicode="&#xa3;" horiz-adv-x="548" d="M149 238c0 20 -3 37 -7 54h-101v80h66c-22 42 -45 84 -45 148c0 100 82 190 222 190c147 0 223 -76 229 -192h-96c-8 70 -68 104 -133 104c-83 0 -126 -48 -126 -106c0 -54 28 -97 53 -144h207v-80h-177c3 -13 4 -26 4 -39c0 -77 -34 -128 -81 -165h338v-88h-451v77 c53 46 98 88 98 161z" />
<glyph unicode="&#xa4;" horiz-adv-x="604" d="M118 300c0 39 10 73 29 102l-66 66l53 53l65 -65c29 18 64 28 103 28s74 -10 103 -28l65 65l53 -53l-66 -66c19 -29 29 -63 29 -102s-10 -73 -29 -102l66 -66l-53 -53l-65 65c-29 -18 -64 -28 -103 -28s-74 10 -103 28l-65 -65l-53 53l66 66c-19 29 -29 63 -29 102z M410 300c0 74 -49 112 -108 112s-108 -38 -108 -112s49 -112 108 -112s108 38 108 112z" />
<glyph unicode="&#xa5;" horiz-adv-x="544" d="M10 700h104l143 -271l15 -43l15 43l143 271h104l-173 -314h110v-80h-151v-60h151v-80h-151v-166h-96v166h-151v80h151v60h-151v80h110z" />
<glyph unicode="&#xa6;" horiz-adv-x="238" d="M77 232h84v-352h-84v352zM161 348h-84v352h84v-352z" />
<glyph unicode="&#xa7;" horiz-adv-x="590" d="M285 -124c60 0 104 30 104 74c0 62 -48 81 -158 101c-118 21 -202 95 -202 205c0 86 49 147 125 173c-44 29 -65 68 -65 116c0 101 93 165 196 165c127 0 199 -69 206 -175h-92c-4 57 -53 89 -114 89c-60 0 -104 -30 -104 -74c0 -55 49 -78 158 -101 c138 -30 202 -95 202 -205c0 -87 -57 -146 -125 -172c44 -30 65 -70 65 -120c0 -98 -93 -162 -196 -162c-127 0 -199 69 -206 175h92c4 -57 53 -89 114 -89zM447 243c0 93 -93 138 -190 138c-76 0 -134 -44 -134 -118c0 -97 86 -144 187 -144c80 0 137 43 137 124z" />
<glyph unicode="&#xa8;" horiz-adv-x="398" d="M228 636c0 30 26 56 56 56s56 -26 56 -56s-26 -56 -56 -56s-56 26 -56 56zM58 636c0 30 26 56 56 56s56 -26 56 -56s-26 -56 -56 -56s-56 26 -56 56z" />
<glyph unicode="&#xa9;" horiz-adv-x="792" d="M36 350c0 199 157 360 360 360s360 -161 360 -360s-157 -360 -360 -360s-360 161 -360 360zM108 350c0 -161 127 -292 288 -292s288 131 288 292s-127 292 -288 292s-288 -131 -288 -292zM266 350c0 -89 57 -141 131 -141c66 0 102 28 120 87h65 c-17 -95 -85 -150 -186 -150c-112 0 -199 81 -199 204s87 204 199 204c101 0 172 -55 186 -150h-65c-13 54 -54 87 -120 87c-74 0 -131 -52 -131 -141z" />
<glyph unicode="&#xaa;" horiz-adv-x="450" d="M433 363v-52c-19 -6 -32 -8 -44 -8c-35 0 -67 14 -78 62c-26 -32 -75 -65 -134 -65c-74 0 -125 44 -125 114c0 78 62 117 133 124l123 13v27c0 47 -37 69 -87 69c-42 0 -75 -19 -86 -64h-66c13 88 86 127 157 127c92 0 152 -50 152 -124v-185c0 -25 11 -41 35 -41 c6 0 12 1 20 3zM308 425v71l-118 -14c-46 -5 -69 -33 -69 -64c0 -37 28 -55 64 -55c48 0 89 27 123 62z" />
<glyph unicode="&#xab;" horiz-adv-x="460" d="M326 60l-104 220l104 220h84l-92 -220l92 -220h-84zM156 60l-104 220l104 220h84l-92 -220l92 -220h-84z" />
<glyph unicode="&#xac;" horiz-adv-x="409" d="M32 400h337v-202h-92v122h-245v80z" />
<glyph unicode="&#xae;" horiz-adv-x="792" d="M36 350c0 199 157 360 360 360s360 -161 360 -360s-157 -360 -360 -360s-360 161 -360 360zM108 350c0 -161 127 -292 288 -292s288 131 288 292s-127 292 -288 292s-288 -131 -288 -292zM264 554h129c99 0 151 -52 151 -131c0 -54 -27 -89 -74 -116l82 -161h-70l-74 148 h-80v-148h-64v408zM328 496v-144h67c53 0 84 24 84 72s-29 72 -84 72h-67z" />
<glyph unicode="&#xaf;" horiz-adv-x="330" d="M46 670h238v-74h-238v74z" />
<glyph unicode="&#xb0;" horiz-adv-x="335" d="M38 580c0 72 58 130 129 130c72 0 130 -58 130 -130c0 -71 -58 -129 -130 -129c-71 0 -129 58 -129 129zM97 580c0 -37 33 -70 70 -70c38 0 71 33 71 70c0 38 -33 71 -71 71c-37 0 -70 -33 -70 -71z" />
<glyph unicode="&#xb1;" horiz-adv-x="461" d="M270 558v-158h159v-80h-159v-159h-80v159h-158v80h158v158h80zM32 80h397v-80h-397v80z" />
<glyph unicode="&#xb2;" horiz-adv-x="331" d="M37 330v60l146 137c21 20 35 37 35 65c0 30 -25 49 -55 49c-34 0 -54 -25 -57 -56h-67c1 69 49 120 124 120c76 0 127 -42 127 -108c0 -48 -26 -82 -68 -121l-89 -83h161v-63h-257z" />
<glyph unicode="&#xb3;" horiz-adv-x="363" d="M294 700v-61l-80 -61c55 -10 100 -46 100 -120c0 -75 -60 -133 -135 -133c-88 0 -137 61 -140 134h69c3 -44 26 -72 70 -72s68 32 68 71c0 45 -32 70 -82 70h-27v56l74 57h-154v59h237z" />
<glyph unicode="&#xb4;" horiz-adv-x="267" d="M36 567l80 133h115l-106 -133h-89z" />
<glyph unicode="&#xb5;" d="M493 0h-88v65c-35 -37 -101 -75 -175 -75c-30 0 -55 6 -77 21v-211h-88v700h88v-329c0 -66 36 -103 102 -103c61 0 113 42 150 96v336h88v-500z" />
<glyph unicode="&#xb6;" horiz-adv-x="610" d="M423 -200v818h-74v-818h-96v541h-13c-122 0 -203 67 -203 179c0 113 81 180 203 180h279v-900h-96z" />
<glyph unicode="&#xb7;" horiz-adv-x="240" d="M49 350c0 39 33 72 72 72s72 -33 72 -72s-33 -72 -72 -72s-72 33 -72 72z" />
<glyph unicode="&#xb8;" horiz-adv-x="412" d="M231 25l-49 -79c12 5 26 11 49 11c42 0 75 -24 75 -70c0 -56 -43 -87 -102 -87c-60 0 -93 35 -98 74h61c6 -10 17 -17 37 -17c19 0 32 11 32 30c0 18 -12 28 -34 28c-12 0 -27 -5 -41 -17l-55 9l53 118h72z" />
<glyph unicode="&#xb9;" horiz-adv-x="227" d="M37 653h8c38 0 62 13 67 47h72v-370h-72v274c-17 -14 -40 -19 -75 -19v68z" />
<glyph unicode="&#xba;" horiz-adv-x="496" d="M45 505c0 118 82 205 203 205c120 0 203 -87 203 -205c0 -117 -83 -205 -203 -205c-121 0 -203 88 -203 205zM381 505c0 93 -58 142 -133 142s-134 -49 -134 -142s59 -142 134 -142s133 49 133 142z" />
<glyph unicode="&#xbb;" horiz-adv-x="460" d="M238 280l-104 -220h-84l92 220l-92 220h84zM408 280l-104 -220h-84l92 220l-92 220h84z" />
<glyph unicode="&#xbc;" horiz-adv-x="722" d="M592 692l57 -47l-527 -637l-57 47zM59 653h8c38 0 62 13 67 47h72v-370h-72v274c-17 -14 -40 -19 -75 -19v68zM390 73v62l176 235h69v-235h44v-62h-44v-73h-72v73h-173zM563 274l-103 -139h103v139z" />
<glyph unicode="&#xbd;" horiz-adv-x="738" d="M592 692l57 -47l-527 -637l-57 47zM59 653h8c38 0 62 13 67 47h72v-370h-72v274c-17 -14 -40 -19 -75 -19v68zM437 0v60l146 137c21 20 35 37 35 65c0 30 -25 49 -55 49c-34 0 -54 -25 -57 -56h-67c1 69 49 120 124 120c76 0 127 -42 127 -108c0 -48 -26 -82 -68 -121 l-89 -83h161v-63h-257z" />
<glyph unicode="&#xbe;" horiz-adv-x="825" d="M695 692l57 -47l-527 -637l-57 47zM493 73v62l176 235h69v-235h44v-62h-44v-73h-72v73h-173zM666 274l-103 -139h103v139zM307 700v-61l-80 -61c55 -10 100 -46 100 -120c0 -75 -60 -133 -135 -133c-88 0 -137 61 -140 134h69c3 -44 26 -72 70 -72s68 32 68 71 c0 45 -32 70 -82 70h-27v56l74 57h-154v59h237z" />
<glyph unicode="&#xbf;" horiz-adv-x="501" d="M212 288h80l2 -37c5 -96 -46 -138 -94 -174c-55 -41 -72 -69 -72 -110c0 -48 46 -89 121 -89s130 44 137 112h88c-4 -115 -90 -200 -225 -200c-148 0 -217 75 -217 172c0 67 31 118 98 165c53 37 77 69 80 122zM324 428c0 -39 -33 -72 -72 -72s-72 33 -72 72s33 72 72 72 s72 -33 72 -72z" />
<glyph unicode="&#xc0;" horiz-adv-x="598" d="M497 0l-47 136h-303l-46 -136h-102l252 700h96l252 -700h-102zM286 539l-109 -315h243l-108 315l-13 75zM266 900l80 -133h-89l-106 133h115z" />
<glyph unicode="&#xc1;" horiz-adv-x="598" d="M497 0l-47 136h-303l-46 -136h-102l252 700h96l252 -700h-102zM286 539l-109 -315h243l-108 315l-13 75zM241 767l80 133h115l-106 -133h-89z" />
<glyph unicode="&#xc2;" horiz-adv-x="598" d="M497 0l-47 136h-303l-46 -136h-102l252 700h96l252 -700h-102zM286 539l-109 -315h243l-108 315l-13 75zM336 900l108 -133h-83l-63 63l-62 -63h-83l108 133h75z" />
<glyph unicode="&#xc3;" horiz-adv-x="598" d="M497 0l-47 136h-303l-46 -136h-102l252 700h96l252 -700h-102zM286 539l-109 -315h243l-108 315l-13 75zM409 895h73c-8 -92 -66 -126 -113 -126c-87 0 -84 59 -135 59c-29 0 -41 -25 -45 -54h-73c8 92 66 126 113 126c87 0 84 -59 135 -59c29 0 41 25 45 54z" />
<glyph unicode="&#xc4;" horiz-adv-x="598" d="M497 0l-47 136h-303l-46 -136h-102l252 700h96l252 -700h-102zM286 539l-109 -315h243l-108 315l-13 75zM328 836c0 30 26 56 56 56s56 -26 56 -56s-26 -56 -56 -56s-56 26 -56 56zM158 836c0 30 26 56 56 56s56 -26 56 -56s-26 -56 -56 -56s-56 26 -56 56z" />
<glyph unicode="&#xc5;" horiz-adv-x="598" d="M497 0l-47 136h-303l-46 -136h-102l252 700h96l252 -700h-102zM286 539l-109 -315h243l-108 315l-13 75zM217 828c0 45 37 82 82 82s82 -37 82 -82s-37 -82 -82 -82s-82 37 -82 82zM259 828c0 -23 17 -40 40 -40s40 17 40 40s-17 40 -40 40s-40 -17 -40 -40z" />
<glyph unicode="&#xc6;" horiz-adv-x="885" d="M838 612h-323v-218h296v-88h-296v-218h334v-88h-430v136h-244l-72 -136h-104l372 700h467v-88zM398 553l-176 -329h197v390z" />
<glyph unicode="&#xc7;" horiz-adv-x="736" d="M145 350c0 -157 97 -272 249 -272c111 0 189 58 217 153h96c-29 -140 -140 -236 -301 -241l-27 -44c12 5 26 11 49 11c42 0 75 -24 75 -70c0 -56 -43 -87 -102 -87c-60 0 -93 35 -98 74h61c6 -10 17 -17 37 -17c19 0 32 11 32 30c0 18 -12 28 -34 28 c-12 0 -27 -5 -41 -17l-55 9l39 87c-166 24 -295 161 -295 356c0 215 158 360 348 360c168 0 283 -98 312 -241h-96c-28 95 -106 153 -217 153c-152 0 -249 -115 -249 -272z" />
<glyph unicode="&#xc8;" horiz-adv-x="537" d="M490 612h-323v-218h296v-88h-296v-218h334v-88h-430v700h419v-88zM293 900l80 -133h-89l-106 133h115z" />
<glyph unicode="&#xc9;" horiz-adv-x="537" d="M490 612h-323v-218h296v-88h-296v-218h334v-88h-430v700h419v-88zM208 767l80 133h115l-106 -133h-89z" />
<glyph unicode="&#xca;" horiz-adv-x="537" d="M490 612h-323v-218h296v-88h-296v-218h334v-88h-430v700h419v-88zM323 900l108 -133h-83l-63 63l-62 -63h-83l108 133h75z" />
<glyph unicode="&#xcb;" horiz-adv-x="537" d="M490 612h-323v-218h296v-88h-296v-218h334v-88h-430v700h419v-88zM311 836c0 30 26 56 56 56s56 -26 56 -56s-26 -56 -56 -56s-56 26 -56 56zM141 836c0 30 26 56 56 56s56 -26 56 -56s-26 -56 -56 -56s-56 26 -56 56z" />
<glyph unicode="&#xcc;" horiz-adv-x="238" d="M71 700h96v-700h-96v700zM107 900l80 -133h-89l-106 133h115z" />
<glyph unicode="&#xcd;" horiz-adv-x="238" d="M71 700h96v-700h-96v700zM52 767l80 133h115l-106 -133h-89z" />
<glyph unicode="&#xce;" horiz-adv-x="238" d="M71 700h96v-700h-96v700zM157 900l108 -133h-83l-63 63l-62 -63h-83l108 133h75z" />
<glyph unicode="&#xcf;" horiz-adv-x="238" d="M71 700h96v-700h-96v700zM148 836c0 30 26 56 56 56s56 -26 56 -56s-26 -56 -56 -56s-56 26 -56 56zM-22 836c0 30 26 56 56 56s56 -26 56 -56s-26 -56 -56 -56s-56 26 -56 56z" />
<glyph unicode="&#xd0;" horiz-adv-x="709" d="M9 390h85v310h202c229 0 366 -139 366 -350s-137 -350 -366 -350h-202v310h-85v80zM566 350c0 184 -111 262 -274 262h-102v-222h156v-80h-156v-222h102c163 0 274 78 274 262z" />
<glyph unicode="&#xd1;" horiz-adv-x="668" d="M501 700h96v-700h-108l-322 549v-549h-96v700h108l322 -549v549zM444 895h73c-8 -92 -66 -126 -113 -126c-87 0 -84 59 -135 59c-29 0 -41 -25 -45 -54h-73c8 92 66 126 113 126c87 0 84 -59 135 -59c29 0 41 25 45 54z" />
<glyph unicode="&#xd2;" horiz-adv-x="790" d="M395 710c194 0 348 -145 348 -360s-154 -360 -348 -360s-348 145 -348 360s154 360 348 360zM395 78c153 0 250 112 250 272s-97 272 -250 272s-250 -112 -250 -272s97 -272 250 -272zM372 900l80 -133h-89l-106 133h115z" />
<glyph unicode="&#xd3;" horiz-adv-x="790" d="M395 710c194 0 348 -145 348 -360s-154 -360 -348 -360s-348 145 -348 360s154 360 348 360zM395 78c153 0 250 112 250 272s-97 272 -250 272s-250 -112 -250 -272s97 -272 250 -272zM317 767l80 133h115l-106 -133h-89z" />
<glyph unicode="&#xd4;" horiz-adv-x="790" d="M395 710c194 0 348 -145 348 -360s-154 -360 -348 -360s-348 145 -348 360s154 360 348 360zM395 78c153 0 250 112 250 272s-97 272 -250 272s-250 -112 -250 -272s97 -272 250 -272zM432 900l108 -133h-83l-63 63l-62 -63h-83l108 133h75z" />
<glyph unicode="&#xd5;" horiz-adv-x="790" d="M395 710c194 0 348 -145 348 -360s-154 -360 -348 -360s-348 145 -348 360s154 360 348 360zM395 78c153 0 250 112 250 272s-97 272 -250 272s-250 -112 -250 -272s97 -272 250 -272zM505 895h73c-8 -92 -66 -126 -113 -126c-87 0 -84 59 -135 59c-29 0 -41 -25 -45 -54 h-73c8 92 66 126 113 126c87 0 84 -59 135 -59c29 0 41 25 45 54z" />
<glyph unicode="&#xd6;" horiz-adv-x="790" d="M395 710c194 0 348 -145 348 -360s-154 -360 -348 -360s-348 145 -348 360s154 360 348 360zM395 78c153 0 250 112 250 272s-97 272 -250 272s-250 -112 -250 -272s97 -272 250 -272zM424 836c0 30 26 56 56 56s56 -26 56 -56s-26 -56 -56 -56s-56 26 -56 56zM254 836 c0 30 26 56 56 56s56 -26 56 -56s-26 -56 -56 -56s-56 26 -56 56z" />
<glyph unicode="&#xd7;" horiz-adv-x="461" d="M118 528l112 -112l112 112l57 -56l-113 -113l113 -112l-57 -56l-112 112l-112 -112l-56 57l111 111l-111 112z" />
<glyph unicode="&#xd8;" horiz-adv-x="790" d="M395 710c47 0 92 -9 133 -25l30 54l76 -39l-31 -57c85 -62 140 -165 140 -293c0 -215 -154 -360 -348 -360c-48 0 -93 9 -134 25l-29 -54l-76 39l30 56c-85 63 -139 166 -139 294c0 215 154 360 348 360zM395 78c159 0 250 112 250 272c0 89 -33 163 -87 211l-254 -467 c28 -10 58 -16 91 -16zM145 350c0 -89 32 -163 86 -212l254 467c-27 11 -58 17 -90 17c-145 0 -250 -112 -250 -272z" />
<glyph unicode="&#xd9;" horiz-adv-x="644" d="M68 700h96v-448c0 -110 50 -174 158 -174s158 64 158 174v448h96v-452c0 -150 -94 -258 -254 -258s-254 108 -254 258v452zM309 900l80 -133h-89l-106 133h115z" />
<glyph unicode="&#xda;" horiz-adv-x="644" d="M68 700h96v-448c0 -110 50 -174 158 -174s158 64 158 174v448h96v-452c0 -150 -94 -258 -254 -258s-254 108 -254 258v452zM244 767l80 133h115l-106 -133h-89z" />
<glyph unicode="&#xdb;" horiz-adv-x="644" d="M68 700h96v-448c0 -110 50 -174 158 -174s158 64 158 174v448h96v-452c0 -150 -94 -258 -254 -258s-254 108 -254 258v452zM359 900l108 -133h-83l-63 63l-62 -63h-83l108 133h75z" />
<glyph unicode="&#xdc;" horiz-adv-x="644" d="M68 700h96v-448c0 -110 50 -174 158 -174s158 64 158 174v448h96v-452c0 -150 -94 -258 -254 -258s-254 108 -254 258v452zM351 836c0 30 26 56 56 56s56 -26 56 -56s-26 -56 -56 -56s-56 26 -56 56zM181 836c0 30 26 56 56 56s56 -26 56 -56s-26 -56 -56 -56 s-56 26 -56 56z" />
<glyph unicode="&#xdd;" horiz-adv-x="544" d="M16 700h104l137 -296l15 -68l15 68l137 296h104l-208 -440v-260h-96v260zM214 767l80 133h115l-106 -133h-89z" />
<glyph unicode="&#xde;" horiz-adv-x="610" d="M71 700h96v-121h144c156 0 259 -86 259 -229s-103 -229 -259 -229h-144v-121h-96v700zM167 491v-282h146c104 0 161 44 161 141s-57 141 -161 141h-146z" />
<glyph unicode="&#xdf;" horiz-adv-x="587" d="M196 0h-88v420h-86v80h86v10c0 122 76 200 188 200c101 0 180 -55 180 -148c0 -92 -103 -136 -103 -172c0 -24 39 -40 87 -66c60 -33 102 -84 102 -156c0 -112 -74 -178 -168 -178c-96 0 -171 58 -177 166h83c8 -53 39 -86 94 -86c46 0 82 30 82 89c0 57 -35 86 -101 117 c-59 28 -90 60 -90 109c0 74 97 101 97 175c0 46 -39 72 -86 72c-61 0 -100 -44 -100 -121v-511z" />
<glyph unicode="&#xe0;" horiz-adv-x="555" d="M535 70v-66c-24 -8 -40 -10 -56 -10c-44 0 -85 18 -99 78c-33 -40 -95 -82 -169 -82c-94 0 -159 56 -159 145c0 98 79 148 169 157l156 16v34c0 60 -47 88 -111 88c-53 0 -95 -24 -109 -81h-83c16 112 108 161 198 161c117 0 193 -63 193 -158v-234c0 -32 14 -52 44 -52 c8 0 16 1 26 4zM377 148v90l-150 -17c-59 -7 -87 -42 -87 -82c0 -47 35 -69 81 -69c61 0 112 34 156 78zM258 700l80 -133h-89l-106 133h115z" />
<glyph unicode="&#xe1;" horiz-adv-x="555" d="M535 70v-66c-24 -8 -40 -10 -56 -10c-44 0 -85 18 -99 78c-33 -40 -95 -82 -169 -82c-94 0 -159 56 -159 145c0 98 79 148 169 157l156 16v34c0 60 -47 88 -111 88c-53 0 -95 -24 -109 -81h-83c16 112 108 161 198 161c117 0 193 -63 193 -158v-234c0 -32 14 -52 44 -52 c8 0 16 1 26 4zM377 148v90l-150 -17c-59 -7 -87 -42 -87 -82c0 -47 35 -69 81 -69c61 0 112 34 156 78zM193 567l80 133h115l-106 -133h-89z" />
<glyph unicode="&#xe2;" horiz-adv-x="555" d="M535 70v-66c-24 -8 -40 -10 -56 -10c-44 0 -85 18 -99 78c-33 -40 -95 -82 -169 -82c-94 0 -159 56 -159 145c0 98 79 148 169 157l156 16v34c0 60 -47 88 -111 88c-53 0 -95 -24 -109 -81h-83c16 112 108 161 198 161c117 0 193 -63 193 -158v-234c0 -32 14 -52 44 -52 c8 0 16 1 26 4zM377 148v90l-150 -17c-59 -7 -87 -42 -87 -82c0 -47 35 -69 81 -69c61 0 112 34 156 78zM316 700l108 -133h-83l-63 63l-62 -63h-83l108 133h75z" />
<glyph unicode="&#xe3;" horiz-adv-x="555" d="M535 70v-66c-24 -8 -40 -10 -56 -10c-44 0 -85 18 -99 78c-33 -40 -95 -82 -169 -82c-94 0 -159 56 -159 145c0 98 79 148 169 157l156 16v34c0 60 -47 88 -111 88c-53 0 -95 -24 -109 -81h-83c16 112 108 161 198 161c117 0 193 -63 193 -158v-234c0 -32 14 -52 44 -52 c8 0 16 1 26 4zM377 148v90l-150 -17c-59 -7 -87 -42 -87 -82c0 -47 35 -69 81 -69c61 0 112 34 156 78zM382 695h73c-8 -92 -66 -126 -113 -126c-87 0 -84 59 -135 59c-29 0 -41 -25 -45 -54h-73c8 92 66 126 113 126c87 0 84 -59 135 -59c29 0 41 25 45 54z" />
<glyph unicode="&#xe4;" horiz-adv-x="555" d="M535 70v-66c-24 -8 -40 -10 -56 -10c-44 0 -85 18 -99 78c-33 -40 -95 -82 -169 -82c-94 0 -159 56 -159 145c0 98 79 148 169 157l156 16v34c0 60 -47 88 -111 88c-53 0 -95 -24 -109 -81h-83c16 112 108 161 198 161c117 0 193 -63 193 -158v-234c0 -32 14 -52 44 -52 c8 0 16 1 26 4zM377 148v90l-150 -17c-59 -7 -87 -42 -87 -82c0 -47 35 -69 81 -69c61 0 112 34 156 78zM305 636c0 30 26 56 56 56s56 -26 56 -56s-26 -56 -56 -56s-56 26 -56 56zM135 636c0 30 26 56 56 56s56 -26 56 -56s-26 -56 -56 -56s-56 26 -56 56z" />
<glyph unicode="&#xe5;" horiz-adv-x="555" d="M535 70v-66c-24 -8 -40 -10 -56 -10c-44 0 -85 18 -99 78c-33 -40 -95 -82 -169 -82c-94 0 -159 56 -159 145c0 98 79 148 169 157l156 16v34c0 60 -47 88 -111 88c-53 0 -95 -24 -109 -81h-83c16 112 108 161 198 161c117 0 193 -63 193 -158v-234c0 -32 14 -52 44 -52 c8 0 16 1 26 4zM377 148v90l-150 -17c-59 -7 -87 -42 -87 -82c0 -47 35 -69 81 -69c61 0 112 34 156 78zM189 628c0 45 37 82 82 82s82 -37 82 -82s-37 -82 -82 -82s-82 37 -82 82zM231 628c0 -23 17 -40 40 -40s40 17 40 40s-17 40 -40 40s-40 -17 -40 -40z" />
<glyph unicode="&#xe6;" horiz-adv-x="904" d="M854 222h-389v-14c8 -88 69 -138 155 -138c78 0 129 41 147 101h82c-27 -111 -107 -181 -230 -181c-92 0 -161 37 -202 101c-49 -65 -126 -101 -195 -101c-105 0 -170 56 -170 145c0 98 77 154 189 158l136 5v36c0 60 -46 96 -110 96c-53 0 -96 -24 -110 -81h-83 c16 112 109 161 199 161c79 0 139 -29 170 -77c45 49 108 77 176 77c134 0 235 -93 235 -254v-34zM619 430c-78 0 -140 -48 -154 -132h306c-7 88 -74 132 -152 132zM377 148v72l-131 -6c-73 -3 -106 -35 -106 -75c0 -47 32 -69 84 -69c54 0 104 22 153 78z" />
<glyph unicode="&#xe7;" horiz-adv-x="574" d="M133 250c0 -113 69 -180 163 -180c84 0 136 42 152 111h83c-18 -118 -103 -187 -226 -191l-27 -44c12 5 26 11 49 11c42 0 75 -24 75 -70c0 -56 -43 -87 -102 -87c-60 0 -93 35 -98 74h61c6 -10 17 -17 37 -17c19 0 32 11 32 30c0 18 -12 28 -34 28c-12 0 -27 -5 -41 -17 l-55 9l39 89c-115 22 -196 118 -196 254c0 156 107 260 250 260c128 0 218 -70 236 -191h-83c-16 69 -68 111 -152 111c-94 0 -163 -67 -163 -180z" />
<glyph unicode="&#xe8;" horiz-adv-x="574" d="M524 222h-390c3 -96 66 -152 156 -152c78 0 129 41 147 101h82c-27 -111 -107 -181 -230 -181c-152 0 -244 104 -244 260s113 260 244 260c134 0 235 -93 235 -254v-34zM289 430c-78 0 -140 -48 -154 -132h306c-7 88 -74 132 -152 132zM270 700l80 -133h-89l-106 133h115 z" />
<glyph unicode="&#xe9;" horiz-adv-x="574" d="M524 222h-390c3 -96 66 -152 156 -152c78 0 129 41 147 101h82c-27 -111 -107 -181 -230 -181c-152 0 -244 104 -244 260s113 260 244 260c134 0 235 -93 235 -254v-34zM289 430c-78 0 -140 -48 -154 -132h306c-7 88 -74 132 -152 132zM205 567l80 133h115l-106 -133h-89 z" />
<glyph unicode="&#xea;" horiz-adv-x="574" d="M524 222h-390c3 -96 66 -152 156 -152c78 0 129 41 147 101h82c-27 -111 -107 -181 -230 -181c-152 0 -244 104 -244 260s113 260 244 260c134 0 235 -93 235 -254v-34zM289 430c-78 0 -140 -48 -154 -132h306c-7 88 -74 132 -152 132zM331 700l108 -133h-83l-63 63 l-62 -63h-83l108 133h75z" />
<glyph unicode="&#xeb;" horiz-adv-x="574" d="M524 222h-390c3 -96 66 -152 156 -152c78 0 129 41 147 101h82c-27 -111 -107 -181 -230 -181c-152 0 -244 104 -244 260s113 260 244 260c134 0 235 -93 235 -254v-34zM289 430c-78 0 -140 -48 -154 -132h306c-7 88 -74 132 -152 132zM320 636c0 30 26 56 56 56 s56 -26 56 -56s-26 -56 -56 -56s-56 26 -56 56zM150 636c0 30 26 56 56 56s56 -26 56 -56s-26 -56 -56 -56s-56 26 -56 56z" />
<glyph unicode="&#xec;" horiz-adv-x="228" d="M70 500h88v-500h-88v500zM102 700l80 -133h-89l-106 133h115z" />
<glyph unicode="&#xed;" horiz-adv-x="228" d="M70 500h88v-500h-88v500zM47 567l80 133h115l-106 -133h-89z" />
<glyph unicode="&#xee;" horiz-adv-x="228" d="M70 500h88v-500h-88v500zM152 700l108 -133h-83l-63 63l-62 -63h-83l108 133h75z" />
<glyph unicode="&#xef;" horiz-adv-x="228" d="M70 500h88v-500h-88v500zM143 636c0 30 26 56 56 56s56 -26 56 -56s-26 -56 -56 -56s-56 26 -56 56zM-27 636c0 30 26 56 56 56s56 -26 56 -56s-26 -56 -56 -56s-56 26 -56 56z" />
<glyph unicode="&#xf0;" horiz-adv-x="609" d="M300 534l-21 61l85 29c-31 18 -66 26 -101 26c-28 0 -66 -7 -87 -20l-33 68c32 20 72 32 117 32c80 0 148 -25 198 -73l61 21l21 -61l-38 -13c40 -63 62 -149 62 -255c0 -110 -16 -188 -63 -257c-43 -64 -127 -102 -198 -102c-157 0 -258 130 -258 260 c0 147 96 260 240 260c74 0 142 -24 183 -76c-6 62 -23 108 -48 141zM463 250c0 105 -62 180 -165 180s-165 -75 -165 -180s62 -180 165 -180s165 75 165 180z" />
<glyph unicode="&#xf1;" d="M65 500h88v-65c35 37 101 75 175 75c107 0 165 -64 165 -165v-345h-88v329c0 66 -36 103 -102 103c-61 0 -113 -42 -150 -96v-336h-88v500zM396 695h73c-8 -92 -66 -126 -113 -126c-87 0 -84 59 -135 59c-29 0 -41 -25 -45 -54h-73c8 92 66 126 113 126 c87 0 84 -59 135 -59c29 0 41 25 45 54z" />
<glyph unicode="&#xf2;" horiz-adv-x="604" d="M45 250c0 149 104 260 257 260s257 -111 257 -260s-104 -260 -257 -260s-257 111 -257 260zM471 250c0 118 -74 180 -169 180s-169 -62 -169 -180s74 -180 169 -180s169 62 169 180zM289 700l80 -133h-89l-106 133h115z" />
<glyph unicode="&#xf3;" horiz-adv-x="604" d="M45 250c0 149 104 260 257 260s257 -111 257 -260s-104 -260 -257 -260s-257 111 -257 260zM471 250c0 118 -74 180 -169 180s-169 -62 -169 -180s74 -180 169 -180s169 62 169 180zM224 567l80 133h115l-106 -133h-89z" />
<glyph unicode="&#xf4;" horiz-adv-x="604" d="M45 250c0 149 104 260 257 260s257 -111 257 -260s-104 -260 -257 -260s-257 111 -257 260zM471 250c0 118 -74 180 -169 180s-169 -62 -169 -180s74 -180 169 -180s169 62 169 180zM339 700l108 -133h-83l-63 63l-62 -63h-83l108 133h75z" />
<glyph unicode="&#xf5;" horiz-adv-x="604" d="M45 250c0 149 104 260 257 260s257 -111 257 -260s-104 -260 -257 -260s-257 111 -257 260zM471 250c0 118 -74 180 -169 180s-169 -62 -169 -180s74 -180 169 -180s169 62 169 180zM408 695h73c-8 -92 -66 -126 -113 -126c-87 0 -84 59 -135 59c-29 0 -41 -25 -45 -54 h-73c8 92 66 126 113 126c87 0 84 -59 135 -59c29 0 41 25 45 54z" />
<glyph unicode="&#xf6;" horiz-adv-x="604" d="M45 250c0 149 104 260 257 260s257 -111 257 -260s-104 -260 -257 -260s-257 111 -257 260zM471 250c0 118 -74 180 -169 180s-169 -62 -169 -180s74 -180 169 -180s169 62 169 180zM331 636c0 30 26 56 56 56s56 -26 56 -56s-26 -56 -56 -56s-56 26 -56 56zM161 636 c0 30 26 56 56 56s56 -26 56 -56s-26 -56 -56 -56s-56 26 -56 56z" />
<glyph unicode="&#xf7;" horiz-adv-x="457" d="M157 438c0 39 33 72 72 72s72 -33 72 -72s-33 -72 -72 -72s-72 33 -72 72zM157 72c0 39 33 72 72 72s72 -33 72 -72s-33 -72 -72 -72s-72 33 -72 72zM30 295h397v-80h-397v80z" />
<glyph unicode="&#xf8;" horiz-adv-x="604" d="M45 250c0 149 104 260 257 260c33 0 63 -5 91 -15l24 44l76 -39l-25 -46c57 -47 91 -119 91 -204c0 -149 -104 -260 -257 -260c-29 0 -56 4 -80 11l-22 -40l-76 39l21 39c-63 46 -100 122 -100 211zM133 250c0 -61 20 -107 52 -137l169 310c-17 4 -34 7 -52 7 c-95 0 -169 -62 -169 -180zM471 250c0 55 -17 99 -44 129l-166 -305c13 -3 27 -4 41 -4c95 0 169 62 169 180z" />
<glyph unicode="&#xf9;" d="M493 0h-88v65c-35 -37 -101 -75 -175 -75c-107 0 -165 64 -165 165v345h88v-329c0 -66 36 -103 102 -103c61 0 113 42 150 96v336h88v-500zM276 700l80 -133h-89l-106 133h115z" />
<glyph unicode="&#xfa;" d="M493 0h-88v65c-35 -37 -101 -75 -175 -75c-107 0 -165 64 -165 165v345h88v-329c0 -66 36 -103 102 -103c61 0 113 42 150 96v336h88v-500zM201 567l80 133h115l-106 -133h-89z" />
<glyph unicode="&#xfb;" d="M493 0h-88v65c-35 -37 -101 -75 -175 -75c-107 0 -165 64 -165 165v345h88v-329c0 -66 36 -103 102 -103c61 0 113 42 150 96v336h88v-500zM316 700l108 -133h-83l-63 63l-62 -63h-83l108 133h75z" />
<glyph unicode="&#xfc;" d="M493 0h-88v65c-35 -37 -101 -75 -175 -75c-107 0 -165 64 -165 165v345h88v-329c0 -66 36 -103 102 -103c61 0 113 42 150 96v336h88v-500zM308 636c0 30 26 56 56 56s56 -26 56 -56s-26 -56 -56 -56s-56 26 -56 56zM138 636c0 30 26 56 56 56s56 -26 56 -56 s-26 -56 -56 -56s-56 26 -56 56z" />
<glyph unicode="&#xfd;" horiz-adv-x="498" d="M125 -200l89 222l-198 478h92l134 -319l13 -61l146 380h89l-278 -700h-87zM179 567l80 133h115l-106 -133h-89z" />
<glyph unicode="&#xfe;" horiz-adv-x="576" d="M143 -200h-88v900h88v-255c29 31 82 65 159 65c123 0 229 -100 229 -260s-96 -260 -227 -260c-64 0 -123 23 -161 63v-253zM288 70c84 0 155 54 155 180s-71 180 -155 180c-79 0 -145 -60 -145 -131v-96c0 -71 66 -133 145 -133z" />
<glyph unicode="&#xff;" horiz-adv-x="498" d="M125 -200l89 222l-198 478h92l134 -319l13 -61l146 380h89l-278 -700h-87zM288 636c0 30 26 56 56 56s56 -26 56 -56s-26 -56 -56 -56s-56 26 -56 56zM118 636c0 30 26 56 56 56s56 -26 56 -56s-26 -56 -56 -56s-56 26 -56 56z" />
<glyph unicode="&#x131;" horiz-adv-x="218" d="M65 500h88v-500h-88v500z" />
<glyph unicode="&#x141;" horiz-adv-x="571" d="M92 0v209l-44 -25l-40 69l84 48v399h96v-343l113 65l40 -69l-153 -88v-177h345v-88h-441z" />
<glyph unicode="&#x142;" horiz-adv-x="268" d="M91 730h86v-356l83 48l40 -69l-123 -71v-282h-86v232l-83 -48l-40 69l123 71v406z" />
<glyph unicode="&#x152;" horiz-adv-x="1111" d="M1064 612h-323v-218h296v-88h-296v-218h334v-88h-430v92c-63 -65 -152 -102 -250 -102c-194 0 -348 145 -348 360s154 360 348 360c98 0 187 -38 250 -103v93h419v-88zM395 78c159 0 250 112 250 272s-109 272 -250 272c-145 0 -250 -112 -250 -272s105 -272 250 -272z " />
<glyph unicode="&#x153;" horiz-adv-x="1000" d="M950 222h-390c3 -96 66 -152 156 -152c78 0 129 41 147 101h82c-27 -111 -107 -181 -230 -181c-92 0 -162 38 -203 103c-45 -64 -119 -103 -210 -103c-153 0 -257 111 -257 260s104 260 257 260c93 0 168 -42 212 -108c45 68 119 108 201 108c134 0 235 -93 235 -254v-34 zM471 250c0 118 -74 180 -169 180s-169 -62 -169 -180s74 -180 169 -180s169 62 169 180zM715 430c-78 0 -140 -48 -154 -132h306c-7 88 -74 132 -152 132z" />
<glyph unicode="&#x160;" horiz-adv-x="590" d="M280 622c-74 0 -126 -33 -126 -82c0 -61 56 -88 180 -116c134 -30 214 -94 214 -213c0 -133 -109 -221 -249 -221c-134 0 -255 87 -263 228h93c9 -91 82 -140 170 -140c84 0 153 43 153 130c0 80 -48 115 -182 144c-120 26 -210 73 -210 185c0 105 97 173 220 173 c139 0 228 -74 237 -200h-91c-11 75 -62 112 -146 112zM438 900l-108 -133h-75l-108 133h83l62 -63l63 63h83z" />
<glyph unicode="&#x161;" horiz-adv-x="453" d="M400 352h-87c-7 54 -46 82 -101 82c-39 0 -85 -17 -85 -57c0 -37 41 -57 131 -81c105 -28 162 -66 162 -144c0 -92 -75 -162 -189 -162c-119 0 -196 62 -206 166h83c13 -51 45 -86 125 -86c53 0 101 25 101 71c0 45 -46 65 -144 90c-99 25 -147 66 -147 144 c0 73 69 135 169 135c107 0 179 -55 188 -158zM364 700l-108 -133h-75l-108 133h83l62 -63l63 63h83z" />
<glyph unicode="&#x178;" horiz-adv-x="544" d="M16 700h104l137 -296l15 -68l15 68l137 296h104l-208 -440v-260h-96v260zM301 836c0 30 26 56 56 56s56 -26 56 -56s-26 -56 -56 -56s-56 26 -56 56zM131 836c0 30 26 56 56 56s56 -26 56 -56s-26 -56 -56 -56s-56 26 -56 56z" />
<glyph unicode="&#x17d;" horiz-adv-x="564" d="M35 88l362 524h-344v88h458v-68l-372 -544h384v-88h-488v88zM423 900l-108 -133h-75l-108 133h83l62 -63l63 63h83z" />
<glyph unicode="&#x17e;" horiz-adv-x="423" d="M26 66l260 354h-248v80h355v-62l-261 -358h261v-80h-367v66zM365 700l-108 -133h-75l-108 133h83l62 -63l63 63h83z" />
<glyph unicode="&#x192;" horiz-adv-x="329" d="M196 -72c0 -89 -52 -138 -124 -138c-23 0 -44 5 -57 10v79c14 -6 28 -11 47 -11c25 0 46 17 46 55v497h-86v80h86v95c0 102 64 145 140 145c28 0 50 -5 63 -10v-79c-12 4 -33 11 -57 11c-34 0 -58 -21 -58 -62v-100h112v-80h-112v-492z" />
<glyph unicode="&#x2c6;" horiz-adv-x="347" d="M211 700l108 -133h-83l-63 63l-62 -63h-83l108 133h75z" />
<glyph unicode="&#x2c7;" horiz-adv-x="347" d="M319 700l-108 -133h-75l-108 133h83l62 -63l63 63h83z" />
<glyph unicode="&#x2d8;" horiz-adv-x="228" d="M150 680h70c0 -60 -39 -106 -106 -106s-106 46 -106 106h70c0 -23 13 -40 36 -40s36 17 36 40z" />
<glyph unicode="&#x2d9;" horiz-adv-x="228" d="M50 636c0 35 29 64 64 64s64 -29 64 -64s-29 -64 -64 -64s-64 29 -64 64z" />
<glyph unicode="&#x2da;" horiz-adv-x="228" d="M32 628c0 45 37 82 82 82s82 -37 82 -82s-37 -82 -82 -82s-82 37 -82 82zM74 628c0 -23 17 -40 40 -40s40 17 40 40s-17 40 -40 40s-40 -17 -40 -40z" />
<glyph unicode="&#x2db;" horiz-adv-x="318" d="M113 0h65c-32 -32 -52 -59 -52 -89c0 -21 16 -35 35 -35c17 0 32 8 46 30l47 -35c-22 -38 -52 -61 -101 -61c-59 0 -97 39 -97 89c0 46 27 82 57 101z" />
<glyph unicode="&#x2dc;" horiz-adv-x="434" d="M327 695h73c-8 -92 -66 -126 -113 -126c-87 0 -84 59 -135 59c-29 0 -41 -25 -45 -54h-73c8 92 66 126 113 126c87 0 84 -59 135 -59c29 0 41 25 45 54z" />
<glyph unicode="&#x2dd;" horiz-adv-x="434" d="M40 567l66 133h112l-92 -133h-86zM207 567l66 133h112l-92 -133h-86z" />
<glyph unicode="&#x2206;" horiz-adv-x="700" d="M690 0h-680l292 700h96zM337 551l-190 -463h406l-190 463l-13 75z" />
<glyph unicode="&#x2126;" horiz-adv-x="778" d="M690 88v-88h-251v88c92 46 194 161 194 292c0 152 -116 242 -244 242s-244 -90 -244 -242c0 -131 102 -246 194 -292v-88h-251v88h124c-76 48 -165 167 -165 301c0 204 164 321 342 321s342 -117 342 -321c0 -134 -89 -253 -165 -301h124z" />
<glyph unicode="&#x2013;" horiz-adv-x="511" d="M32 380h447v-80h-447v80z" />
<glyph unicode="&#x2014;" horiz-adv-x="736" d="M32 380h672v-80h-672v80z" />
<glyph unicode="&#x2018;" horiz-adv-x="243" d="M199 710l12 -29c-55 -20 -82 -52 -89 -93c39 -4 70 -29 70 -72s-30 -72 -72 -72s-72 33 -72 81c0 75 43 150 151 185z" />
<glyph unicode="&#x2019;" horiz-adv-x="243" d="M44 444l-12 29c55 20 82 52 89 93c-39 4 -70 29 -70 72s30 72 72 72s72 -33 72 -81c0 -75 -43 -150 -151 -185z" />
<glyph unicode="&#x201a;" horiz-adv-x="243" d="M44 -122l-12 29c55 20 82 52 89 93c-39 4 -70 29 -70 72s30 72 72 72s72 -33 72 -81c0 -75 -43 -150 -151 -185z" />
<glyph unicode="&#x201c;" horiz-adv-x="423" d="M199 710l12 -29c-55 -20 -82 -52 -89 -93c39 -4 70 -29 70 -72s-30 -72 -72 -72s-72 33 -72 81c0 75 43 150 151 185zM379 710l12 -29c-55 -20 -82 -52 -89 -93c39 -4 70 -29 70 -72s-30 -72 -72 -72s-72 33 -72 81c0 75 43 150 151 185z" />
<glyph unicode="&#x201d;" horiz-adv-x="423" d="M224 444l-12 29c55 20 82 52 89 93c-39 4 -70 29 -70 72s30 72 72 72s72 -33 72 -81c0 -75 -43 -150 -151 -185zM44 444l-12 29c55 20 82 52 89 93c-39 4 -70 29 -70 72s30 72 72 72s72 -33 72 -81c0 -75 -43 -150 -151 -185z" />
<glyph unicode="&#x201e;" horiz-adv-x="423" d="M224 -122l-12 29c55 20 82 52 89 93c-39 4 -70 29 -70 72s30 72 72 72s72 -33 72 -81c0 -75 -43 -150 -151 -185zM44 -122l-12 29c55 20 82 52 89 93c-39 4 -70 29 -70 72s30 72 72 72s72 -33 72 -81c0 -75 -43 -150 -151 -185z" />
<glyph unicode="&#x2020;" horiz-adv-x="369" d="M16 500h126v200h84v-200h127v-80h-127v-540h-84v540h-126v80z" />
<glyph unicode="&#x2021;" horiz-adv-x="369" d="M16 500h126v200h84v-200h127v-80h-127v-260h127v-80h-127v-200h-84v200h-126v80h126v260h-126v80z" />
<glyph unicode="&#x2022;" horiz-adv-x="318" d="M61 350c0 55 43 98 98 98s98 -43 98 -98s-43 -98 -98 -98s-98 43 -98 98z" />
<glyph unicode="&#x2030;" horiz-adv-x="1216" d="M831 162c0 99 69 172 170 172s170 -73 170 -172s-69 -172 -170 -172s-170 73 -170 172zM1103 162c0 71 -45 108 -102 108s-102 -37 -102 -108s45 -108 102 -108s102 37 102 108zM449 162c0 99 69 172 170 172s170 -73 170 -172s-69 -172 -170 -172s-170 73 -170 172z M721 162c0 71 -45 108 -102 108s-102 -37 -102 -108s45 -108 102 -108s102 37 102 108zM652 692l57 -47l-527 -637l-57 47zM45 538c0 99 69 172 170 172s170 -73 170 -172s-69 -172 -170 -172s-170 73 -170 172zM317 538c0 71 -45 108 -102 108s-102 -37 -102 -108 s45 -108 102 -108s102 37 102 108z" />
<glyph unicode="&#x2039;" horiz-adv-x="290" d="M156 60l-104 220l104 220h84l-92 -220l92 -220h-84z" />
<glyph unicode="&#x203a;" horiz-adv-x="290" d="M238 280l-104 -220h-84l92 220l-92 220h84z" />
<glyph unicode="&#x2044;" horiz-adv-x="714" d="M592 692l57 -47l-527 -637l-57 47z" />
<glyph unicode="&#x20ac;" horiz-adv-x="710" d="M24 471h91c38 142 144 239 298 239c141 0 244 -70 277 -200h-99c-28 79 -86 112 -178 112c-99 0 -167 -59 -197 -151h205v-80h-221c-1 -10 -2 -27 -2 -41v-21h223v-80h-211c26 -104 97 -171 203 -171c92 0 150 33 178 112h99c-33 -130 -136 -200 -277 -200 c-162 0 -271 106 -303 259h-86v80h76v21c0 14 0 18 1 41h-77v80z" />
<glyph unicode="&#x2122;" horiz-adv-x="735" d="M181 646v-346h-58v346h-100v54h258v-54h-100zM332 700h61l129 -331l129 331h61v-400h-58v256l-103 -256h-58l-103 256v-256h-58v400z" />
<glyph unicode="&#x2202;" horiz-adv-x="588" d="M266 -10c-126 0 -232 93 -232 226c0 138 105 247 256 247c70 0 136 -30 169 -78c2 15 3 29 3 43c0 118 -62 194 -149 194c-61 0 -113 -31 -130 -94h-93c17 106 113 182 226 182c159 0 241 -121 241 -310c0 -113 -21 -229 -89 -311c-52 -62 -126 -99 -202 -99zM436 245 c0 77 -52 139 -140 139c-100 0 -164 -82 -164 -168c0 -81 56 -138 144 -138c91 0 160 75 160 167z" />
<glyph unicode="&#x220f;" horiz-adv-x="617" d="M71 700h475v-900h-96v812h-283v-812h-96v900z" />
<glyph unicode="&#x2211;" horiz-adv-x="564" d="M392 301l-240 -311h358v-88h-483v68l255 331l-235 331v68h446v-88h-321z" />
<glyph unicode="&#x2212;" horiz-adv-x="461" d="M32 400h397v-80h-397v80z" />
<glyph unicode="&#x221a;" horiz-adv-x="642" d="M55 340h193l68 -197l201 587h92l-250 -730h-92l-90 260h-122v80z" />
<glyph unicode="&#x221e;" horiz-adv-x="759" d="M722 310c0 -126 -90 -194 -198 -194c-75 0 -135 45 -171 102c-31 -52 -75 -82 -140 -82c-86 0 -167 65 -167 174s81 174 167 174c65 0 109 -30 140 -82c28 49 85 102 171 102c108 0 198 -68 198 -194zM523 196c67 0 111 49 111 114s-44 114 -111 114s-108 -54 -128 -114 c20 -60 61 -114 128 -114zM217 211c51 0 92 47 106 99c-14 52 -55 99 -106 99s-89 -40 -89 -99s38 -99 89 -99z" />
<glyph unicode="&#x222b;" horiz-adv-x="329" d="M196 -72c0 -89 -52 -138 -124 -138c-23 0 -44 5 -57 10v79c14 -6 28 -11 47 -11c25 0 46 17 46 55v672c0 102 64 145 140 145c28 0 50 -5 63 -10v-79c-12 4 -33 11 -57 11c-34 0 -58 -21 -58 -62v-672z" />
<glyph unicode="&#x2248;" horiz-adv-x="458" d="M351 323h77c-3 -85 -52 -132 -115 -132c-89 0 -110 59 -161 59c-29 0 -43 -25 -45 -54h-77c3 85 52 132 115 132c89 0 110 -59 161 -59c29 0 43 25 45 54zM351 493h77c-3 -85 -52 -132 -115 -132c-89 0 -110 59 -161 59c-29 0 -43 -25 -45 -54h-77c3 85 52 132 115 132 c89 0 110 -59 161 -59c29 0 43 25 45 54z" />
<glyph unicode="&#x2260;" horiz-adv-x="461" d="M32 435h230l74 126l69 -40l-50 -86h74v-80h-121l-64 -110h185v-80h-230l-74 -126l-69 40l50 86h-74v80h121l64 110h-185v80z" />
<glyph unicode="&#x3c0;" horiz-adv-x="578" d="M20 500h538v-74h-85v-426h-88v426h-192v-426h-88v426h-85v74z" />
<glyph unicode="&#x2264;" horiz-adv-x="501" d="M70 352v76l361 196v-92l-261 -142l261 -142v-92zM52 80h397v-80h-397v80z" />
<glyph unicode="&#x2265;" horiz-adv-x="501" d="M431 428v-76l-361 -196v92l261 142l-261 142v92zM52 80h397v-80h-397v80z" />
<glyph unicode="&#x25ca;" horiz-adv-x="624" d="M270 0l-242 350l242 350h84l242 -350l-242 -350h-84zM502 350l-172 244l-18 45l-18 -45l-172 -244l172 -244l18 -45l18 45z" />
<glyph unicode="&#xfb01;" horiz-adv-x="557" d="M196 0h-88v420h-86v80h86v95c0 102 64 145 140 145c28 0 50 -5 63 -10v-79c-12 4 -33 11 -57 11c-34 0 -58 -21 -58 -62v-100h291v-500h-88v420h-203v-420zM383 636c0 33 27 60 60 60s60 -27 60 -60s-27 -60 -60 -60s-60 27 -60 60z" />
<glyph unicode="&#xfb02;" horiz-adv-x="545" d="M252 700h228v-700h-86v622h-140c-41 0 -58 -21 -58 -62v-60h112v-80h-112v-420h-88v420h-86v80h86v55c0 102 60 145 144 145z" />
<glyph unicode="&#xf8ff;" horiz-adv-x="780" d="M686 617v-595c0 -11 -9 -22 -22 -22c-2 0 -3 0 -7 1l-267 77l-267 -77c-4 -1 -5 -1 -7 -1c-13 0 -22 11 -22 22v595c0 10 7 19 16 22l270 78c3 1 8 2 10 2s7 -1 10 -2l270 -78c9 -3 16 -12 16 -22zM368 366v303l-230 -67c8 -125 106 -225 230 -236zM412 669v-303 c124 11 222 111 230 236zM137 463v-412l231 67v204c-98 8 -183 62 -231 141zM643 51v412c-49 -79 -133 -133 -231 -141v-204z" />
<glyph unicode="&#x2026;" horiz-adv-x="728" d="M49 72c0 39 33 72 72 72s72 -33 72 -72s-33 -72 -72 -72s-72 33 -72 72zM293 72c0 39 33 72 72 72s72 -33 72 -72s-33 -72 -72 -72s-72 33 -72 72zM537 72c0 39 33 72 72 72s72 -33 72 -72s-33 -72 -72 -72s-72 33 -72 72z" />
<glyph unicode="&#x22;" horiz-adv-x="402" d="M70 700h92l-12 -250h-68zM240 700h92l-12 -250h-68z" />
<glyph unicode="!" horiz-adv-x="292" d="M186 212h-80l-18 488h116zM74 72c0 39 33 72 72 72s72 -33 72 -72s-33 -72 -72 -72s-72 33 -72 72z" />
<glyph unicode="&#x2070;" horiz-adv-x="379" d="M189 705c95 0 150 -82 150 -190s-55 -190 -150 -190s-149 82 -149 190s54 190 149 190zM189 386c54 0 83 52 83 129s-29 129 -83 129s-82 -52 -82 -129s28 -129 82 -129z" />
<glyph unicode="&#x2074;" horiz-adv-x="360" d="M40 403v62l176 235h69v-235h44v-62h-44v-73h-72v73h-173zM213 604l-103 -139h103v139z" />
<glyph unicode="&#x2075;" horiz-adv-x="339" d="M102 500l-57 28l23 172h222v-58h-169l-15 -73c21 15 41 23 75 23c77 0 126 -49 126 -129c0 -83 -58 -138 -137 -138c-78 0 -128 52 -133 123h68c4 -30 23 -61 65 -61s69 28 69 74c0 47 -30 72 -66 72c-31 0 -55 -17 -71 -33z" />
<glyph unicode="&#x2076;" horiz-adv-x="338" d="M166 325c-37 0 -78 20 -102 52c-23 31 -34 72 -34 129c0 118 56 199 145 199c69 0 109 -39 115 -97h-65c-9 26 -25 38 -52 38c-38 0 -72 -38 -74 -105c18 20 49 34 82 34c67 0 119 -47 119 -121c0 -73 -54 -129 -134 -129zM102 453c0 -38 25 -69 67 -69s66 35 66 69 s-24 69 -66 69s-67 -35 -67 -69z" />
<glyph unicode="&#x2077;" horiz-adv-x="288" d="M256 700v-55l-136 -315h-74l132 308h-161v62h239z" />
<glyph unicode="&#x2078;" horiz-adv-x="320" d="M160 325c-77 0 -125 50 -125 116c0 42 24 75 55 93c-24 17 -38 47 -38 77c0 55 45 94 108 94s108 -39 108 -94c0 -30 -14 -60 -38 -77c31 -18 55 -51 55 -93c0 -66 -48 -116 -125 -116zM99 445c0 -37 27 -61 61 -61s61 24 61 61s-27 61 -61 61s-61 -24 -61 -61zM110 605 c0 -28 21 -47 50 -47s50 19 50 47c0 29 -21 48 -50 48s-50 -19 -50 -48z" />
<glyph unicode="&#x2079;" horiz-adv-x="333" d="M164 705c43 0 79 -17 103 -49c23 -31 33 -75 33 -132c0 -124 -53 -199 -143 -199c-67 0 -111 39 -117 97h65c9 -26 25 -38 52 -38c43 0 72 38 74 105c-16 -20 -41 -34 -78 -34c-67 0 -123 47 -123 121c0 73 54 129 134 129zM228 577c0 38 -25 69 -67 69s-66 -35 -66 -69 s24 -69 66 -69s67 35 67 69z" />
<glyph unicode="&#x2153;" horiz-adv-x="791" d="M592 692l57 -47l-527 -637l-57 47zM59 653h8c38 0 62 13 67 47h72v-370h-72v274c-17 -14 -40 -19 -75 -19v68zM712 370v-61l-80 -61c55 -10 100 -46 100 -120c0 -75 -60 -133 -135 -133c-88 0 -137 61 -140 134h69c3 -44 26 -72 70 -72s68 32 68 71c0 45 -32 70 -82 70 h-27v56l74 57h-154v59h237z" />
<glyph unicode="&#x2154;" horiz-adv-x="863" d="M664 692l57 -47l-527 -637l-57 47zM784 370v-61l-80 -61c55 -10 100 -46 100 -120c0 -75 -60 -133 -135 -133c-88 0 -137 61 -140 134h69c3 -44 26 -72 70 -72s68 32 68 71c0 45 -32 70 -82 70h-27v56l74 57h-154v59h237zM37 330v60l146 137c21 20 35 37 35 65 c0 30 -25 49 -55 49c-34 0 -54 -25 -57 -56h-67c1 69 49 120 124 120c76 0 127 -42 127 -108c0 -48 -26 -82 -68 -121l-89 -83h161v-63h-257z" />
<glyph unicode="&#x215b;" horiz-adv-x="736" d="M592 692l57 -47l-527 -637l-57 47zM59 653h8c38 0 62 13 67 47h72v-370h-72v274c-17 -14 -40 -19 -75 -19v68zM571 -5c-77 0 -125 50 -125 116c0 42 24 75 55 93c-24 17 -38 47 -38 77c0 55 45 94 108 94s108 -39 108 -94c0 -30 -14 -60 -38 -77c31 -18 55 -51 55 -93 c0 -66 -48 -116 -125 -116zM510 115c0 -37 27 -61 61 -61s61 24 61 61s-27 61 -61 61s-61 -24 -61 -61zM521 275c0 -28 21 -47 50 -47s50 19 50 47c0 29 -21 48 -50 48s-50 -19 -50 -48z" />
<glyph unicode="&#x215c;" horiz-adv-x="839" d="M674 -5c-77 0 -125 50 -125 116c0 42 24 75 55 93c-24 17 -38 47 -38 77c0 55 45 94 108 94s108 -39 108 -94c0 -30 -14 -60 -38 -77c31 -18 55 -51 55 -93c0 -66 -48 -116 -125 -116zM613 115c0 -37 27 -61 61 -61s61 24 61 61s-27 61 -61 61s-61 -24 -61 -61zM624 275 c0 -28 21 -47 50 -47s50 19 50 47c0 29 -21 48 -50 48s-50 -19 -50 -48zM695 692l57 -47l-527 -637l-57 47zM307 700v-61l-80 -61c55 -10 100 -46 100 -120c0 -75 -60 -133 -135 -133c-88 0 -137 61 -140 134h69c3 -44 26 -72 70 -72s68 32 68 71c0 45 -32 70 -82 70h-27v56 l74 57h-154v59h237z" />
<glyph unicode="&#x215d;" horiz-adv-x="817" d="M673 692l57 -47l-527 -637l-57 47zM652 -5c-77 0 -125 50 -125 116c0 42 24 75 55 93c-24 17 -38 47 -38 77c0 55 45 94 108 94s108 -39 108 -94c0 -30 -14 -60 -38 -77c31 -18 55 -51 55 -93c0 -66 -48 -116 -125 -116zM591 115c0 -37 27 -61 61 -61s61 24 61 61 s-27 61 -61 61s-61 -24 -61 -61zM602 275c0 -28 21 -47 50 -47s50 19 50 47c0 29 -21 48 -50 48s-50 -19 -50 -48zM111 500l-57 28l23 172h222v-58h-169l-15 -73c21 15 41 23 75 23c77 0 126 -49 126 -129c0 -83 -58 -138 -137 -138c-78 0 -128 52 -133 123h68 c4 -30 23 -61 65 -61s69 28 69 74c0 47 -30 72 -66 72c-31 0 -55 -17 -71 -33z" />
<glyph unicode="&#x215e;" horiz-adv-x="736" d="M592 692l57 -47l-527 -637l-57 47zM571 -5c-77 0 -125 50 -125 116c0 42 24 75 55 93c-24 17 -38 47 -38 77c0 55 45 94 108 94s108 -39 108 -94c0 -30 -14 -60 -38 -77c31 -18 55 -51 55 -93c0 -66 -48 -116 -125 -116zM510 115c0 -37 27 -61 61 -61s61 24 61 61 s-27 61 -61 61s-61 -24 -61 -61zM521 275c0 -28 21 -47 50 -47s50 19 50 47c0 29 -21 48 -50 48s-50 -19 -50 -48zM287 700v-55l-136 -315h-74l132 308h-161v62h239z" />
<glyph unicode="&#x2080;" horiz-adv-x="379" d="M189 175c95 0 150 -82 150 -190s-55 -190 -150 -190s-149 82 -149 190s54 190 149 190zM189 -144c54 0 83 52 83 129s-29 129 -83 129s-82 -52 -82 -129s28 -129 82 -129z" />
<glyph unicode="&#x2081;" horiz-adv-x="221" d="M37 123h8c38 0 62 13 67 47h72v-370h-72v274c-17 -14 -40 -19 -75 -19v68z" />
<glyph unicode="&#x2082;" horiz-adv-x="331" d="M37 -200v60l146 137c21 20 35 37 35 65c0 30 -25 49 -55 49c-34 0 -54 -25 -57 -56h-67c1 69 49 120 124 120c76 0 127 -42 127 -108c0 -48 -26 -82 -68 -121l-89 -83h161v-63h-257z" />
<glyph unicode="&#x2083;" horiz-adv-x="363" d="M294 170v-61l-80 -61c55 -10 100 -46 100 -120c0 -75 -60 -133 -135 -133c-88 0 -137 61 -140 134h69c3 -44 26 -72 70 -72s68 32 68 71c0 45 -32 70 -82 70h-27v56l74 57h-154v59h237z" />
<glyph unicode="&#x2084;" horiz-adv-x="360" d="M40 -127v62l176 235h69v-235h44v-62h-44v-73h-72v73h-173zM213 74l-103 -139h103v139z" />
<glyph unicode="&#x2085;" horiz-adv-x="339" d="M102 -30l-57 28l23 172h222v-58h-169l-15 -73c21 15 41 23 75 23c77 0 126 -49 126 -129c0 -83 -58 -138 -137 -138c-78 0 -128 52 -133 123h68c4 -30 23 -61 65 -61s69 28 69 74c0 47 -30 72 -66 72c-31 0 -55 -17 -71 -33z" />
<glyph unicode="&#x2086;" horiz-adv-x="338" d="M166 -205c-37 0 -78 20 -102 52c-23 31 -34 72 -34 129c0 118 56 199 145 199c69 0 109 -39 115 -97h-65c-9 26 -25 38 -52 38c-38 0 -72 -38 -74 -105c18 20 49 34 82 34c67 0 119 -47 119 -121c0 -73 -54 -129 -134 -129zM102 -77c0 -38 25 -69 67 -69s66 35 66 69 s-24 69 -66 69s-67 -35 -67 -69z" />
<glyph unicode="&#x2087;" horiz-adv-x="288" d="M256 170v-55l-136 -315h-74l132 308h-161v62h239z" />
<glyph unicode="&#x2088;" horiz-adv-x="320" d="M160 -205c-77 0 -125 50 -125 116c0 42 24 75 55 93c-24 17 -38 47 -38 77c0 55 45 94 108 94s108 -39 108 -94c0 -30 -14 -60 -38 -77c31 -18 55 -51 55 -93c0 -66 -48 -116 -125 -116zM99 -85c0 -37 27 -61 61 -61s61 24 61 61s-27 61 -61 61s-61 -24 -61 -61zM110 75 c0 -28 21 -47 50 -47s50 19 50 47c0 29 -21 48 -50 48s-50 -19 -50 -48z" />
<glyph unicode="&#x2089;" horiz-adv-x="333" d="M164 175c43 0 79 -17 103 -49c23 -31 33 -75 33 -132c0 -124 -53 -199 -143 -199c-67 0 -111 39 -117 97h65c9 -26 25 -38 52 -38c43 0 72 38 74 105c-16 -20 -41 -34 -78 -34c-67 0 -123 47 -123 121c0 73 54 129 134 129zM228 47c0 38 -25 69 -67 69s-66 -35 -66 -69 s24 -69 66 -69s67 35 67 69z" />
<glyph horiz-adv-x="602" d="M301 710c180 0 283 -155 283 -360s-103 -360 -283 -360s-283 155 -283 360s103 360 283 360zM301 78c127 0 185 112 185 272s-58 272 -185 272s-185 -112 -185 -272s58 -272 185 -272z" />
<glyph horiz-adv-x="602" d="M157 610h16c71 0 110 26 118 90h96v-700h-96v566c-32 -28 -67 -36 -134 -36v80z" />
<glyph horiz-adv-x="602" d="M57 0v82l289 260c52 47 88 90 88 160c0 76 -56 120 -135 120c-80 0 -139 -51 -143 -139h-92c7 132 105 227 231 227c135 0 231 -78 231 -203c0 -92 -45 -156 -117 -219l-227 -200h358v-88h-483z" />
<glyph horiz-adv-x="602" d="M530 700v-91l-159 -137c97 -23 192 -91 192 -230c0 -143 -109 -252 -251 -252c-161 0 -254 116 -261 249h90c6 -93 66 -161 169 -161c95 0 155 61 155 164c0 106 -83 156 -173 156h-22v87l140 127h-328v88h448z" />
<glyph horiz-adv-x="602" d="M51 154v88l332 458h90v-458h84v-88h-84v-154h-96v154h-326zM377 549l-224 -307h224v307z" />
<glyph horiz-adv-x="602" d="M140 357l-69 33l44 310h394v-88h-321l-29 -167c40 27 102 50 166 50c145 0 238 -92 238 -244c0 -137 -95 -261 -259 -261c-140 0 -243 94 -252 229h96c8 -72 58 -141 156 -141s161 63 161 170c0 110 -69 166 -153 166c-91 0 -144 -37 -172 -57z" />
<glyph horiz-adv-x="602" d="M305 -10c-71 0 -148 37 -194 99c-43 59 -60 136 -60 235c0 232 99 386 271 386c119 0 200 -72 213 -182h-93c-20 71 -59 94 -123 94c-94 0 -165 -87 -165 -235c49 58 108 76 179 76c128 0 226 -89 226 -228c0 -138 -102 -245 -254 -245zM159 233c0 -85 56 -155 151 -155 s151 77 151 155s-56 155 -151 155s-151 -77 -151 -155z" />
<glyph horiz-adv-x="602" d="M528 700v-76l-268 -624h-93l262 612h-353v88h452z" />
<glyph horiz-adv-x="602" d="M301 -10c-144 0 -232 95 -232 220c0 80 45 144 105 177c-46 34 -73 88 -73 145c0 104 89 178 200 178s200 -74 200 -178c0 -57 -27 -111 -73 -145c60 -33 105 -97 105 -177c0 -125 -88 -220 -232 -220zM167 212c0 -81 61 -134 134 -134s134 53 134 134s-61 134 -134 134 s-134 -53 -134 -134zM193 527c0 -63 45 -105 108 -105s108 42 108 105s-45 105 -108 105s-108 -42 -108 -105z" />
<glyph horiz-adv-x="602" d="M308 710c71 0 148 -37 194 -99c43 -59 60 -136 60 -235c0 -232 -99 -386 -271 -386c-119 0 -200 72 -213 182h93c20 -71 59 -94 123 -94c94 0 165 87 165 235c-49 -58 -108 -76 -179 -76c-128 0 -226 89 -226 228c0 138 102 245 254 245zM454 467c0 85 -56 155 -151 155 s-151 -77 -151 -155s56 -155 151 -155s151 77 151 155z" />
<glyph unicode="&#x100;" horiz-adv-x="598" d="M497 0l-47 136h-303l-46 -136h-102l252 700h96l252 -700h-102zM286 539l-109 -315h243l-108 315l-13 75zM180 870h238v-74h-238v74z" />
<glyph unicode="&#x101;" horiz-adv-x="555" d="M535 70v-66c-24 -8 -40 -10 -56 -10c-44 0 -85 18 -99 78c-33 -40 -95 -82 -169 -82c-94 0 -159 56 -159 145c0 98 79 148 169 157l156 16v34c0 60 -47 88 -111 88c-53 0 -95 -24 -109 -81h-83c16 112 108 161 198 161c117 0 193 -63 193 -158v-234c0 -32 14 -52 44 -52 c8 0 16 1 26 4zM377 148v90l-150 -17c-59 -7 -87 -42 -87 -82c0 -47 35 -69 81 -69c61 0 112 34 156 78zM158 670h238v-74h-238v74z" />
<glyph unicode="&#x102;" horiz-adv-x="598" d="M497 0l-47 136h-303l-46 -136h-102l252 700h96l252 -700h-102zM286 539l-109 -315h243l-108 315l-13 75zM335 880h70c0 -60 -39 -106 -106 -106s-106 46 -106 106h70c0 -23 13 -40 36 -40s36 17 36 40z" />
<glyph unicode="&#x103;" horiz-adv-x="555" d="M535 70v-66c-24 -8 -40 -10 -56 -10c-44 0 -85 18 -99 78c-33 -40 -95 -82 -169 -82c-94 0 -159 56 -159 145c0 98 79 148 169 157l156 16v34c0 60 -47 88 -111 88c-53 0 -95 -24 -109 -81h-83c16 112 108 161 198 161c117 0 193 -63 193 -158v-234c0 -32 14 -52 44 -52 c8 0 16 1 26 4zM377 148v90l-150 -17c-59 -7 -87 -42 -87 -82c0 -47 35 -69 81 -69c61 0 112 34 156 78zM313 680h70c0 -60 -39 -106 -106 -106s-106 46 -106 106h70c0 -23 13 -40 36 -40s36 17 36 40z" />
<glyph unicode="&#x104;" horiz-adv-x="598" d="M497 0l-47 136h-303l-46 -136h-102l252 700h96l252 -700c-67 -19 -89 -59 -89 -85c0 -25 16 -39 35 -39c17 0 32 8 46 30l47 -35c-22 -38 -52 -61 -101 -61c-59 0 -97 39 -97 89c0 46 27 82 57 101zM286 539l-109 -315h243l-108 315l-13 75z" />
<glyph unicode="&#x105;" horiz-adv-x="555" d="M535 69v-65c-41 -19 -66 -56 -66 -93c0 -21 16 -35 35 -35c17 0 32 8 46 30l47 -35c-22 -38 -52 -61 -101 -61c-59 0 -97 39 -97 89c0 44 24 79 52 98c-33 7 -60 28 -71 75c-33 -40 -95 -82 -169 -82c-94 0 -159 56 -159 145c0 98 79 148 169 157l156 16v34 c0 60 -47 88 -111 88c-53 0 -95 -24 -109 -81h-83c16 112 108 161 198 161c117 0 193 -63 193 -158v-235c0 -32 14 -52 44 -52c8 0 16 1 26 4zM377 148v90l-150 -17c-59 -7 -87 -42 -87 -82c0 -47 35 -69 81 -69c61 0 112 34 156 78z" />
<glyph unicode="&#x1fc;" horiz-adv-x="885" d="M838 612h-323v-218h296v-88h-296v-218h334v-88h-430v136h-244l-72 -136h-104l372 700h467v-88zM398 553l-176 -329h197v390zM541 767l80 133h115l-106 -133h-89z" />
<glyph unicode="&#x1fd;" horiz-adv-x="904" d="M854 222h-389v-14c8 -88 69 -138 155 -138c78 0 129 41 147 101h82c-27 -111 -107 -181 -230 -181c-92 0 -161 37 -202 101c-49 -65 -126 -101 -195 -101c-105 0 -170 56 -170 145c0 98 77 154 189 158l136 5v36c0 60 -46 96 -110 96c-53 0 -96 -24 -110 -81h-83 c16 112 109 161 199 161c79 0 139 -29 170 -77c45 49 108 77 176 77c134 0 235 -93 235 -254v-34zM619 430c-78 0 -140 -48 -154 -132h306c-7 88 -74 132 -152 132zM377 148v72l-131 -6c-73 -3 -106 -35 -106 -75c0 -47 32 -69 84 -69c54 0 104 22 153 78zM397 567l80 133 h115l-106 -133h-89z" />
<glyph unicode="&#x1fa;" horiz-adv-x="598" d="M497 0l-47 136h-303l-46 -136h-102l252 700h96l252 -700h-102zM286 539l-109 -315h243l-108 315l-13 75zM217 828c0 45 37 82 82 82s82 -37 82 -82s-37 -82 -82 -82s-82 37 -82 82zM259 828c0 -23 17 -40 40 -40s40 17 40 40s-17 40 -40 40s-40 -17 -40 -40zM241 927 l80 133h115l-106 -133h-89z" />
<glyph unicode="&#x1fb;" horiz-adv-x="555" d="M535 70v-66c-24 -8 -40 -10 -56 -10c-44 0 -85 18 -99 78c-33 -40 -95 -82 -169 -82c-94 0 -159 56 -159 145c0 98 79 148 169 157l156 16v34c0 60 -47 88 -111 88c-53 0 -95 -24 -109 -81h-83c16 112 108 161 198 161c117 0 193 -63 193 -158v-234c0 -32 14 -52 44 -52 c8 0 16 1 26 4zM377 148v90l-150 -17c-59 -7 -87 -42 -87 -82c0 -47 35 -69 81 -69c61 0 112 34 156 78zM219 727l80 133h115l-106 -133h-89zM195 628c0 45 37 82 82 82s82 -37 82 -82s-37 -82 -82 -82s-82 37 -82 82zM237 628c0 -23 17 -40 40 -40s40 17 40 40 s-17 40 -40 40s-40 -17 -40 -40z" />
<glyph unicode="&#x106;" horiz-adv-x="736" d="M145 350c0 -157 97 -272 249 -272c111 0 189 58 217 153h96c-29 -143 -145 -241 -312 -241c-190 0 -348 145 -348 360s158 360 348 360c168 0 283 -98 312 -241h-96c-28 95 -106 153 -217 153c-152 0 -249 -115 -249 -272zM335 767l80 133h115l-106 -133h-89z" />
<glyph unicode="&#x107;" horiz-adv-x="574" d="M133 250c0 -113 69 -180 163 -180c84 0 136 42 152 111h83c-18 -121 -108 -191 -236 -191c-143 0 -250 104 -250 260s107 260 250 260c128 0 218 -70 236 -191h-83c-16 69 -68 111 -152 111c-94 0 -163 -67 -163 -180zM237 567l80 133h115l-106 -133h-89z" />
<glyph unicode="&#x108;" horiz-adv-x="736" d="M145 350c0 -157 97 -272 249 -272c111 0 189 58 217 153h96c-29 -143 -145 -241 -312 -241c-190 0 -348 145 -348 360s158 360 348 360c168 0 283 -98 312 -241h-96c-28 95 -106 153 -217 153c-152 0 -249 -115 -249 -272zM436 900l108 -133h-83l-63 63l-62 -63h-83 l108 133h75z" />
<glyph unicode="&#x109;" horiz-adv-x="574" d="M133 250c0 -113 69 -180 163 -180c84 0 136 42 152 111h83c-18 -121 -108 -191 -236 -191c-143 0 -250 104 -250 260s107 260 250 260c128 0 218 -70 236 -191h-83c-16 69 -68 111 -152 111c-94 0 -163 -67 -163 -180zM341 700l108 -133h-83l-63 63l-62 -63h-83l108 133 h75z" />
<glyph unicode="&#x10a;" horiz-adv-x="736" d="M145 350c0 -157 97 -272 249 -272c111 0 189 58 217 153h96c-29 -143 -145 -241 -312 -241c-190 0 -348 145 -348 360s158 360 348 360c168 0 283 -98 312 -241h-96c-28 95 -106 153 -217 153c-152 0 -249 -115 -249 -272zM337 836c0 35 29 64 64 64s64 -29 64 -64 s-29 -64 -64 -64s-64 29 -64 64z" />
<glyph unicode="&#x10b;" horiz-adv-x="574" d="M133 250c0 -113 69 -180 163 -180c84 0 136 42 152 111h83c-18 -121 -108 -191 -236 -191c-143 0 -250 104 -250 260s107 260 250 260c128 0 218 -70 236 -191h-83c-16 69 -68 111 -152 111c-94 0 -163 -67 -163 -180zM233 636c0 35 29 64 64 64s64 -29 64 -64 s-29 -64 -64 -64s-64 29 -64 64z" />
<glyph unicode="&#x10c;" horiz-adv-x="736" d="M145 350c0 -157 97 -272 249 -272c111 0 189 58 217 153h96c-29 -143 -145 -241 -312 -241c-190 0 -348 145 -348 360s158 360 348 360c168 0 283 -98 312 -241h-96c-28 95 -106 153 -217 153c-152 0 -249 -115 -249 -272zM542 900l-108 -133h-75l-108 133h83l62 -63 l63 63h83z" />
<glyph unicode="&#x10d;" horiz-adv-x="574" d="M133 250c0 -113 69 -180 163 -180c84 0 136 42 152 111h83c-18 -121 -108 -191 -236 -191c-143 0 -250 104 -250 260s107 260 250 260c128 0 218 -70 236 -191h-83c-16 69 -68 111 -152 111c-94 0 -163 -67 -163 -180zM444 700l-108 -133h-75l-108 133h83l62 -63l63 63 h83z" />
<glyph unicode="&#x10e;" horiz-adv-x="686" d="M639 350c0 -211 -137 -350 -366 -350h-202v700h202c229 0 366 -139 366 -350zM543 350c0 184 -111 262 -274 262h-102v-524h102c163 0 274 78 274 262zM372 900l-108 -133h-75l-108 133h83l62 -63l63 63h83z" />
<glyph unicode="&#x10f;" horiz-adv-x="713" d="M578 527l-10 24c32 9 56 32 63 61c-32 4 -58 24 -58 59c0 36 26 59 60 59s59 -27 59 -66c0 -65 -37 -113 -114 -137zM433 730h88v-730h-88v55c-29 -31 -82 -65 -159 -65c-123 0 -229 100 -229 260s96 260 227 260c64 0 123 -23 161 -63v283zM288 430 c-84 0 -155 -54 -155 -180s71 -180 155 -180c79 0 145 60 145 131v96c0 71 -66 133 -145 133z" />
<glyph unicode="&#x110;" horiz-adv-x="709" d="M9 390h85v310h202c229 0 366 -139 366 -350s-137 -350 -366 -350h-202v310h-85v80zM566 350c0 184 -111 262 -274 262h-102v-222h156v-80h-156v-222h102c163 0 274 78 274 262z" />
<glyph unicode="&#x111;" horiz-adv-x="586" d="M433 730h88v-84h84v-74h-84v-572h-88v55c-29 -31 -82 -65 -159 -65c-123 0 -229 100 -229 260s96 260 227 260c64 0 123 -23 161 -63v125h-165v74h165v84zM288 430c-84 0 -155 -54 -155 -180s71 -180 155 -180c79 0 145 60 145 131v96c0 71 -66 133 -145 133z" />
<glyph unicode="&#x112;" horiz-adv-x="537" d="M490 612h-323v-218h296v-88h-296v-218h334v-88h-430v700h419v-88zM168 870h238v-74h-238v74z" />
<glyph unicode="&#x113;" horiz-adv-x="574" d="M524 222h-390c3 -96 66 -152 156 -152c78 0 129 41 147 101h82c-27 -111 -107 -181 -230 -181c-152 0 -244 104 -244 260s113 260 244 260c134 0 235 -93 235 -254v-34zM289 430c-78 0 -140 -48 -154 -132h306c-7 88 -74 132 -152 132zM169 670h238v-74h-238v74z" />
<glyph unicode="&#x114;" horiz-adv-x="537" d="M490 612h-323v-218h296v-88h-296v-218h334v-88h-430v700h419v-88zM315 880h70c0 -60 -39 -106 -106 -106s-106 46 -106 106h70c0 -23 13 -40 36 -40s36 17 36 40z" />
<glyph unicode="&#x115;" horiz-adv-x="574" d="M524 222h-390c3 -96 66 -152 156 -152c78 0 129 41 147 101h82c-27 -111 -107 -181 -230 -181c-152 0 -244 104 -244 260s113 260 244 260c134 0 235 -93 235 -254v-34zM289 430c-78 0 -140 -48 -154 -132h306c-7 88 -74 132 -152 132zM324 680h70 c0 -60 -39 -106 -106 -106s-106 46 -106 106h70c0 -23 13 -40 36 -40s36 17 36 40z" />
<glyph unicode="&#x116;" horiz-adv-x="537" d="M490 612h-323v-218h296v-88h-296v-218h334v-88h-430v700h419v-88zM217 836c0 35 29 64 64 64s64 -29 64 -64s-29 -64 -64 -64s-64 29 -64 64z" />
<glyph unicode="&#x117;" horiz-adv-x="574" d="M524 222h-390c3 -96 66 -152 156 -152c78 0 129 41 147 101h82c-27 -111 -107 -181 -230 -181c-152 0 -244 104 -244 260s113 260 244 260c134 0 235 -93 235 -254v-34zM289 430c-78 0 -140 -48 -154 -132h306c-7 88 -74 132 -152 132zM227 636c0 35 29 64 64 64 s64 -29 64 -64s-29 -64 -64 -64s-64 29 -64 64z" />
<glyph unicode="&#x118;" horiz-adv-x="537" d="M436 0h-365v700h419v-88h-323v-218h296v-88h-296v-218h334v-88c-32 -32 -52 -59 -52 -89c0 -21 16 -35 35 -35c17 0 32 8 46 30l47 -35c-22 -38 -52 -61 -101 -61c-59 0 -97 39 -97 89c0 46 27 82 57 101z" />
<glyph unicode="&#x119;" horiz-adv-x="574" d="M524 222h-390c3 -96 66 -152 156 -152c78 0 129 41 147 101h82c-21 -87 -76 -136 -120 -158c-76 -37 -87 -72 -87 -95c0 -28 16 -42 35 -42c17 0 32 8 46 30l47 -35c-22 -38 -52 -61 -101 -61c-59 0 -97 39 -97 89c0 39 19 71 43 91c-150 2 -240 105 -240 260 c0 156 113 260 244 260c134 0 235 -93 235 -254v-34zM289 430c-78 0 -140 -48 -154 -132h306c-7 88 -74 132 -152 132z" />
<glyph unicode="&#x11a;" horiz-adv-x="537" d="M490 612h-323v-218h296v-88h-296v-218h334v-88h-430v700h419v-88zM425 900l-108 -133h-75l-108 133h83l62 -63l63 63h83z" />
<glyph unicode="&#x11b;" horiz-adv-x="574" d="M524 222h-390c3 -96 66 -152 156 -152c78 0 129 41 147 101h82c-27 -111 -107 -181 -230 -181c-152 0 -244 104 -244 260s113 260 244 260c134 0 235 -93 235 -254v-34zM289 430c-78 0 -140 -48 -154 -132h306c-7 88 -74 132 -152 132zM433 700l-108 -133h-75l-108 133 h83l62 -63l63 63h83z" />
<glyph unicode="&#x18e;" horiz-adv-x="537" d="M47 88h323v218h-296v88h296v218h-334v88h430v-700h-419v88z" />
<glyph unicode="&#x18f;" horiz-adv-x="574" d="M50 278h390c-3 96 -66 152 -156 152c-78 0 -129 -41 -147 -101h-82c27 111 107 181 230 181c152 0 244 -104 244 -260s-113 -260 -244 -260c-134 0 -235 93 -235 254v34zM285 70c78 0 140 48 154 132h-306c7 -88 74 -132 152 -132z" />
<glyph unicode="&#x11c;" horiz-adv-x="763" d="M324 288v88h389v-57c0 -190 -123 -329 -318 -329c-190 0 -348 145 -348 360s158 360 348 360c163 0 280 -94 306 -230h-96c-29 92 -100 142 -211 142c-152 0 -249 -115 -249 -272s97 -272 249 -272c136 0 212 80 222 210h-292zM433 900l108 -133h-83l-63 63l-62 -63h-83 l108 133h75z" />
<glyph unicode="&#x11d;" horiz-adv-x="576" d="M521 500v-497c0 -128 -83 -213 -230 -213c-129 0 -199 64 -211 155h96c10 -43 41 -75 112 -75c112 0 145 66 145 138v58c-44 -45 -91 -66 -161 -66c-131 0 -227 95 -227 255s106 255 229 255c77 0 130 -34 159 -65v55h88zM288 80c88 0 145 62 145 142v64 c0 84 -66 144 -145 144c-84 0 -155 -49 -155 -175s71 -175 155 -175zM327 700l108 -133h-83l-63 63l-62 -63h-83l108 133h75z" />
<glyph unicode="&#x11e;" horiz-adv-x="763" d="M324 288v88h389v-57c0 -190 -123 -329 -318 -329c-190 0 -348 145 -348 360s158 360 348 360c163 0 280 -94 306 -230h-96c-29 92 -100 142 -211 142c-152 0 -249 -115 -249 -272s97 -272 249 -272c136 0 212 80 222 210h-292zM431 880h70c0 -60 -39 -106 -106 -106 s-106 46 -106 106h70c0 -23 13 -40 36 -40s36 17 36 40z" />
<glyph unicode="&#x11f;" horiz-adv-x="576" d="M521 500v-497c0 -128 -83 -213 -230 -213c-129 0 -199 64 -211 155h96c10 -43 41 -75 112 -75c112 0 145 66 145 138v58c-44 -45 -91 -66 -161 -66c-131 0 -227 95 -227 255s106 255 229 255c77 0 130 -34 159 -65v55h88zM288 80c88 0 145 62 145 142v64 c0 84 -66 144 -145 144c-84 0 -155 -49 -155 -175s71 -175 155 -175zM327 680h70c0 -60 -39 -106 -106 -106s-106 46 -106 106h70c0 -23 13 -40 36 -40s36 17 36 40z" />
<glyph unicode="&#x120;" horiz-adv-x="763" d="M324 288v88h389v-57c0 -190 -123 -329 -318 -329c-190 0 -348 145 -348 360s158 360 348 360c163 0 280 -94 306 -230h-96c-29 92 -100 142 -211 142c-152 0 -249 -115 -249 -272s97 -272 249 -272c136 0 212 80 222 210h-292zM333 836c0 35 29 64 64 64s64 -29 64 -64 s-29 -64 -64 -64s-64 29 -64 64z" />
<glyph unicode="&#x121;" horiz-adv-x="576" d="M521 500v-497c0 -128 -83 -213 -230 -213c-129 0 -199 64 -211 155h96c10 -43 41 -75 112 -75c112 0 145 66 145 138v58c-44 -45 -91 -66 -161 -66c-131 0 -227 95 -227 255s106 255 229 255c77 0 130 -34 159 -65v55h88zM288 80c88 0 145 62 145 142v64 c0 84 -66 144 -145 144c-84 0 -155 -49 -155 -175s71 -175 155 -175zM225 636c0 35 29 64 64 64s64 -29 64 -64s-29 -64 -64 -64s-64 29 -64 64z" />
<glyph unicode="&#x122;" horiz-adv-x="763" d="M353 -301l-17 21c32 27 57 57 62 97c-41 0 -62 34 -62 64c0 34 27 63 64 63c38 0 63 -29 63 -63c0 -79 -47 -142 -110 -182zM324 288v88h389v-57c0 -190 -123 -329 -318 -329c-190 0 -348 145 -348 360s158 360 348 360c163 0 280 -94 306 -230h-96 c-29 92 -100 142 -211 142c-152 0 -249 -115 -249 -272s97 -272 249 -272c136 0 212 80 222 210h-292z" />
<glyph unicode="&#x123;" horiz-adv-x="576" d="M351 818l11 -24c-44 -23 -67 -57 -72 -97c43 -3 62 -34 62 -64c0 -34 -27 -63 -64 -63c-35 0 -66 26 -66 73c0 69 37 137 129 175zM521 500v-497c0 -128 -83 -213 -230 -213c-129 0 -199 64 -211 155h96c10 -43 41 -75 112 -75c112 0 145 66 145 138v58 c-44 -45 -91 -66 -161 -66c-131 0 -227 95 -227 255s106 255 229 255c77 0 130 -34 159 -65v55h88zM288 80c88 0 145 62 145 142v64c0 84 -66 144 -145 144c-84 0 -155 -49 -155 -175s71 -175 155 -175z" />
<glyph unicode="&#x124;" horiz-adv-x="657" d="M71 700h96v-306h323v306h96v-700h-96v306h-323v-306h-96v700zM366 900l108 -133h-83l-63 63l-62 -63h-83l108 133h75z" />
<glyph unicode="&#x125;" horiz-adv-x="570" d="M65 730h88v-295c35 37 104 75 181 75c107 0 171 -64 171 -165v-345h-88v329c0 66 -43 103 -108 103c-59 0 -119 -38 -156 -90v-342h-88v730zM248 900l108 -133h-83l-63 63l-62 -63h-83l108 133h75z" />
<glyph unicode="&#x126;" horiz-adv-x="657" d="M71 700h96v-120h323v120h96v-120h62v-80h-62v-500h-96v306h-323v-306h-96v500h-62v80h62v120zM167 394h323v106h-323v-106z" />
<glyph unicode="&#x127;" horiz-adv-x="570" d="M65 730h88v-84h165v-74h-165v-137c35 37 104 75 181 75c107 0 171 -64 171 -165v-345h-88v329c0 66 -43 103 -108 103c-59 0 -119 -38 -156 -90v-342h-88v572h-84v74h84v84z" />
<glyph unicode="&#x128;" horiz-adv-x="238" d="M71 700h96v-700h-96v700zM229 895h73c-8 -92 -66 -126 -113 -126c-87 0 -84 59 -135 59c-29 0 -41 -25 -45 -54h-73c8 92 66 126 113 126c87 0 84 -59 135 -59c29 0 41 25 45 54z" />
<glyph unicode="&#x129;" horiz-adv-x="228" d="M70 500h88v-500h-88v500zM224 695h73c-8 -92 -66 -126 -113 -126c-87 0 -84 59 -135 59c-29 0 -41 -25 -45 -54h-73c8 92 66 126 113 126c87 0 84 -59 135 -59c29 0 41 25 45 54z" />
<glyph unicode="&#x12a;" horiz-adv-x="238" d="M71 700h96v-700h-96v700zM0 870h238v-74h-238v74z" />
<glyph unicode="&#x12b;" horiz-adv-x="228" d="M70 500h88v-500h-88v500zM-5 670h238v-74h-238v74z" />
<glyph unicode="&#x12c;" horiz-adv-x="238" d="M71 700h96v-700h-96v700zM155 880h70c0 -60 -39 -106 -106 -106s-106 46 -106 106h70c0 -23 13 -40 36 -40s36 17 36 40z" />
<glyph unicode="&#x12d;" horiz-adv-x="228" d="M70 500h88v-500h-88v500zM150 680h70c0 -60 -39 -106 -106 -106s-106 46 -106 106h70c0 -23 13 -40 36 -40s36 17 36 40z" />
<glyph unicode="&#x12e;" horiz-adv-x="238" d="M71 0v700h96v-700c-60 -26 -83 -59 -83 -89c0 -21 16 -35 35 -35c17 0 32 8 46 30l47 -35c-22 -38 -52 -61 -101 -61c-59 0 -97 39 -97 89c0 46 27 82 57 101z" />
<glyph unicode="&#x12f;" horiz-adv-x="228" d="M70 0v500h88v-500c-57 -23 -75 -59 -75 -83c0 -27 16 -41 35 -41c17 0 32 8 46 30l47 -35c-22 -38 -52 -61 -101 -61c-59 0 -97 39 -97 89c0 46 27 82 57 101zM54 636c0 33 27 60 60 60s60 -27 60 -60s-27 -60 -60 -60s-60 27 -60 60z" />
<glyph unicode="&#x130;" horiz-adv-x="238" d="M71 700h96v-700h-96v700zM55 836c0 35 29 64 64 64s64 -29 64 -64s-29 -64 -64 -64s-64 29 -64 64z" />
<glyph unicode="&#x132;" horiz-adv-x="768" d="M71 700h96v-700h-96v700zM285 211h93c1 -85 41 -133 112 -133c74 0 111 46 111 125v497h96v-484c0 -138 -70 -226 -207 -226c-129 0 -205 92 -205 221z" />
<glyph unicode="&#x133;" horiz-adv-x="452" d="M71 500h88v-500h-88v500zM55 636c0 33 27 60 60 60s60 -27 60 -60s-27 -60 -60 -60s-60 27 -60 60zM294 500h88v-582c0 -89 -46 -128 -127 -128c-25 0 -40 4 -61 10v79c17 -6 31 -11 54 -11c32 0 46 17 46 50v582zM278 636c0 33 27 60 60 60s60 -27 60 -60 s-27 -60 -60 -60s-60 27 -60 60z" />
<glyph unicode="&#x134;" horiz-adv-x="530" d="M47 211h93c1 -85 41 -133 112 -133c74 0 111 46 111 125v497h96v-484c0 -138 -70 -226 -207 -226c-129 0 -205 92 -205 221zM352 900l108 -133h-83l-63 63l-62 -63h-83l108 133h75z" />
<glyph unicode="&#x135;" horiz-adv-x="228" d="M70 500h88v-582c0 -89 -46 -128 -127 -128c-25 0 -40 4 -61 10v79c17 -6 31 -11 54 -11c32 0 46 17 46 50v582zM152 700l108 -133h-83l-63 63l-62 -63h-83l108 133h75z" />
<glyph unicode="&#x136;" horiz-adv-x="584" d="M253 -301l-17 21c32 27 57 57 62 97c-41 0 -62 34 -62 64c0 34 27 63 64 63c38 0 63 -29 63 -63c0 -79 -47 -142 -110 -182zM71 700h96v-298l267 298h113l-296 -330l310 -370h-123l-271 322v-322h-96v700z" />
<glyph unicode="&#x137;" horiz-adv-x="477" d="M200 -301l-17 21c32 27 57 57 62 97c-41 0 -62 34 -62 64c0 34 27 63 64 63c38 0 63 -29 63 -63c0 -79 -47 -142 -110 -182zM65 730h86v-410l177 180h114l-221 -223l242 -277h-112l-200 224v-224h-86v730z" />
<glyph unicode="&#x138;" horiz-adv-x="477" d="M65 500h86v-180l177 180h114l-221 -223l242 -277h-112l-200 224v-224h-86v500z" />
<glyph unicode="&#x139;" horiz-adv-x="550" d="M71 0v700h96v-612h345v-88h-441zM73 767l80 133h115l-106 -133h-89z" />
<glyph unicode="&#x13a;" horiz-adv-x="216" d="M65 730h86v-730h-86v730zM63 767l80 133h115l-106 -133h-89z" />
<glyph unicode="&#x13b;" horiz-adv-x="550" d="M251 -301l-17 21c32 27 57 57 62 97c-41 0 -62 34 -62 64c0 34 27 63 64 63c38 0 63 -29 63 -63c0 -79 -47 -142 -110 -182zM71 0v700h96v-612h345v-88h-441z" />
<glyph unicode="&#x13c;" horiz-adv-x="216" d="M60 -301l-17 21c32 27 57 57 62 97c-41 0 -62 34 -62 64c0 34 27 63 64 63c38 0 63 -29 63 -63c0 -79 -47 -142 -110 -182zM65 730h86v-730h-86v730z" />
<glyph unicode="&#x13d;" horiz-adv-x="550" d="M400 527l-10 24c32 9 56 32 63 61c-32 4 -58 24 -58 59c0 36 26 59 60 59s59 -27 59 -66c0 -65 -37 -113 -114 -137zM71 0v700h96v-612h345v-88h-441z" />
<glyph unicode="&#x13e;" horiz-adv-x="332" d="M201 527l-10 24c32 9 56 32 63 61c-32 4 -58 24 -58 59c0 36 26 59 60 59s59 -27 59 -66c0 -65 -37 -113 -114 -137zM65 730h86v-730h-86v730z" />
<glyph unicode="&#x13f;" horiz-adv-x="550" d="M71 0v700h96v-612h345v-88h-441zM358 350c0 39 33 72 72 72s72 -33 72 -72s-33 -72 -72 -72s-72 33 -72 72z" />
<glyph unicode="&#x140;" horiz-adv-x="379" d="M65 730h86v-730h-86v730zM205 350c0 39 33 72 72 72s72 -33 72 -72s-33 -72 -72 -72s-72 33 -72 72z" />
<glyph unicode="&#x143;" horiz-adv-x="668" d="M501 700h96v-700h-108l-322 549v-549h-96v700h108l322 -549v549zM284 767l80 133h115l-106 -133h-89z" />
<glyph unicode="&#x144;" d="M65 500h88v-65c35 37 101 75 175 75c107 0 165 -64 165 -165v-345h-88v329c0 66 -36 103 -102 103c-61 0 -113 -42 -150 -96v-336h-88v500zM218 567l80 133h115l-106 -133h-89z" />
<glyph unicode="&#x145;" horiz-adv-x="668" d="M287 -301l-17 21c32 27 57 57 62 97c-41 0 -62 34 -62 64c0 34 27 63 64 63c38 0 63 -29 63 -63c0 -79 -47 -142 -110 -182zM501 700h96v-700h-108l-322 549v-549h-96v700h108l322 -549v549z" />
<glyph unicode="&#x146;" d="M230 -301l-17 21c32 27 57 57 62 97c-41 0 -62 34 -62 64c0 34 27 63 64 63c38 0 63 -29 63 -63c0 -79 -47 -142 -110 -182zM65 500h88v-65c35 37 101 75 175 75c107 0 165 -64 165 -165v-345h-88v329c0 66 -36 103 -102 103c-61 0 -113 -42 -150 -96v-336h-88v500z" />
<glyph unicode="&#x147;" horiz-adv-x="668" d="M501 700h96v-700h-108l-322 549v-549h-96v700h108l322 -549v549zM480 900l-108 -133h-75l-108 133h83l62 -63l63 63h83z" />
<glyph unicode="&#x148;" d="M65 500h88v-65c35 37 101 75 175 75c107 0 165 -64 165 -165v-345h-88v329c0 66 -36 103 -102 103c-61 0 -113 -42 -150 -96v-336h-88v500zM432 700l-108 -133h-75l-108 133h83l62 -63l63 63h83z" />
<glyph unicode="&#x149;" d="M-1 527l-10 24c32 9 56 32 63 61c-32 4 -58 24 -58 59c0 36 26 59 60 59s59 -27 59 -66c0 -65 -37 -113 -114 -137zM65 500h88v-65c35 37 101 75 175 75c107 0 165 -64 165 -165v-345h-88v329c0 66 -36 103 -102 103c-61 0 -113 -42 -150 -96v-336h-88v500z" />
<glyph unicode="&#x14a;" horiz-adv-x="668" d="M325 -200l22 88c14 -6 32 -10 54 -10c66 0 100 41 100 122l-334 549v-549h-96v700h108l322 -532v532h96v-683c0 -138 -63 -227 -199 -227c-30 0 -52 4 -73 10z" />
<glyph unicode="&#x14b;" d="M405 329c0 66 -36 103 -102 103c-61 0 -113 -42 -150 -96v-336h-88v500h88v-65c35 37 101 75 175 75c107 0 165 -64 165 -165v-427c0 -89 -46 -128 -127 -128c-25 0 -40 4 -61 10v79c17 -6 31 -11 54 -11c32 0 46 17 46 50v411z" />
<glyph unicode="&#x14c;" horiz-adv-x="790" d="M395 710c194 0 348 -145 348 -360s-154 -360 -348 -360s-348 145 -348 360s154 360 348 360zM395 78c153 0 250 112 250 272s-97 272 -250 272s-250 -112 -250 -272s97 -272 250 -272zM276 870h238v-74h-238v74z" />
<glyph unicode="&#x14d;" horiz-adv-x="604" d="M45 250c0 149 104 260 257 260s257 -111 257 -260s-104 -260 -257 -260s-257 111 -257 260zM471 250c0 118 -74 180 -169 180s-169 -62 -169 -180s74 -180 169 -180s169 62 169 180zM183 670h238v-74h-238v74z" />
<glyph unicode="&#x14e;" horiz-adv-x="790" d="M395 710c194 0 348 -145 348 -360s-154 -360 -348 -360s-348 145 -348 360s154 360 348 360zM395 78c153 0 250 112 250 272s-97 272 -250 272s-250 -112 -250 -272s97 -272 250 -272zM431 880h70c0 -60 -39 -106 -106 -106s-106 46 -106 106h70c0 -23 13 -40 36 -40 s36 17 36 40z" />
<glyph unicode="&#x14f;" horiz-adv-x="604" d="M45 250c0 149 104 260 257 260s257 -111 257 -260s-104 -260 -257 -260s-257 111 -257 260zM471 250c0 118 -74 180 -169 180s-169 -62 -169 -180s74 -180 169 -180s169 62 169 180zM338 680h70c0 -60 -39 -106 -106 -106s-106 46 -106 106h70c0 -23 13 -40 36 -40 s36 17 36 40z" />
<glyph unicode="&#x150;" horiz-adv-x="790" d="M395 710c194 0 348 -145 348 -360s-154 -360 -348 -360s-348 145 -348 360s154 360 348 360zM395 78c153 0 250 112 250 272s-97 272 -250 272s-250 -112 -250 -272s97 -272 250 -272zM264 767l66 133h112l-92 -133h-86zM431 767l66 133h112l-92 -133h-86z" />
<glyph unicode="&#x151;" horiz-adv-x="604" d="M45 250c0 149 104 260 257 260s257 -111 257 -260s-104 -260 -257 -260s-257 111 -257 260zM471 250c0 118 -74 180 -169 180s-169 -62 -169 -180s74 -180 169 -180s169 62 169 180zM161 567l66 133h112l-92 -133h-86zM328 567l66 133h112l-92 -133h-86z" />
<glyph unicode="&#x154;" horiz-adv-x="602" d="M71 700h221c160 0 257 -90 257 -225c0 -93 -46 -153 -125 -198l161 -277h-110l-145 254h-163v-254h-96v700zM167 612v-270h141c91 0 145 53 145 135s-50 135 -145 135h-141zM203 767l80 133h115l-106 -133h-89z" />
<glyph unicode="&#x155;" horiz-adv-x="357" d="M65 500h88v-65c34 39 84 75 147 75c18 0 31 -3 40 -8l-14 -73c-8 2 -15 3 -32 3c-56 0 -108 -34 -141 -96v-336h-88v500zM134 567l80 133h115l-106 -133h-89z" />
<glyph unicode="&#x156;" horiz-adv-x="602" d="M263 -301l-17 21c32 27 57 57 62 97c-41 0 -62 34 -62 64c0 34 27 63 64 63c38 0 63 -29 63 -63c0 -79 -47 -142 -110 -182zM71 700h221c160 0 257 -90 257 -225c0 -93 -46 -153 -125 -198l161 -277h-110l-145 254h-163v-254h-96v700zM167 612v-270h141 c91 0 145 53 145 135s-50 135 -145 135h-141z" />
<glyph unicode="&#x157;" horiz-adv-x="357" d="M59 -301l-17 21c32 27 57 57 62 97c-41 0 -62 34 -62 64c0 34 27 63 64 63c38 0 63 -29 63 -63c0 -79 -47 -142 -110 -182zM65 500h88v-65c34 39 84 75 147 75c18 0 31 -3 40 -8l-14 -73c-8 2 -15 3 -32 3c-56 0 -108 -34 -141 -96v-336h-88v500z" />
<glyph unicode="&#x158;" horiz-adv-x="602" d="M71 700h221c160 0 257 -90 257 -225c0 -93 -46 -153 -125 -198l161 -277h-110l-145 254h-163v-254h-96v700zM167 612v-270h141c91 0 145 53 145 135s-50 135 -145 135h-141zM415 900l-108 -133h-75l-108 133h83l62 -63l63 63h83z" />
<glyph unicode="&#x159;" horiz-adv-x="357" d="M65 500h88v-65c34 39 84 75 147 75c18 0 31 -3 40 -8l-14 -73c-8 2 -15 3 -32 3c-56 0 -108 -34 -141 -96v-336h-88v500zM351 700l-108 -133h-75l-108 133h83l62 -63l63 63h83z" />
<glyph unicode="&#x15a;" horiz-adv-x="590" d="M280 622c-74 0 -126 -33 -126 -82c0 -61 56 -88 180 -116c134 -30 214 -94 214 -213c0 -133 -109 -221 -249 -221c-134 0 -255 87 -263 228h93c9 -91 82 -140 170 -140c84 0 153 43 153 130c0 80 -48 115 -182 144c-120 26 -210 73 -210 185c0 105 97 173 220 173 c139 0 228 -74 237 -200h-91c-11 75 -62 112 -146 112zM230 767l80 133h115l-106 -133h-89z" />
<glyph unicode="&#x15b;" horiz-adv-x="453" d="M400 352h-87c-7 54 -46 82 -101 82c-39 0 -85 -17 -85 -57c0 -37 41 -57 131 -81c105 -28 162 -66 162 -144c0 -92 -75 -162 -189 -162c-119 0 -196 62 -206 166h83c13 -51 45 -86 125 -86c53 0 101 25 101 71c0 45 -46 65 -144 90c-99 25 -147 66 -147 144 c0 73 69 135 169 135c107 0 179 -55 188 -158zM159 567l80 133h115l-106 -133h-89z" />
<glyph unicode="&#x15c;" horiz-adv-x="590" d="M280 622c-74 0 -126 -33 -126 -82c0 -61 56 -88 180 -116c134 -30 214 -94 214 -213c0 -133 -109 -221 -249 -221c-134 0 -255 87 -263 228h93c9 -91 82 -140 170 -140c84 0 153 43 153 130c0 80 -48 115 -182 144c-120 26 -210 73 -210 185c0 105 97 173 220 173 c139 0 228 -74 237 -200h-91c-11 75 -62 112 -146 112zM323 900l108 -133h-83l-63 63l-62 -63h-83l108 133h75z" />
<glyph unicode="&#x15d;" horiz-adv-x="453" d="M400 352h-87c-7 54 -46 82 -101 82c-39 0 -85 -17 -85 -57c0 -37 41 -57 131 -81c105 -28 162 -66 162 -144c0 -92 -75 -162 -189 -162c-119 0 -196 62 -206 166h83c13 -51 45 -86 125 -86c53 0 101 25 101 71c0 45 -46 65 -144 90c-99 25 -147 66 -147 144 c0 73 69 135 169 135c107 0 179 -55 188 -158zM261 700l108 -133h-83l-63 63l-62 -63h-83l108 133h75z" />
<glyph unicode="&#x15e;" horiz-adv-x="590" d="M280 622c-74 0 -126 -33 -126 -82c0 -61 56 -88 180 -116c134 -30 214 -94 214 -213c0 -129 -103 -216 -237 -221l-27 -44c12 5 26 11 49 11c42 0 75 -24 75 -70c0 -56 -43 -87 -102 -87c-60 0 -93 35 -98 74h61c6 -10 17 -17 37 -17c19 0 32 11 32 30 c0 18 -12 28 -34 28c-12 0 -27 -5 -41 -17l-55 9l39 88c-112 18 -204 100 -211 223h93c9 -91 82 -140 170 -140c84 0 153 43 153 130c0 80 -48 115 -182 144c-120 26 -210 73 -210 185c0 105 97 173 220 173c139 0 228 -74 237 -200h-91c-11 75 -62 112 -146 112z" />
<glyph unicode="&#x15f;" horiz-adv-x="453" d="M400 352h-87c-7 54 -46 82 -101 82c-39 0 -85 -17 -85 -57c0 -37 41 -57 131 -81c105 -28 162 -66 162 -144c0 -90 -72 -159 -183 -162l-27 -44c12 5 26 11 49 11c42 0 75 -24 75 -70c0 -56 -43 -87 -102 -87c-60 0 -93 35 -98 74h61c6 -10 17 -17 37 -17 c19 0 32 11 32 30c0 18 -12 28 -34 28c-12 0 -27 -5 -41 -17l-55 9l39 89c-86 16 -140 74 -148 160h83c13 -51 45 -86 125 -86c53 0 101 25 101 71c0 45 -46 65 -144 90c-99 25 -147 66 -147 144c0 73 69 135 169 135c107 0 179 -55 188 -158z" />
<glyph unicode="&#x162;" horiz-adv-x="498" d="M199 -301l-17 21c32 27 57 57 62 97c-41 0 -62 34 -62 64c0 34 27 63 64 63c38 0 63 -29 63 -63c0 -79 -47 -142 -110 -182zM297 612v-612h-96v612h-178v88h452v-88h-178z" />
<glyph unicode="&#x163;" horiz-adv-x="347" d="M181 -301l-17 21c32 27 57 57 62 97c-41 0 -62 34 -62 64c0 34 27 63 64 63c38 0 63 -29 63 -63c0 -79 -47 -142 -110 -182zM116 650l88 -32v-118h120v-80h-120v-298c0 -33 19 -54 62 -54c23 0 35 3 53 6v-74c-27 -7 -46 -10 -80 -10c-76 0 -123 43 -123 126v304h-99v80 h99v150z" />
<glyph unicode="&#x164;" horiz-adv-x="498" d="M297 612v-612h-96v612h-178v88h452v-88h-178zM394 900l-108 -133h-75l-108 133h83l62 -63l63 63h83z" />
<glyph unicode="&#x165;" horiz-adv-x="390" d="M269 527l-10 24c32 9 56 32 63 61c-32 4 -58 24 -58 59c0 36 26 59 60 59s59 -27 59 -66c0 -65 -37 -113 -114 -137zM116 650l88 -32v-118h120v-80h-120v-298c0 -33 19 -54 62 -54c23 0 35 3 53 6v-74c-27 -7 -46 -10 -80 -10c-76 0 -123 43 -123 126v304h-99v80h99v150z " />
<glyph unicode="&#x166;" horiz-adv-x="498" d="M297 612v-202h142v-80h-142v-330h-96v330h-142v80h142v202h-178v88h452v-88h-178z" />
<glyph unicode="&#x167;" horiz-adv-x="347" d="M116 650l88 -32v-118h120v-80h-120v-132h104v-74h-104v-92c0 -33 19 -54 62 -54c23 0 35 3 53 6v-74c-27 -7 -46 -10 -80 -10c-76 0 -123 43 -123 126v98h-83v74h83v132h-99v80h99v150z" />
<glyph unicode="&#x168;" horiz-adv-x="644" d="M68 700h96v-448c0 -110 50 -174 158 -174s158 64 158 174v448h96v-452c0 -150 -94 -258 -254 -258s-254 108 -254 258v452zM432 895h73c-8 -92 -66 -126 -113 -126c-87 0 -84 59 -135 59c-29 0 -41 -25 -45 -54h-73c8 92 66 126 113 126c87 0 84 -59 135 -59 c29 0 41 25 45 54z" />
<glyph unicode="&#x169;" d="M493 0h-88v65c-35 -37 -101 -75 -175 -75c-107 0 -165 64 -165 165v345h88v-329c0 -66 36 -103 102 -103c61 0 113 42 150 96v336h88v-500zM389 695h73c-8 -92 -66 -126 -113 -126c-87 0 -84 59 -135 59c-29 0 -41 -25 -45 -54h-73c8 92 66 126 113 126 c87 0 84 -59 135 -59c29 0 41 25 45 54z" />
<glyph unicode="&#x16a;" horiz-adv-x="644" d="M68 700h96v-448c0 -110 50 -174 158 -174s158 64 158 174v448h96v-452c0 -150 -94 -258 -254 -258s-254 108 -254 258v452zM203 870h238v-74h-238v74z" />
<glyph unicode="&#x16b;" d="M493 0h-88v65c-35 -37 -101 -75 -175 -75c-107 0 -165 64 -165 165v345h88v-329c0 -66 36 -103 102 -103c61 0 113 42 150 96v336h88v-500zM160 670h238v-74h-238v74z" />
<glyph unicode="&#x16c;" horiz-adv-x="644" d="M68 700h96v-448c0 -110 50 -174 158 -174s158 64 158 174v448h96v-452c0 -150 -94 -258 -254 -258s-254 108 -254 258v452zM358 880h70c0 -60 -39 -106 -106 -106s-106 46 -106 106h70c0 -23 13 -40 36 -40s36 17 36 40z" />
<glyph unicode="&#x16d;" d="M493 0h-88v65c-35 -37 -101 -75 -175 -75c-107 0 -165 64 -165 165v345h88v-329c0 -66 36 -103 102 -103c61 0 113 42 150 96v336h88v-500zM315 680h70c0 -60 -39 -106 -106 -106s-106 46 -106 106h70c0 -23 13 -40 36 -40s36 17 36 40z" />
<glyph unicode="&#x16e;" horiz-adv-x="644" d="M68 700h96v-448c0 -110 50 -174 158 -174s158 64 158 174v448h96v-452c0 -150 -94 -258 -254 -258s-254 108 -254 258v452zM240 828c0 45 37 82 82 82s82 -37 82 -82s-37 -82 -82 -82s-82 37 -82 82zM282 828c0 -23 17 -40 40 -40s40 17 40 40s-17 40 -40 40 s-40 -17 -40 -40z" />
<glyph unicode="&#x16f;" d="M493 0h-88v65c-35 -37 -101 -75 -175 -75c-107 0 -165 64 -165 165v345h88v-329c0 -66 36 -103 102 -103c61 0 113 42 150 96v336h88v-500zM197 628c0 45 37 82 82 82s82 -37 82 -82s-37 -82 -82 -82s-82 37 -82 82zM239 628c0 -23 17 -40 40 -40s40 17 40 40 s-17 40 -40 40s-40 -17 -40 -40z" />
<glyph unicode="&#x170;" horiz-adv-x="644" d="M68 700h96v-448c0 -110 50 -174 158 -174s158 64 158 174v448h96v-452c0 -150 -94 -258 -254 -258s-254 108 -254 258v452zM189 767l66 133h112l-92 -133h-86zM356 767l66 133h112l-92 -133h-86z" />
<glyph unicode="&#x171;" d="M493 0h-88v65c-35 -37 -101 -75 -175 -75c-107 0 -165 64 -165 165v345h88v-329c0 -66 36 -103 102 -103c61 0 113 42 150 96v336h88v-500zM134 567l66 133h112l-92 -133h-86zM301 567l66 133h112l-92 -133h-86z" />
<glyph unicode="&#x172;" horiz-adv-x="644" d="M68 700h96v-448c0 -110 50 -174 158 -174s158 64 158 174v448h96v-452c0 -124 -62 -203 -138 -235c-78 -33 -89 -72 -89 -94c0 -29 18 -43 35 -43s32 8 46 30l47 -35c-22 -38 -52 -61 -101 -61c-59 0 -97 39 -97 89c0 39 19 71 43 91c-160 0 -254 108 -254 258v452z" />
<glyph unicode="&#x173;" d="M405 0v65c-35 -37 -101 -75 -175 -75c-107 0 -165 64 -165 165v345h88v-329c0 -66 36 -103 102 -103c61 0 113 42 150 96v336h88v-500c-54 -28 -75 -59 -75 -86c0 -24 16 -38 35 -38c17 0 32 8 46 30l47 -35c-22 -38 -52 -61 -101 -61c-59 0 -97 39 -97 89 c0 46 27 82 57 101z" />
<glyph unicode="&#x174;" horiz-adv-x="952" d="M11 700h102l139 -517l17 -88l15 88l141 517h102l141 -517l15 -88l17 88l139 517h102l-202 -700h-108l-155 568l-155 -568h-108zM514 900l108 -133h-83l-63 63l-62 -63h-83l108 133h75z" />
<glyph unicode="&#x175;" horiz-adv-x="739" d="M12 500h93l94 -323l14 -89l16 89l96 323h89l95 -323l17 -89l14 89l94 323h93l-150 -500h-98l-110 398l-109 -398h-98zM407 700l108 -133h-83l-63 63l-62 -63h-83l108 133h75z" />
<glyph unicode="&#x176;" horiz-adv-x="544" d="M16 700h104l137 -296l15 -68l15 68l137 296h104l-208 -440v-260h-96v260zM310 900l108 -133h-83l-63 63l-62 -63h-83l108 133h75z" />
<glyph unicode="&#x177;" horiz-adv-x="498" d="M125 -200l89 222l-198 478h92l134 -319l13 -61l146 380h89l-278 -700h-87zM293 700l108 -133h-83l-63 63l-62 -63h-83l108 133h75z" />
<glyph unicode="&#x179;" horiz-adv-x="564" d="M35 88l362 524h-344v88h458v-68l-372 -544h384v-88h-488v88zM211 767l80 133h115l-106 -133h-89z" />
<glyph unicode="&#x17a;" horiz-adv-x="423" d="M26 66l260 354h-248v80h355v-62l-261 -358h261v-80h-367v66zM152 567l80 133h115l-106 -133h-89z" />
<glyph unicode="&#x17b;" horiz-adv-x="564" d="M35 88l362 524h-344v88h458v-68l-372 -544h384v-88h-488v88zM212 836c0 35 29 64 64 64s64 -29 64 -64s-29 -64 -64 -64s-64 29 -64 64z" />
<glyph unicode="&#x17c;" horiz-adv-x="423" d="M26 66l260 354h-248v80h355v-62l-261 -358h261v-80h-367v66zM149 636c0 35 29 64 64 64s64 -29 64 -64s-29 -64 -64 -64s-64 29 -64 64z" />
<glyph unicode="&#x17f;" horiz-adv-x="329" d="M196 0h-88v420h-86v80h86v95c0 102 60 145 136 145c31 0 46 -4 67 -10v-79c-17 6 -37 11 -60 11c-33 0 -55 -21 -55 -64v-598z" />
<glyph unicode="&#x1b5;" horiz-adv-x="564" d="M35 88l152 220h-108v80h163l155 224h-344v88h458v-68l-167 -244h144v-80h-199l-150 -220h384v-88h-488v88z" />
<glyph unicode="&#x1b6;" horiz-adv-x="423" d="M26 66l108 148h-81v74h136l97 132h-248v80h355v-62l-110 -150h94v-74h-148l-97 -134h261v-80h-367v66z" />
<glyph horiz-adv-x="477" d="M230 170c-33 0 -65 8 -93 25c-23 -11 -28 -29 -28 -44c0 -21 18 -38 55 -43c24 -3 47 -3 80 -3c72 0 131 -9 167 -40c26 -22 47 -59 47 -101c0 -102 -84 -174 -233 -174c-115 0 -213 65 -213 165c0 43 18 81 48 105c-25 20 -39 49 -39 83c0 46 27 77 66 96 c-21 27 -33 61 -33 101c0 107 88 170 176 170c20 0 40 -4 60 -10h138v-62h-53c19 -27 31 -60 31 -98c0 -106 -88 -170 -176 -170zM169 24c-13 0 -26 1 -38 3c-17 -17 -27 -38 -27 -71c0 -49 44 -86 131 -86c79 0 125 28 125 83c0 49 -37 71 -130 71h-61zM230 246 c49 0 95 33 95 94s-46 94 -95 94s-95 -33 -95 -94s46 -94 95 -94z" />
<glyph horiz-adv-x="477" d="M230 170c-33 0 -65 8 -93 25c-23 -11 -28 -29 -28 -44c0 -21 18 -38 55 -43c24 -3 47 -3 80 -3c72 0 131 -9 167 -40c26 -22 47 -59 47 -101c0 -102 -84 -174 -233 -174c-115 0 -213 65 -213 165c0 43 18 81 48 105c-25 20 -39 49 -39 83c0 46 27 77 66 96 c-21 27 -33 61 -33 101c0 107 88 170 176 170c20 0 40 -4 60 -10h138v-62h-53c19 -27 31 -60 31 -98c0 -106 -88 -170 -176 -170zM169 24c-13 0 -26 1 -38 3c-17 -17 -27 -38 -27 -71c0 -49 44 -86 131 -86c79 0 125 28 125 83c0 49 -37 71 -130 71h-61zM230 246 c49 0 95 33 95 94s-46 94 -95 94s-95 -33 -95 -94s46 -94 95 -94zM273 700l108 -133h-83l-63 63l-62 -63h-83l108 133h75z" />
<glyph horiz-adv-x="477" d="M230 170c-33 0 -65 8 -93 25c-23 -11 -28 -29 -28 -44c0 -21 18 -38 55 -43c24 -3 47 -3 80 -3c72 0 131 -9 167 -40c26 -22 47 -59 47 -101c0 -102 -84 -174 -233 -174c-115 0 -213 65 -213 165c0 43 18 81 48 105c-25 20 -39 49 -39 83c0 46 27 77 66 96 c-21 27 -33 61 -33 101c0 107 88 170 176 170c20 0 40 -4 60 -10h138v-62h-53c19 -27 31 -60 31 -98c0 -106 -88 -170 -176 -170zM169 24c-13 0 -26 1 -38 3c-17 -17 -27 -38 -27 -71c0 -49 44 -86 131 -86c79 0 125 28 125 83c0 49 -37 71 -130 71h-61zM230 246 c49 0 95 33 95 94s-46 94 -95 94s-95 -33 -95 -94s46 -94 95 -94zM271 680h70c0 -60 -39 -106 -106 -106s-106 46 -106 106h70c0 -23 13 -40 36 -40s36 17 36 40z" />
<glyph horiz-adv-x="477" d="M230 170c-33 0 -65 8 -93 25c-23 -11 -28 -29 -28 -44c0 -21 18 -38 55 -43c24 -3 47 -3 80 -3c72 0 131 -9 167 -40c26 -22 47 -59 47 -101c0 -102 -84 -174 -233 -174c-115 0 -213 65 -213 165c0 43 18 81 48 105c-25 20 -39 49 -39 83c0 46 27 77 66 96 c-21 27 -33 61 -33 101c0 107 88 170 176 170c20 0 40 -4 60 -10h138v-62h-53c19 -27 31 -60 31 -98c0 -106 -88 -170 -176 -170zM169 24c-13 0 -26 1 -38 3c-17 -17 -27 -38 -27 -71c0 -49 44 -86 131 -86c79 0 125 28 125 83c0 49 -37 71 -130 71h-61zM230 246 c49 0 95 33 95 94s-46 94 -95 94s-95 -33 -95 -94s46 -94 95 -94zM166 636c0 35 29 64 64 64s64 -29 64 -64s-29 -64 -64 -64s-64 29 -64 64z" />
<glyph horiz-adv-x="477" d="M291 818l11 -24c-44 -23 -67 -57 -72 -97c43 -3 62 -34 62 -64c0 -34 -27 -63 -64 -63c-35 0 -66 26 -66 73c0 69 37 137 129 175zM230 170c-33 0 -65 8 -93 25c-23 -11 -28 -29 -28 -44c0 -21 18 -38 55 -43c24 -3 47 -3 80 -3c72 0 131 -9 167 -40 c26 -22 47 -59 47 -101c0 -102 -84 -174 -233 -174c-115 0 -213 65 -213 165c0 43 18 81 48 105c-25 20 -39 49 -39 83c0 46 27 77 66 96c-21 27 -33 61 -33 101c0 107 88 170 176 170c20 0 40 -4 60 -10h138v-62h-53c19 -27 31 -60 31 -98c0 -106 -88 -170 -176 -170z M169 24c-13 0 -26 1 -38 3c-17 -17 -27 -38 -27 -71c0 -49 44 -86 131 -86c79 0 125 28 125 83c0 49 -37 71 -130 71h-61zM230 246c49 0 95 33 95 94s-46 94 -95 94s-95 -33 -95 -94s46 -94 95 -94z" />
<glyph horiz-adv-x="792" d="M36 350c0 199 157 360 360 360s360 -161 360 -360s-157 -360 -360 -360s-360 161 -360 360zM108 350c0 -161 127 -292 288 -292s288 131 288 292s-127 292 -288 292s-288 -131 -288 -292zM266 350c0 -89 57 -141 131 -141c66 0 102 28 120 87h65 c-17 -95 -85 -150 -186 -150c-112 0 -199 81 -199 204s87 204 199 204c101 0 172 -55 186 -150h-65c-13 54 -54 87 -120 87c-74 0 -131 -52 -131 -141z" />
<glyph horiz-adv-x="792" d="M36 350c0 199 157 360 360 360s360 -161 360 -360s-157 -360 -360 -360s-360 161 -360 360zM108 350c0 -161 127 -292 288 -292s288 131 288 292s-127 292 -288 292s-288 -131 -288 -292zM264 554h129c99 0 151 -52 151 -131c0 -54 -27 -89 -74 -116l82 -161h-70l-74 148 h-80v-148h-64v408zM328 496v-144h67c53 0 84 24 84 72s-29 72 -84 72h-67z" />
</font>
</defs>
</svg>
