<svg id="nPVR_1" xmlns="http://www.w3.org/2000/svg" viewBox="0 0 1241.24 458.83"><defs><style>.cls-1{fill:#e30049;}.cls-2{fill:#030041;}.cls-3{fill:#fdbd10;}.cls-4{fill:#71ca81;}.cls-5{fill:#68b8e7;}.cls-6{fill:#eb683a;}.cls-7{fill:#fff;}.cls-10,.cls-8{fill:none;stroke-linecap:round;stroke-linejoin:round;stroke-width:2px;}.cls-8{stroke:#fff;}.cls-9{fill:#1d1d1b;}.cls-10{stroke:#1d1d1b;}.cls-11{fill:#767597;}</style></defs><title>nPVR_diagram_5_2019</title><path class="cls-1" d="M573.58,730.94V689.43l-1.31-2.27L571,689.43v41.51a6.69,6.69,0,0,1-6.68,6.67h6.46A9.26,9.26,0,0,0,573.58,730.94Z" transform="translate(-340.81 -312.44)"/><path class="cls-1" d="M573.58,678.42V643.14a22.67,22.67,0,0,1,22.64-22.64h54.59v-2.62H596.22A25.29,25.29,0,0,0,571,643.14v35.28l1.31-2.28Z" transform="translate(-340.81 -312.44)"/><path class="cls-1" d="M564.28,740.23h0Z" transform="translate(-340.81 -312.44)"/><polygon class="cls-2" points="456.05 120.93 572.98 120.93 572.98 118.31 456.05 118.31 453.78 119.62 456.05 120.93"/><polygon class="cls-2" points="442.76 119.62 445.04 118.31 425.76 118.31 425.76 120.93 445.03 120.93 442.76 119.62"/><polygon class="cls-2" points="715.59 119.62 717.87 118.31 693.59 118.31 693.59 120.93 717.86 120.93 715.59 119.62"/><polygon class="cls-2" points="728.88 120.93 840.81 120.93 840.81 118.31 728.88 118.31 726.61 119.62 728.88 120.93"/><polygon class="cls-1" points="808.43 94.52 806.16 93.21 693.59 93.21 693.59 95.83 806.16 95.83 808.43 94.52"/><polygon class="cls-1" points="817.17 95.83 840.81 95.83 840.81 93.21 817.18 93.21 819.45 94.52 817.17 95.83"/><polygon class="cls-3" points="540.6 94.52 538.33 93.21 425.76 93.21 425.76 95.83 538.33 95.83 540.6 94.52"/><polygon class="cls-3" points="549.35 95.83 572.98 95.83 572.98 93.21 549.35 93.21 551.62 94.52 549.35 95.83"/><path class="cls-2" d="M538,762.61H450.1A22.67,22.67,0,0,1,427.46,740V676.71h-2.63V740a25.3,25.3,0,0,0,25.27,25.26H538l-2.27-1.31Z" transform="translate(-340.81 -312.44)"/><path class="cls-2" d="M1256.23,740a22.67,22.67,0,0,1-22.65,22.64H549l-2.27,1.31,2.27,1.31h684.54A25.29,25.29,0,0,0,1258.85,740V482.48h-2.62Z" transform="translate(-340.81 -312.44)"/><path class="cls-1" d="M1128.74,740.23l2.27-1.31-2.27-1.31h-558a9.22,9.22,0,0,1-6.44,2.62Z" transform="translate(-340.81 -312.44)"/><path class="cls-1" d="M1139.75,740.23h85a9.29,9.29,0,0,0,9.3-9.29V482.48h-2.62V730.94a6.68,6.68,0,0,1-6.68,6.67h-85l2.27,1.31Z" transform="translate(-340.81 -312.44)"/><path class="cls-1" d="M459.13,740.23H564.28v-2.62H459.13a6.67,6.67,0,0,1-6.67-6.67V679.79h-2.63v51.15A9.31,9.31,0,0,0,459.13,740.23Z" transform="translate(-340.81 -312.44)"/><path class="cls-1" d="M564.3,740.23a9.22,9.22,0,0,0,6.44-2.62h-6.46v2.62Z" transform="translate(-340.81 -312.44)"/><polygon class="cls-4" points="502.75 305.44 429.41 305.44 429.41 308.06 502.75 308.06 505.02 306.75 502.75 305.44"/><polygon class="cls-4" points="513.76 308.06 569.04 308.06 569.04 305.44 513.77 305.44 516.04 306.75 513.76 308.06"/><polygon class="cls-2" points="179.88 118.31 162.84 118.31 162.84 120.93 179.88 120.93 177.6 119.62 179.88 118.31"/><polygon class="cls-2" points="299.82 118.31 190.89 118.31 188.62 119.62 190.89 120.93 299.82 120.93 299.82 118.31"/><polygon class="cls-5" points="270.44 94.53 268.17 93.21 161.72 93.21 161.72 95.84 268.17 95.84 270.44 94.53"/><polygon class="cls-5" points="279.19 95.84 323.75 95.84 323.75 93.21 279.19 93.21 281.46 94.53 279.19 95.84"/><polygon class="cls-5" points="649.7 196.93 649.7 162.7 647.08 162.7 647.08 196.92 648.39 194.65 649.7 196.93"/><polygon class="cls-5" points="647.08 207.94 647.08 241.88 649.7 241.88 649.7 207.94 648.39 205.67 647.08 207.94"/><polygon class="cls-1" points="622.13 210.53 622.13 162.23 619.5 162.23 619.5 210.53 620.82 212.81 622.13 210.53"/><polygon class="cls-1" points="619.5 221.55 619.5 241.88 622.13 241.88 622.13 221.55 620.82 223.82 619.5 221.55"/><polygon class="cls-6" points="1087.33 93.81 1089.6 95.12 1087.33 96.43 1110.96 96.43 1110.96 93.81 1087.33 93.81"/><polygon class="cls-6" points="1076.31 93.81 970.23 93.81 970.23 96.43 1076.31 96.43 1078.58 95.12 1076.31 93.81"/><polygon class="cls-2" points="996.76 120.22 999.03 121.53 1110.96 121.53 1110.96 118.9 999.03 118.9 996.76 120.22"/><polygon class="cls-2" points="988.02 118.9 968.81 118.9 968.81 121.53 988.01 121.53 985.74 120.22 988.02 118.9"/><polygon class="cls-2" points="463.88 126.97 451.15 119.62 463.88 112.27 465.19 114.54 456.4 119.62 465.19 124.69 463.88 126.97"/><polygon class="cls-3" points="530.5 101.87 529.19 99.59 537.98 94.52 529.19 89.44 530.5 87.17 543.23 94.52 530.5 101.87"/><polygon class="cls-2" points="216.06 458.83 203.33 451.48 216.06 444.13 217.37 446.4 208.58 451.48 217.37 456.55 216.06 458.83"/><polygon class="cls-1" points="780.1 433.83 778.79 431.56 787.58 426.48 778.79 421.4 780.1 419.13 792.82 426.48 780.1 433.83"/><polygon class="cls-1" points="236.53 386.13 231.46 377.34 226.38 386.13 224.11 384.82 231.46 372.09 238.81 384.82 236.53 386.13"/><polygon class="cls-4" points="494.92 314.1 493.61 311.83 502.4 306.75 493.61 301.67 494.92 299.4 507.65 306.75 494.92 314.1"/><polygon class="cls-2" points="736.71 126.97 723.98 119.62 736.71 112.27 738.02 114.54 729.23 119.62 738.02 124.69 736.71 126.97"/><polygon class="cls-1" points="798.33 101.87 797.02 99.59 805.81 94.52 797.02 89.44 798.33 87.17 811.06 94.52 798.33 101.87"/><polygon class="cls-2" points="198.72 126.97 185.99 119.62 198.72 112.27 200.03 114.54 191.24 119.62 200.03 124.69 198.72 126.97"/><polygon class="cls-5" points="260.34 101.87 259.03 99.6 267.82 94.52 259.03 89.45 260.34 87.17 273.07 94.53 260.34 101.87"/><polygon class="cls-1" points="634.56 29.6 668.1 48.97 701.65 68.34 701.64 107.07 701.64 145.81 668.11 165.17 634.57 184.53 601.02 165.17 567.48 145.8 567.48 107.06 567.47 68.33 601.01 48.97 634.56 29.6"/><path class="cls-7" d="M975.36,461.1a1,1,0,0,1-.5-1.87l34.72-20v-40.1a1,1,0,0,1,2,0v40.68a1,1,0,0,1-.5.86L975.86,461A1,1,0,0,1,975.36,461.1Z" transform="translate(-340.81 -312.44)"/><path class="cls-8" d="M940.14,399.09" transform="translate(-340.81 -312.44)"/><path class="cls-7" d="M975.36,447.54a1,1,0,0,1-.5-.14l-35.21-20.33a1,1,0,0,1-.5-.87V412.65a1,1,0,0,1,.5-.87,1,1,0,0,1,1,0l35.22,20.33a1,1,0,0,1,.5.87v13.56a1,1,0,0,1-1,1Zm-34.21-21.92,33.21,19.19V433.56l-33.22-19.18Z" transform="translate(-340.81 -312.44)"/><path class="cls-7" d="M975.36,420.43a1,1,0,0,1-.86-.5,1,1,0,0,1,.36-1.36l33.72-19.48-33.22-19.17-34.72,20a1,1,0,0,1-1-1.74l35.22-20.33a1,1,0,0,1,1,0l35.22,20.33a1,1,0,0,1,0,1.74L975.86,420.3A1,1,0,0,1,975.36,420.43Z" transform="translate(-340.81 -312.44)"/><path class="cls-7" d="M975.36,461.09a1,1,0,0,1-.5-.13l-35.22-20.33a1,1,0,0,1-.5-.87V426.2a1,1,0,1,1,2,0v13l33.22,19.18V446.54a1,1,0,0,1,2,0v13.55a1,1,0,0,1-.5.87A1,1,0,0,1,975.36,461.09Z" transform="translate(-340.81 -312.44)"/><path class="cls-7" d="M968,435.42c0-.93.66-1.26,1.47-.75A3.47,3.47,0,0,1,971,437.3c0,.94-.66,1.28-1.47.76A3.51,3.51,0,0,1,968,435.42Z" transform="translate(-340.81 -312.44)"/><path class="cls-7" d="M968,449c0-.94.66-1.27,1.47-.75a3.47,3.47,0,0,1,1.47,2.63c0,.93-.66,1.27-1.47.75A3.49,3.49,0,0,1,968,449Z" transform="translate(-340.81 -312.44)"/><path class="cls-8" d="M975.36,460.1" transform="translate(-340.81 -312.44)"/><path class="cls-8" d="M940.14,439.77" transform="translate(-340.81 -312.44)"/><path class="cls-7" d="M975.36,434a1,1,0,0,1-1-1V420l-33.22-19.19v11.83a1,1,0,0,1-1,1h0a1,1,0,0,1-1-1V399.09a1,1,0,0,1,.5-.87,1,1,0,0,1,1,0l35.22,20.35a1,1,0,0,1,.5.86V433A1,1,0,0,1,975.36,434Z" transform="translate(-340.81 -312.44)"/><path class="cls-7" d="M968,421.88c0-.94.66-1.27,1.47-.76a3.47,3.47,0,0,1,1.47,2.63c0,.93-.66,1.27-1.47.76A3.51,3.51,0,0,1,968,421.88Z" transform="translate(-340.81 -312.44)"/><path class="cls-7" d="M975.36,434a1,1,0,0,1-.5-1.87l35.22-20.33a1,1,0,1,1,1,1.74l-35.22,20.33A1,1,0,0,1,975.36,434Z" transform="translate(-340.81 -312.44)"/><path class="cls-7" d="M975.36,447.54a1,1,0,0,1-.5-1.87l35.22-20.34a1,1,0,1,1,1,1.73L975.86,447.4A.9.9,0,0,1,975.36,447.54Z" transform="translate(-340.81 -312.44)"/><path class="cls-6" d="M1245.53,485.88a66.82,66.82,0,1,1,66.82-66.82A66.89,66.89,0,0,1,1245.53,485.88Zm0-131a64.2,64.2,0,1,0,64.2,64.19A64.26,64.26,0,0,0,1245.53,354.87Z" transform="translate(-340.81 -312.44)"/><polygon class="cls-4" points="366.55 228.47 400.09 247.84 433.64 267.21 433.63 305.94 433.63 344.68 400.09 364.04 366.56 383.4 333.02 364.03 299.47 344.67 299.47 305.93 299.46 267.2 333 247.84 366.55 228.47"/><path class="cls-7" d="M707.57,652.5a1,1,0,0,1-1-1V618.3a1,1,0,0,1,2,0v33.2A1,1,0,0,1,707.57,652.5Z" transform="translate(-340.81 -312.44)"/><path class="cls-8" d="M707.57,651.49" transform="translate(-340.81 -312.44)"/><path class="cls-7" d="M707.35,619.3a1,1,0,0,1-.5-.13l-35.93-20.76a1,1,0,0,1,0-1.73l28.75-16.6a1,1,0,0,1,1,0l35.94,20.76a1,1,0,0,1-1,1.73l-35.44-20.46-26.75,15.43,34.43,19.89a1,1,0,0,1-.5,1.87Z" transform="translate(-340.81 -312.44)"/><path class="cls-8" d="M707.35,618.3" transform="translate(-340.81 -312.44)"/><rect class="cls-7" x="394.29" y="288.26" width="2" height="18.65" rx="1"/><path class="cls-7" d="M707.35,652.49a1,1,0,0,1-.5-1.86l12.7-7.33a1,1,0,0,1,1.36.36,1,1,0,0,1-.36,1.37l-12.7,7.33A1,1,0,0,1,707.35,652.49Z" transform="translate(-340.81 -312.44)"/><path class="cls-8" d="M707.35,618.3" transform="translate(-340.81 -312.44)"/><path class="cls-7" d="M671.42,631.74h0a1,1,0,0,1-1-1v-33.2a1,1,0,0,1,1-1h0a1,1,0,0,1,1,1v33.2A1,1,0,0,1,671.42,631.74Z" transform="translate(-340.81 -312.44)"/><path class="cls-7" d="M719.06,638.29a1,1,0,0,1-.5-.13l-2.85-1.64c-1.64-1.06-2.45-3.08-2.33-5.72a17,17,0,0,1,2.52-7.7,16.39,16.39,0,0,1,5.55-5.79c2.26-1.3,4.4-1.44,6-.42l3.33,1.92a1,1,0,0,1-1,1.73l-3.38-1.94c-1-.63-2.39-.47-4,.44a14.63,14.63,0,0,0-4.83,5.08,15,15,0,0,0-2.24,6.77c-.09,1.87.42,3.3,1.38,3.92l2.8,1.62a1,1,0,0,1,.37,1.36A1,1,0,0,1,719.06,638.29Z" transform="translate(-340.81 -312.44)"/><path class="cls-7" d="M729.49,651.4a1,1,0,0,1-.5-.14l-7.81-4.49c-2.27-1.48-3.41-4.36-3.24-8.14a25,25,0,0,1,3.71-11.32,23.94,23.94,0,0,1,8.15-8.5c3.22-1.86,6.24-2.08,8.49-.63l7.32,4.23.48.27a1,1,0,0,1-1,1.71l-.38-.22c-1.57-.8-3.71-.49-6.07.87a21.87,21.87,0,0,0-7.43,7.8,22.85,22.85,0,0,0-3.43,10.39c-.13,3,.7,5.31,2.29,6.32a1,1,0,0,1-.54,1.85Zm5.45-32.16a8.5,8.5,0,0,0-4.14,1.3,22.09,22.09,0,0,0-7.43,7.79,22.89,22.89,0,0,0-3.43,10.39c-.14,3,.67,5.29,2.29,6.34l4,2.28a12.85,12.85,0,0,1-.45-4.2,24.93,24.93,0,0,1,3.71-11.33,24,24,0,0,1,8.15-8.5,12.38,12.38,0,0,1,3.25-1.34l-3.6-2.08A4.13,4.13,0,0,0,734.94,619.24Z" transform="translate(-340.81 -312.44)"/><path class="cls-7" d="M732.28,652.19a6.09,6.09,0,0,1-3.21-.87c-2.32-1.41-3.51-4.32-3.33-8.18.33-7.35,5.65-16.25,11.86-19.83,3.15-1.81,6.12-2.07,8.36-.71s3.51,4.32,3.34,8.18c-.33,7.35-5.65,16.25-11.86,19.83h0A10.46,10.46,0,0,1,732.28,652.19Zm10.47-28.45a8.48,8.48,0,0,0-4.15,1.31c-5.69,3.27-10.56,11.43-10.86,18.18-.14,3,.72,5.38,2.37,6.38s3.84.71,6.33-.73h0c5.68-3.28,10.56-11.44,10.86-18.19.14-3.05-.73-5.38-2.37-6.38A4.17,4.17,0,0,0,742.75,623.74Z" transform="translate(-340.81 -312.44)"/><path class="cls-7" d="M698.32,634.39a4.06,4.06,0,0,1-2.05-.62,9.48,9.48,0,0,1-4.29-7.15,3.47,3.47,0,0,1,1.43-3.32,3.33,3.33,0,0,1,3.47.22h0a9.53,9.53,0,0,1,4.28,7.16,3.47,3.47,0,0,1-1.43,3.33A2.64,2.64,0,0,1,698.32,634.39Zm-3.49-9.48a.65.65,0,0,0-.38.1,1.68,1.68,0,0,0-.47,1.52,7.53,7.53,0,0,0,3.29,5.51,1.53,1.53,0,0,0,1.43.26,1.74,1.74,0,0,0,.47-1.53,7.61,7.61,0,0,0-3.28-5.51h0A2.26,2.26,0,0,0,694.83,624.91Z" transform="translate(-340.81 -312.44)"/><path class="cls-7" d="M729.25,643.62a4.34,4.34,0,0,1-2.4-.69,1,1,0,1,1,1.08-1.68c1,.62,2.35.45,3.93-.46a14.46,14.46,0,0,0,4.83-5.08,15,15,0,0,0,2.24-6.76c.09-1.88-.41-3.31-1.38-3.93a1,1,0,0,1,1.09-1.68c1.6,1,2.41,3.06,2.29,5.7a17.07,17.07,0,0,1-2.52,7.7,16.19,16.19,0,0,1-5.55,5.78A7.31,7.31,0,0,1,729.25,643.62Z" transform="translate(-340.81 -312.44)"/><path class="cls-7" d="M707.36,619.3a1,1,0,0,1-.87-.5,1,1,0,0,1,.36-1.37l28.76-16.59a1,1,0,0,1,1.36.36,1,1,0,0,1-.36,1.37l-28.76,16.6A1,1,0,0,1,707.36,619.3Z" transform="translate(-340.81 -312.44)"/><path class="cls-8" d="M707.35,651.49" transform="translate(-340.81 -312.44)"/><path class="cls-8" d="M671.42,630.74" transform="translate(-340.81 -312.44)"/><path class="cls-7" d="M707.35,652.49a1,1,0,0,1-.5-.13l-35.93-20.75a1,1,0,1,1,1-1.74l35.93,20.75a1,1,0,0,1-.5,1.87Z" transform="translate(-340.81 -312.44)"/><polygon class="cls-3" points="366.54 30.18 400.07 49.55 433.62 68.92 433.62 107.66 433.61 146.39 400.07 165.75 366.55 185.12 333 165.75 299.46 146.38 299.45 107.65 299.45 68.91 332.99 49.55 366.54 30.18"/><path class="cls-7" d="M707.29,458.74a1,1,0,0,1-.5-1.86L744,435.38V421.43a1,1,0,0,1,2,0V436a1,1,0,0,1-.5.87l-37.73,21.78A1,1,0,0,1,707.29,458.74Z" transform="translate(-340.81 -312.44)"/><path class="cls-7" d="M707.29,458.74a1,1,0,0,1-.5-.13l-37.73-21.79a1,1,0,0,1-.5-.86V421.43a1,1,0,0,1,2,0v13.95L706.29,456V443.22a1,1,0,0,1,2,0v14.52a1,1,0,0,1-1,1Z" transform="translate(-340.81 -312.44)"/><path class="cls-8" d="M707.29,457.74" transform="translate(-340.81 -312.44)"/><path class="cls-8" d="M669.56,436" transform="translate(-340.81 -312.44)"/><path class="cls-7" d="M707.29,444.22a1,1,0,0,1-.5-1.87l37.73-21.79a1,1,0,0,1,1,1.74l-37.73,21.78A1,1,0,0,1,707.29,444.22Z" transform="translate(-340.81 -312.44)"/><path class="cls-7" d="M669.56,407.9a1,1,0,0,1-.87-.5,1,1,0,0,1,.37-1.36l37.73-21.79a1,1,0,0,1,1,1.73l-37.73,21.79A1,1,0,0,1,669.56,407.9Z" transform="translate(-340.81 -312.44)"/><path class="cls-7" d="M669.56,422.43a1,1,0,0,1-1-1V406.9a1,1,0,0,1,2,0v14.53A1,1,0,0,1,669.56,422.43Z" transform="translate(-340.81 -312.44)"/><path class="cls-7" d="M707.29,444.22a1.05,1.05,0,0,1-.7-.28l-37.73-36.32a1,1,0,0,1,1.39-1.44L708,442.5a1,1,0,0,1,0,1.41A1,1,0,0,1,707.29,444.22Z" transform="translate(-340.81 -312.44)"/><path class="cls-7" d="M715,424.79a6.29,6.29,0,0,1-4.29-1.72,4,4,0,0,1-1.38-3.36,3.19,3.19,0,0,1,1.64-2.39,5.88,5.88,0,0,1,6.64,1.13A4.09,4.09,0,0,1,719,421.8a3.2,3.2,0,0,1-1.64,2.41A4.66,4.66,0,0,1,715,424.79Zm-1.69-6.07a2.62,2.62,0,0,0-1.33.33,1.16,1.16,0,0,0-.66.9,2.11,2.11,0,0,0,.77,1.68h0a3.91,3.91,0,0,0,4.25.85,1.23,1.23,0,0,0,.65-.92,2.13,2.13,0,0,0-.78-1.67A4.41,4.41,0,0,0,713.29,418.72Z" transform="translate(-340.81 -312.44)"/><path class="cls-7" d="M709.8,407.07a3.71,3.71,0,0,1-1.83-.54h0a7.71,7.71,0,0,1-2.56-2.66,7.81,7.81,0,0,1-1.16-3.55,3.16,3.16,0,0,1,1.24-2.93,3,3,0,0,1,3.16.16,7.7,7.7,0,0,1,2.57,2.65,8,8,0,0,1,1.15,3.56,3.12,3.12,0,0,1-1.24,2.93A2.43,2.43,0,0,1,709.8,407.07ZM709,404.8c.46.26.87.34,1.08.21s.35-.48.32-1.16a6,6,0,0,0-.87-2.62,5.72,5.72,0,0,0-1.85-2c-.46-.26-.87-.34-1.08-.21s-.35.47-.32,1.16a5.93,5.93,0,0,0,.87,2.61A5.85,5.85,0,0,0,709,404.8Z" transform="translate(-340.81 -312.44)"/><path class="cls-7" d="M710.59,406.85a1,1,0,0,1-.5-1.87l15.29-8.83c.14-.09.31-.45.28-1.13a6,6,0,0,0-.87-2.62,5.63,5.63,0,0,0-1.85-1.95c-.46-.27-.87-.35-1.08-.21l-15.33,8.85a1,1,0,0,1-1-1.73l15.29-8.83a3,3,0,0,1,3.12.19,7.48,7.48,0,0,1,2.57,2.66,7.91,7.91,0,0,1,1.15,3.55,3.14,3.14,0,0,1-1.24,2.93l-15.33,8.85A.93.93,0,0,1,710.59,406.85Z" transform="translate(-340.81 -312.44)"/><path class="cls-7" d="M718.45,411.58a1,1,0,0,1-1-1v-9.27a1,1,0,1,1,2,0v9.27A1,1,0,0,1,718.45,411.58Z" transform="translate(-340.81 -312.44)"/><path class="cls-7" d="M705.84,399.38a1,1,0,0,1-.68-.27l-2.46-2.3a1,1,0,0,1,1.37-1.46l2.45,2.3a1,1,0,0,1,.05,1.41A1,1,0,0,1,705.84,399.38Z" transform="translate(-340.81 -312.44)"/><path class="cls-7" d="M729.8,422.5a1,1,0,0,1-.7-.28L711.75,405.5a1,1,0,0,1,0-1.42,1,1,0,0,1,1.41,0l17.36,16.72a1,1,0,0,1-.69,1.72Z" transform="translate(-340.81 -312.44)"/><path class="cls-7" d="M711.45,419.18a1,1,0,0,1-.69-.28l-17.37-16.72a1,1,0,1,1,1.39-1.44l17.37,16.72a1,1,0,0,1-.7,1.72Z" transform="translate(-340.81 -312.44)"/><path class="cls-7" d="M720.49,427.88a1,1,0,0,1-.69-.28l-3.67-3.53a1,1,0,1,1,1.39-1.44l3.67,3.53a1,1,0,0,1,0,1.41A1,1,0,0,1,720.49,427.88Z" transform="translate(-340.81 -312.44)"/><path class="cls-7" d="M692,417a6.32,6.32,0,0,1-4.29-1.73,4,4,0,0,1-1.38-3.34,3.2,3.2,0,0,1,1.64-2.41,5.89,5.89,0,0,1,6.64,1.14A4,4,0,0,1,696,414a3.22,3.22,0,0,1-1.64,2.39A4.66,4.66,0,0,1,692,417Zm-1.69-6.07a2.66,2.66,0,0,0-1.34.32,1.17,1.17,0,0,0-.65.91,2.09,2.09,0,0,0,.77,1.67,3.92,3.92,0,0,0,4.25.85,1.2,1.2,0,0,0,.66-.9,2.12,2.12,0,0,0-.78-1.68h0A4.32,4.32,0,0,0,690.28,410.91Z" transform="translate(-340.81 -312.44)"/><path class="cls-7" d="M688.44,411.36a1,1,0,0,1-.69-.28l-3.67-3.53a1,1,0,0,1,1.39-1.44l3.67,3.53a1,1,0,0,1,0,1.41A1,1,0,0,1,688.44,411.36Z" transform="translate(-340.81 -312.44)"/><path class="cls-7" d="M711.19,433.25a1,1,0,0,1-.7-.28l-17.37-16.73a1,1,0,0,1,1.39-1.44l17.37,16.73a1,1,0,0,1-.69,1.72Z" transform="translate(-340.81 -312.44)"/><path class="cls-7" d="M745,422.43a1,1,0,0,1-.7-.28l-23-22.17a1,1,0,0,1,1.39-1.44l23,22.17a1,1,0,0,1,0,1.41A1,1,0,0,1,745,422.43Z" transform="translate(-340.81 -312.44)"/><path class="cls-7" d="M715.33,393.86a1,1,0,0,1-.69-.28l-8-7.74a1,1,0,1,1,1.39-1.45l8,7.75a1,1,0,0,1-.7,1.72Z" transform="translate(-340.81 -312.44)"/><path class="cls-2" d="M638.79,323.62a4.07,4.07,0,0,0,.87,2.8,3.81,3.81,0,0,0,5.1,0,4.11,4.11,0,0,0,.85-2.8V313.38h2.93v10.29a7,7,0,0,1-.76,3.32,5.45,5.45,0,0,1-2.18,2.23,7.6,7.6,0,0,1-6.79,0,5.41,5.41,0,0,1-2.19-2.23,7,7,0,0,1-.76-3.32V313.38h2.93Z" transform="translate(-340.81 -312.44)"/><path class="cls-2" d="M653.93,319.59a5.93,5.93,0,0,1,1.77-1.25,5,5,0,0,1,2.24-.51,3.64,3.64,0,0,1,4,3.89v8.07h-2.67V322.4a2.31,2.31,0,0,0-.55-1.65,2.15,2.15,0,0,0-1.61-.57,3,3,0,0,0-1.72.55,5.05,5.05,0,0,0-1.42,1.42v7.64h-2.67V318.07h2.67Z" transform="translate(-340.81 -312.44)"/><path class="cls-2" d="M667.15,313.71a1.66,1.66,0,0,1-1.17,2.83,1.54,1.54,0,0,1-1.16-.49,1.67,1.67,0,0,1,0-2.34,1.54,1.54,0,0,1,1.16-.49A1.59,1.59,0,0,1,667.15,313.71Zm.19,16.08h-2.7V318.07h2.7Z" transform="translate(-340.81 -312.44)"/><path class="cls-2" d="M671,320.18h-2v-2.11h2V316a3.36,3.36,0,0,1,1-2.68,3.92,3.92,0,0,1,2.62-.89,5.5,5.5,0,0,1,1.57.24v2.2l-.07.05a3.84,3.84,0,0,0-1.2-.21,1.37,1.37,0,0,0-.94.32,1.31,1.31,0,0,0-.35,1v2h7v11.72h-2.67v-9.61h-4.36v9.61H671Zm9.54-6.47a1.66,1.66,0,1,1-2.35,2.34,1.64,1.64,0,0,1,0-2.34,1.65,1.65,0,0,1,2.35,0Z" transform="translate(-340.81 -312.44)"/><path class="cls-2" d="M685.59,324.65a3.13,3.13,0,0,0,3.31,3.1,3.37,3.37,0,0,0,2-.55,3,3,0,0,0,1.1-1.52l2.32.15.09.11a5.67,5.67,0,0,1-2,3,5.77,5.77,0,0,1-3.53,1,6.08,6.08,0,0,1-3.07-.76,5.15,5.15,0,0,1-2.06-2.15,6.66,6.66,0,0,1-.73-3.18,6.15,6.15,0,0,1,.81-3.17,5.83,5.83,0,0,1,2.15-2.15,5.66,5.66,0,0,1,2.9-.78,6,6,0,0,1,3,.72,5,5,0,0,1,2,2.07,6.67,6.67,0,0,1,.73,3.21v.82Zm6.45-1.94a2.71,2.71,0,0,0-1-2,3.35,3.35,0,0,0-2.18-.72,3.15,3.15,0,0,0-3.21,2.7Z" transform="translate(-340.81 -312.44)"/><path class="cls-2" d="M708.23,329.79h-2.69v-1.27A4.73,4.73,0,0,1,704,329.6a5.11,5.11,0,0,1-2.14.42,5.39,5.39,0,0,1-4.71-2.84,6.48,6.48,0,0,1-.77-3.25,6.76,6.76,0,0,1,.75-3.28,5.1,5.1,0,0,1,2-2.1,5.52,5.52,0,0,1,2.79-.72,5.71,5.71,0,0,1,2,.35,5,5,0,0,1,1.59,1v-6.49h2.69Zm-8.22-3a3.41,3.41,0,0,0,4.62.13,2.76,2.76,0,0,0,.91-2.09v-1.71a2.8,2.8,0,0,0-.91-2.11,3.41,3.41,0,0,0-4.62.13,4.72,4.72,0,0,0,0,5.65Z" transform="translate(-340.81 -312.44)"/><path class="cls-2" d="M720.54,324v5.79h-2.93V313.38h5.7a7.53,7.53,0,0,1,3.26.66,5,5,0,0,1,2.16,1.86,5.15,5.15,0,0,1,.76,2.82,4.9,4.9,0,0,1-.72,2.7,6.22,6.22,0,0,1-2.11,1.94v.12l3.68,6.31H727L723.7,324Zm3-2.46a3.18,3.18,0,0,0,2.27-.77,2.68,2.68,0,0,0,.82-2.09,2.74,2.74,0,0,0-.79-2.08,3.24,3.24,0,0,0-2.3-.76h-3v5.7Z" transform="translate(-340.81 -312.44)"/><path class="cls-2" d="M734,324.65a3.13,3.13,0,0,0,3.31,3.1,3.39,3.39,0,0,0,2-.55,3,3,0,0,0,1.1-1.52l2.32.15.09.11a5.67,5.67,0,0,1-2,3,5.77,5.77,0,0,1-3.53,1,6.05,6.05,0,0,1-3.07-.76,5.15,5.15,0,0,1-2.06-2.15,6.66,6.66,0,0,1-.73-3.18,6.15,6.15,0,0,1,.81-3.17,5.81,5.81,0,0,1,2.14-2.15,5.67,5.67,0,0,1,2.91-.78,5.94,5.94,0,0,1,3,.72,5,5,0,0,1,2,2.07,6.79,6.79,0,0,1,.73,3.21v.82Zm6.45-1.94a2.74,2.74,0,0,0-1-2,3.35,3.35,0,0,0-2.18-.72,3.15,3.15,0,0,0-3.21,2.7Z" transform="translate(-340.81 -312.44)"/><path class="cls-2" d="M747.94,319.45a4.58,4.58,0,0,1,3.51-1.62,3.39,3.39,0,0,1,1.81.43,3,3,0,0,1,1.12,1.24,5.37,5.37,0,0,1,3.82-1.67,3.64,3.64,0,0,1,2.69.94,3.48,3.48,0,0,1,.92,2.53v8.49h-2.67V322a1.94,1.94,0,0,0-.42-1.32,1.62,1.62,0,0,0-1.29-.48,3,3,0,0,0-2.55,1.57v8H752.2V322a2,2,0,0,0-.41-1.36,1.52,1.52,0,0,0-1.25-.49,2.4,2.4,0,0,0-1.42.48,4.88,4.88,0,0,0-1.18,1.25v7.88h-2.67V318.07h2.67Z" transform="translate(-340.81 -312.44)"/><path class="cls-2" d="M767.06,313.71a1.66,1.66,0,0,1-1.17,2.83,1.56,1.56,0,0,1-1.16-.49,1.67,1.67,0,0,1,0-2.34,1.56,1.56,0,0,1,1.16-.49A1.59,1.59,0,0,1,767.06,313.71Zm.19,16.08h-2.69V318.07h2.69Z" transform="translate(-340.81 -312.44)"/><path class="cls-2" d="M776,323.36l4.07,6.43h-3l-2.64-4.32-2.68,4.32h-3l4.11-6.43-3.64-5.29h3l2.16,3.28,2.15-3.28h3Z" transform="translate(-340.81 -312.44)"/><path class="cls-9" d="M1241.14,443.63h-24.4a1,1,0,0,1-1-1V421.68a1,1,0,0,1,1-1h6.83a1,1,0,0,1,.87.5l2.24,3.86h14.46a1,1,0,0,1,1,1v16.59A1,1,0,0,1,1241.14,443.63Zm-23.4-2h22.4V427h-14a1,1,0,0,1-.87-.49l-2.23-3.87h-5.26Z" transform="translate(-340.81 -312.44)"/><path class="cls-9" d="M1274.31,443.63h-24.39a1,1,0,0,1-1-1V421.68a1,1,0,0,1,1-1h6.83a1,1,0,0,1,.87.5l2.24,3.86h14.45a1,1,0,0,1,1,1v16.59A1,1,0,0,1,1274.31,443.63Zm-23.39-2h22.39V427h-14a1,1,0,0,1-.87-.49l-2.23-3.87h-5.26Z" transform="translate(-340.81 -312.44)"/><path class="cls-9" d="M1241.14,417h-24.4a1,1,0,0,1-1-1V395.06a1,1,0,0,1,1-1h6.83a1,1,0,0,1,.87.5l2.24,3.87h14.46a1,1,0,0,1,1,1V416A1,1,0,0,1,1241.14,417Zm-23.4-2h22.4V400.43h-14a1,1,0,0,1-.87-.5l-2.23-3.87h-5.26Z" transform="translate(-340.81 -312.44)"/><path class="cls-9" d="M1274.31,417h-24.39a1,1,0,0,1-1-1V395.06a1,1,0,0,1,1-1h6.83a1,1,0,0,1,.87.5l2.24,3.87h14.45a1,1,0,0,1,1,1V416A1,1,0,0,1,1274.31,417Zm-23.39-2h22.39V400.43h-14a1,1,0,0,1-.87-.5l-2.23-3.87h-5.26Z" transform="translate(-340.81 -312.44)"/><path class="cls-9" d="M1231.41,408.31a2.35,2.35,0,0,0,0-1.84,2.41,2.41,0,0,0-1.29-1.3,2.4,2.4,0,0,0-3.14,1.31,2.42,2.42,0,0,0,0,1.83,2.43,2.43,0,0,0,3.14,1.3A2.42,2.42,0,0,0,1231.41,408.31Z" transform="translate(-340.81 -312.44)"/><path class="cls-9" d="M1249.92,408.39h-8.78a1,1,0,0,1,0-2h8.78a1,1,0,0,1,0,2Z" transform="translate(-340.81 -312.44)"/><path class="cls-9" d="M1229.19,427a1,1,0,0,1-1-1V416a1,1,0,0,1,2,0v10A1,1,0,0,1,1229.19,427Z" transform="translate(-340.81 -312.44)"/><path class="cls-9" d="M1249.92,426a1,1,0,0,1-.65-.24l-10.57-9a1,1,0,0,1,1.3-1.52l10.57,9a1,1,0,0,1-.65,1.76Z" transform="translate(-340.81 -312.44)"/><path class="cls-10" d="M1189,451.5" transform="translate(-340.81 -312.44)"/><path class="cls-10" d="M1302.08,451.51" transform="translate(-340.81 -312.44)"/><path class="cls-10" d="M1245.53,353.55" transform="translate(-340.81 -312.44)"/><path class="cls-5" d="M438.14,485.87A66.82,66.82,0,1,1,505,419.06,66.89,66.89,0,0,1,438.14,485.87Zm0-131a64.19,64.19,0,1,0,64.2,64.19A64.26,64.26,0,0,0,438.14,354.87Z" transform="translate(-340.81 -312.44)"/><path class="cls-9" d="M420.06,407.4a8.88,8.88,0,1,1,8.88-8.88A8.89,8.89,0,0,1,420.06,407.4Zm0-15.51a6.63,6.63,0,1,0,6.63,6.63A6.64,6.64,0,0,0,420.06,391.89Z" transform="translate(-340.81 -312.44)"/><path class="cls-9" d="M453.81,407.4a8.88,8.88,0,1,1,8.89-8.88A8.89,8.89,0,0,1,453.81,407.4Zm0-15.51a6.63,6.63,0,1,0,6.64,6.63A6.64,6.64,0,0,0,453.81,391.89Z" transform="translate(-340.81 -312.44)"/><path class="cls-9" d="M436.94,407.4a1.13,1.13,0,0,1-1.13-1.12V390.77a1.13,1.13,0,1,1,2.25,0v15.51A1.12,1.12,0,0,1,436.94,407.4Z" transform="translate(-340.81 -312.44)"/><path class="cls-9" d="M420.06,429.45a8.88,8.88,0,1,1,8.88-8.88A8.89,8.89,0,0,1,420.06,429.45Zm0-15.51a6.63,6.63,0,1,0,6.63,6.63A6.64,6.64,0,0,0,420.06,413.94Z" transform="translate(-340.81 -312.44)"/><path class="cls-9" d="M436.94,429.45a1.13,1.13,0,0,1-1.13-1.12V412.81a1.13,1.13,0,0,1,2.25,0v15.52A1.12,1.12,0,0,1,436.94,429.45Z" transform="translate(-340.81 -312.44)"/><path class="cls-9" d="M453.81,429.45a1.12,1.12,0,0,1-1.12-1.12V412.81a1.13,1.13,0,0,1,2.25,0v15.52A1.13,1.13,0,0,1,453.81,429.45Z" transform="translate(-340.81 -312.44)"/><path class="cls-9" d="M420.06,429.45a8.88,8.88,0,1,1,8.88-8.88A8.89,8.89,0,0,1,420.06,429.45Zm0-15.51a6.63,6.63,0,1,0,6.63,6.63A6.64,6.64,0,0,0,420.06,413.94Z" transform="translate(-340.81 -312.44)"/><path class="cls-9" d="M436.94,429.45a1.13,1.13,0,0,1-1.13-1.12V412.81a1.13,1.13,0,0,1,2.25,0v15.52A1.12,1.12,0,0,1,436.94,429.45Z" transform="translate(-340.81 -312.44)"/><path class="cls-9" d="M453.81,451.5a8.89,8.89,0,1,1,8.89-8.88A8.9,8.9,0,0,1,453.81,451.5Zm0-15.52a6.64,6.64,0,1,0,6.64,6.64A6.65,6.65,0,0,0,453.81,436Z" transform="translate(-340.81 -312.44)"/><path class="cls-9" d="M436.94,451.5a1.14,1.14,0,0,1-1.13-1.13V434.86a1.13,1.13,0,1,1,2.25,0v15.51A1.13,1.13,0,0,1,436.94,451.5Z" transform="translate(-340.81 -312.44)"/><path class="cls-9" d="M420.06,451.5a1.13,1.13,0,0,1-1.12-1.13V434.86a1.13,1.13,0,1,1,2.25,0v15.51A1.14,1.14,0,0,1,420.06,451.5Z" transform="translate(-340.81 -312.44)"/><polygon class="cls-1" points="97.34 228.47 130.89 247.84 164.43 267.21 164.43 305.95 164.43 344.68 130.9 364.04 97.35 383.4 63.81 364.04 30.27 344.67 30.26 305.93 30.26 267.2 63.8 247.84 97.34 228.47"/><path class="cls-7" d="M438.15,660a1,1,0,0,1-.5-1.87l34.72-20V598a1,1,0,0,1,2,0v40.68a1,1,0,0,1-.5.86l-35.22,20.34A1,1,0,0,1,438.15,660Z" transform="translate(-340.81 -312.44)"/><path class="cls-8" d="M402.93,598" transform="translate(-340.81 -312.44)"/><path class="cls-7" d="M438.15,646.41a1,1,0,0,1-.5-.13l-35.21-20.34a1,1,0,0,1-.5-.86V611.52a1,1,0,0,1,1.5-.86L438.65,631a1,1,0,0,1,.5.86v13.56a1,1,0,0,1-1,1ZM403.94,624.5l33.21,19.18V632.43l-33.22-19.18Z" transform="translate(-340.81 -312.44)"/><path class="cls-7" d="M438.15,619.31a1,1,0,0,1-.5-1.87L471.37,598l-33.22-19.17-34.72,20a1,1,0,1,1-1-1.73l35.22-20.33a1,1,0,0,1,1,0l35.22,20.33a1,1,0,0,1,0,1.73l-35.22,20.34A1,1,0,0,1,438.15,619.31Z" transform="translate(-340.81 -312.44)"/><path class="cls-7" d="M438.15,660a1,1,0,0,1-.5-.13L402.43,639.5a1,1,0,0,1-.5-.87V625.08a1,1,0,0,1,2,0v13l33.22,19.17V645.41a1,1,0,0,1,2,0V659a1,1,0,0,1-1,1Z" transform="translate(-340.81 -312.44)"/><path class="cls-7" d="M430.81,634.3c0-.94.66-1.27,1.46-.75a3.43,3.43,0,0,1,1.47,2.63c0,.93-.65,1.27-1.47.75A3.51,3.51,0,0,1,430.81,634.3Z" transform="translate(-340.81 -312.44)"/><path class="cls-7" d="M430.81,647.85c0-.93.66-1.27,1.46-.75a3.44,3.44,0,0,1,1.47,2.63c0,.94-.65,1.27-1.47.76A3.53,3.53,0,0,1,430.81,647.85Z" transform="translate(-340.81 -312.44)"/><path class="cls-8" d="M438.15,659" transform="translate(-340.81 -312.44)"/><path class="cls-8" d="M402.93,638.64" transform="translate(-340.81 -312.44)"/><path class="cls-7" d="M438.15,632.85a1,1,0,0,1-1-1v-13L403.93,599.7v11.83a1,1,0,0,1-1,1h0a1,1,0,0,1-1-1V598a1,1,0,0,1,1.5-.86l35.22,20.34a1,1,0,0,1,.5.87v13.54A1,1,0,0,1,438.15,632.85Z" transform="translate(-340.81 -312.44)"/><path class="cls-7" d="M430.81,620.75c0-.94.66-1.27,1.46-.76a3.45,3.45,0,0,1,1.47,2.64c0,.93-.65,1.27-1.47.75A3.53,3.53,0,0,1,430.81,620.75Z" transform="translate(-340.81 -312.44)"/><path class="cls-7" d="M438.15,632.85a1,1,0,0,1-.87-.5,1,1,0,0,1,.37-1.36l35.22-20.33a1,1,0,0,1,1.36.36,1,1,0,0,1-.36,1.37l-35.22,20.33A1,1,0,0,1,438.15,632.85Z" transform="translate(-340.81 -312.44)"/><path class="cls-7" d="M438.15,646.41a1,1,0,0,1-.5-1.87l35.22-20.34a1,1,0,0,1,1,1.74l-35.22,20.34A1,1,0,0,1,438.15,646.41Z" transform="translate(-340.81 -312.44)"/><path class="cls-5" d="M975.36,685.2a66.82,66.82,0,1,1,66.82-66.82A66.9,66.9,0,0,1,975.36,685.2Zm0-131a64.2,64.2,0,1,0,64.2,64.2A64.27,64.27,0,0,0,975.36,554.18Z" transform="translate(-340.81 -312.44)"/><path class="cls-9" d="M1005.13,637.4h-9.3a1.13,1.13,0,0,1,0-2.25H1004V602.27H973.28a1.12,1.12,0,0,1-1-.56l-5-8.69h-12.7v4.24a1.13,1.13,0,1,1-2.25,0V591.9a1.14,1.14,0,0,1,1.13-1.13h14.47a1.14,1.14,0,0,1,1,.56l5,8.69h31.2a1.14,1.14,0,0,1,1.13,1.13v35.12A1.14,1.14,0,0,1,1005.13,637.4Z" transform="translate(-340.81 -312.44)"/><path class="cls-9" d="M995.83,642.77H944.16a1.14,1.14,0,0,1-1.13-1.13V597.26a1.13,1.13,0,0,1,1.13-1.12h14.48a1.11,1.11,0,0,1,1,.56l5,8.69h31.2a1.13,1.13,0,0,1,1.13,1.13v35.12A1.14,1.14,0,0,1,995.83,642.77Zm-50.55-2.25h49.43V607.64H964a1.12,1.12,0,0,1-1-.56l-5-8.69H945.28Z" transform="translate(-340.81 -312.44)"/><polygon class="cls-1" points="620.82 215.43 613.46 202.7 615.74 201.39 620.82 210.18 625.89 201.39 628.16 202.7 620.82 215.43"/><polygon class="cls-5" points="653.47 217.08 648.39 208.29 643.32 217.08 641.04 215.77 648.39 203.04 655.74 215.77 653.47 217.08"/><polygon class="cls-2" points="1006.86 127.56 994.13 120.22 1006.86 112.86 1008.17 115.14 999.38 120.21 1008.17 125.29 1006.86 127.56"/><polygon class="cls-6" points="1068.48 102.47 1067.17 100.19 1075.96 95.12 1067.17 90.04 1068.48 87.77 1081.21 95.12 1068.48 102.47"/><path class="cls-2" d="M627.22,521.68a4.07,4.07,0,0,0,.87,2.8,3.25,3.25,0,0,0,2.56,1,3.21,3.21,0,0,0,2.54-1,4.11,4.11,0,0,0,.85-2.8V511.44H637v10.29a7,7,0,0,1-.76,3.32,5.33,5.33,0,0,1-2.18,2.23,6.68,6.68,0,0,1-3.38.8,6.76,6.76,0,0,1-3.4-.8,5.29,5.29,0,0,1-2.19-2.23,7,7,0,0,1-.77-3.32V511.44h2.93Z" transform="translate(-340.81 -312.44)"/><path class="cls-2" d="M642.36,517.65a6.2,6.2,0,0,1,1.77-1.25,5.07,5.07,0,0,1,2.24-.51,3.9,3.9,0,0,1,2.92,1.07,3.84,3.84,0,0,1,1,2.82v8.07h-2.67v-7.39a2.29,2.29,0,0,0-.55-1.65,2.13,2.13,0,0,0-1.6-.57,3.08,3.08,0,0,0-1.73.55,5.33,5.33,0,0,0-1.42,1.42v7.64h-2.67V516.13h2.67Z" transform="translate(-340.81 -312.44)"/><path class="cls-2" d="M655.58,511.77a1.66,1.66,0,0,1-1.17,2.83,1.56,1.56,0,0,1-1.16-.49,1.67,1.67,0,0,1,0-2.34,1.56,1.56,0,0,1,1.16-.49A1.59,1.59,0,0,1,655.58,511.77Zm.19,16.08h-2.69V516.13h2.69Z" transform="translate(-340.81 -312.44)"/><path class="cls-2" d="M659.47,518.24h-2v-2.11h2v-2.06a3.33,3.33,0,0,1,1-2.68,3.88,3.88,0,0,1,2.61-.89,5.4,5.4,0,0,1,1.57.24v2.2l-.07,0a3.79,3.79,0,0,0-1.2-.21,1.33,1.33,0,0,0-.93.32,1.27,1.27,0,0,0-.35,1v2h7v11.72H666.5v-9.61h-4.35v9.61h-2.68Zm9.54-6.47a1.64,1.64,0,1,1-1.17-.49A1.59,1.59,0,0,1,669,511.77Z" transform="translate(-340.81 -312.44)"/><path class="cls-2" d="M674,522.71a3.24,3.24,0,0,0,1,2.27,3.71,3.71,0,0,0,4.28.28,3,3,0,0,0,1.1-1.51l2.32.14.1.11a5.62,5.62,0,0,1-2,3,5.74,5.74,0,0,1-3.52,1.05,6.05,6.05,0,0,1-3.07-.76,5.23,5.23,0,0,1-2.07-2.15,6.78,6.78,0,0,1-.72-3.18,6.18,6.18,0,0,1,.81-3.17,5.74,5.74,0,0,1,2.14-2.15,5.67,5.67,0,0,1,2.91-.78,5.94,5.94,0,0,1,3,.72,5,5,0,0,1,2,2.07,6.67,6.67,0,0,1,.73,3.21v.82Zm6.44-1.94a2.7,2.7,0,0,0-1-2,3.37,3.37,0,0,0-2.18-.72,3.19,3.19,0,0,0-2.1.72,3.12,3.12,0,0,0-1.11,2Z" transform="translate(-340.81 -312.44)"/><path class="cls-2" d="M696.67,527.85H694v-1.27a4.58,4.58,0,0,1-1.53,1.08,5.16,5.16,0,0,1-2.15.42,5.26,5.26,0,0,1-2.67-.73,5.43,5.43,0,0,1-2-2.1,6.66,6.66,0,0,1-.77-3.26,6.76,6.76,0,0,1,.75-3.28,5.06,5.06,0,0,1,2-2.1,5.78,5.78,0,0,1,4.8-.36,4.78,4.78,0,0,1,1.59,1v-6.49h2.7Zm-8.23-3a3.21,3.21,0,0,0,2.42,1,3.13,3.13,0,0,0,2.2-.84,2.72,2.72,0,0,0,.91-2.09v-1.71a2.76,2.76,0,0,0-.91-2.11,3.41,3.41,0,0,0-4.62.13,4.72,4.72,0,0,0,0,5.65Z" transform="translate(-340.81 -312.44)"/><path class="cls-2" d="M716.67,524.59a4.34,4.34,0,0,0,1.66-2.42l2.74.22.09.18a7.09,7.09,0,0,1-2.61,4,7.82,7.82,0,0,1-4.8,1.46,8.5,8.5,0,0,1-4.17-1.05,7.9,7.9,0,0,1-3-3,9.3,9.3,0,0,1,0-8.81,7.83,7.83,0,0,1,3-3,8.5,8.5,0,0,1,4.17-1.05,8.62,8.62,0,0,1,3.53.69,6.73,6.73,0,0,1,2.56,1.94,7,7,0,0,1,1.34,2.87l-.11.19-2.74.21a4.24,4.24,0,0,0-1.65-2.41,5,5,0,0,0-3-.87,5.18,5.18,0,0,0-2.78.74,4.85,4.85,0,0,0-1.84,2.06,6.79,6.79,0,0,0-.65,3,6.7,6.7,0,0,0,.66,3,4.89,4.89,0,0,0,1.86,2.06,5.3,5.3,0,0,0,2.8.74A4.87,4.87,0,0,0,716.67,524.59Z" transform="translate(-340.81 -312.44)"/><path class="cls-2" d="M723.77,527.13a3.55,3.55,0,0,1,.05-5.11,5.2,5.2,0,0,1,2.94-1.13l3.4-.36v-.63a1.67,1.67,0,0,0-.6-1.39,2.57,2.57,0,0,0-1.65-.48,2.38,2.38,0,0,0-1.48.44,2.08,2.08,0,0,0-.75,1.31l-2.32-.11-.11-.1a4.16,4.16,0,0,1,1.64-2.73,5.17,5.17,0,0,1,3.11-1,5.29,5.29,0,0,1,3.45,1.07,3.54,3.54,0,0,1,1.31,2.92v4.8a1.31,1.31,0,0,0,.25.87.83.83,0,0,0,.69.3,2.26,2.26,0,0,0,.52-.07l.07.05v1.92a4.55,4.55,0,0,1-1.48.24,2.9,2.9,0,0,1-1.5-.4,2.29,2.29,0,0,1-1-1.31h-.1a5.06,5.06,0,0,1-3.82,1.8A3.89,3.89,0,0,1,723.77,527.13Zm6.39-3v-1.71l-3,.35a2.43,2.43,0,0,0-1.37.57,1.5,1.5,0,0,0-.48,1.12,1.31,1.31,0,0,0,.47,1.08,1.85,1.85,0,0,0,1.2.37A4.34,4.34,0,0,0,730.16,524.12Z" transform="translate(-340.81 -312.44)"/><path class="cls-2" d="M735.74,516.13h2.69v1.29a4.82,4.82,0,0,1,1.57-1.1,5.45,5.45,0,0,1,4.83.29,5.23,5.23,0,0,1,2,2.1,7.46,7.46,0,0,1,0,6.56,5.29,5.29,0,0,1-2,2.1,5.88,5.88,0,0,1-4.8.36,4.41,4.41,0,0,1-1.57-1v5.78h-2.69Zm8.23,3a3.21,3.21,0,0,0-2.42-1,3.13,3.13,0,0,0-2.2.84,2.75,2.75,0,0,0-.92,2.09v1.71a2.76,2.76,0,0,0,.92,2.11,3.41,3.41,0,0,0,4.62-.13,4.76,4.76,0,0,0,0-5.65Z" transform="translate(-340.81 -312.44)"/><path class="cls-2" d="M753.53,516.13h2.62v2.11h-2.62v6.35a1.15,1.15,0,0,0,.34.9,1.4,1.4,0,0,0,1,.32,4.67,4.67,0,0,0,1.1-.14l.08,0v2.14a8.69,8.69,0,0,1-2,.23,3.31,3.31,0,0,1-2.37-.83,3.21,3.21,0,0,1-.87-2.43v-6.58h-2.18v-2.11h2.18v-3.45H751l2.49.87Z" transform="translate(-340.81 -312.44)"/><path class="cls-2" d="M765.83,526.35a5.42,5.42,0,0,1-1.73,1.25,5.28,5.28,0,0,1-2.25.48,3.85,3.85,0,0,1-2.94-1.09,4.09,4.09,0,0,1-1-3v-7.9h2.68v7.38a2.23,2.23,0,0,0,.57,1.65,2.18,2.18,0,0,0,1.63.58,3,3,0,0,0,1.71-.54,5.1,5.1,0,0,0,1.38-1.43v-7.64h2.67v11.72h-2.67Z" transform="translate(-340.81 -312.44)"/><path class="cls-2" d="M773.85,517.58a4.41,4.41,0,0,1,3.37-1.69,2.36,2.36,0,0,1,1,.19l-.35,2.16-.1.07a3.09,3.09,0,0,0-.77-.07,3,3,0,0,0-1.8.56,4.15,4.15,0,0,0-1.36,1.62v7.43h-2.67V516.13h2.67Z" transform="translate(-340.81 -312.44)"/><path class="cls-2" d="M781.89,522.71a3.24,3.24,0,0,0,1,2.27,3.29,3.29,0,0,0,2.31.83,3.37,3.37,0,0,0,2-.55,3,3,0,0,0,1.1-1.51l2.32.14.1.11a5.68,5.68,0,0,1-2,3,5.75,5.75,0,0,1-3.53,1.05,6.08,6.08,0,0,1-3.07-.76,5.21,5.21,0,0,1-2.06-2.15,6.78,6.78,0,0,1-.73-3.18,6.18,6.18,0,0,1,.81-3.17,5.83,5.83,0,0,1,2.15-2.15,5.66,5.66,0,0,1,2.9-.78,6,6,0,0,1,3,.72,5,5,0,0,1,2,2.07,6.67,6.67,0,0,1,.73,3.21v.82Zm6.44-1.94a2.71,2.71,0,0,0-1-2,3.35,3.35,0,0,0-2.18-.72,3.17,3.17,0,0,0-3.21,2.7Z" transform="translate(-340.81 -312.44)"/><path class="cls-11" d="M549.11,380.7c0,2.42-1.73,3.87-4.37,3.87h-2.43v4.08h-1.62V376.84h4C547.38,376.84,549.11,378.29,549.11,380.7Zm-4.33,2.38c1.75,0,2.71-.74,2.71-2.38s-1-2.38-2.71-2.38h-2.47v4.76Z" transform="translate(-340.81 -312.44)"/><path class="cls-11" d="M552.34,388.65h-1.45V376.33h1.45Z" transform="translate(-340.81 -312.44)"/><path class="cls-11" d="M554.31,386.37c0-1.65,1.33-2.5,2.85-2.65l2.64-.27v-.57c0-1-.8-1.49-1.88-1.49a1.73,1.73,0,0,0-1.84,1.37h-1.4A3.17,3.17,0,0,1,558,380c2,0,3.26,1.07,3.26,2.67v4c0,.54.24.88.74.88a1.48,1.48,0,0,0,.44-.07v1.11a2.64,2.64,0,0,1-.94.17,1.55,1.55,0,0,1-1.67-1.31,4.14,4.14,0,0,1-2.86,1.38A2.43,2.43,0,0,1,554.31,386.37Zm5.49-.22v-1.52l-2.53.29c-1,.12-1.47.71-1.47,1.38s.59,1.17,1.36,1.17A3.8,3.8,0,0,0,559.8,386.15Z" transform="translate(-340.81 -312.44)"/><path class="cls-11" d="M571.07,380.21,566.38,392h-1.47l1.5-3.75-3.34-8.07h1.55l2.26,5.39.22,1,2.47-6.41Z" transform="translate(-340.81 -312.44)"/><path class="cls-11" d="M573.75,388.65H572.3V376.33h1.45Z" transform="translate(-340.81 -312.44)"/><path class="cls-11" d="M577.78,377.92a1,1,0,1,1-1-1A1,1,0,0,1,577.78,377.92Zm-.27,10.73H576v-8.44h1.48Z" transform="translate(-340.81 -312.44)"/><path class="cls-11" d="M582.27,381.33c-.66,0-1.43.28-1.43,1s.69,1,2.21,1.37c1.77.47,2.73,1.11,2.73,2.42,0,1.56-1.26,2.74-3.19,2.74s-3.3-1.05-3.47-2.8h1.4c.22.86.76,1.45,2.11,1.45.89,0,1.7-.42,1.7-1.2s-.77-1.1-2.43-1.52-2.48-1.11-2.48-2.43,1.16-2.28,2.85-2.28a2.85,2.85,0,0,1,3.18,2.67H584A1.55,1.55,0,0,0,582.27,381.33Z" transform="translate(-340.81 -312.44)"/><path class="cls-11" d="M589.78,380.21h2v1.35h-2v5c0,.56.32.91,1.05.91a4.47,4.47,0,0,0,.89-.1v1.25a4.57,4.57,0,0,1-1.35.17,1.91,1.91,0,0,1-2.07-2.13v-5.13h-1.67v-1.35h1.67v-2.53l1.48.54Z" transform="translate(-340.81 -312.44)"/><path class="cls-11" d="M386.59,319.85c3.14.7,5,2.2,5,5,0,3.12-2.56,5.18-5.84,5.18s-6-2-6.16-5.34h2.18a3.67,3.67,0,0,0,4,3.28c2,0,3.59-1,3.59-3,0-1.87-1.13-2.69-4.27-3.37-2.81-.61-4.92-1.71-4.92-4.34,0-2.46,2.27-4.05,5.15-4.05,3.26,0,5.35,1.73,5.56,4.68h-2.13c-.26-1.75-1.46-2.62-3.43-2.62-1.73,0-2.95.77-2.95,1.92C382.37,318.56,383.68,319.19,386.59,319.85Z" transform="translate(-340.81 -312.44)"/><path class="cls-11" d="M402.79,329.79h-2.35l-4.26-11.11v11.11h-2.25V313.38h2.39L401.61,327l5.3-13.59h2.39v16.41h-2.25V318.68Z" transform="translate(-340.81 -312.44)"/><path class="cls-11" d="M414.55,329.79H412.3V313.38h2.25Z" transform="translate(-340.81 -312.44)"/><path class="cls-11" d="M419.8,313.38v14.34h8.09v2.07H417.55V313.38Z" transform="translate(-340.81 -312.44)"/><path class="cls-11" d="M444.27,330a8.44,8.44,0,1,1,8.15-8.44A8,8,0,0,1,444.27,330Zm0-14.81c-3.59,0-5.86,2.62-5.86,6.37s2.27,6.38,5.86,6.38,5.86-2.63,5.86-6.38S447.85,315.21,444.27,315.21Z" transform="translate(-340.81 -312.44)"/><path class="cls-11" d="M456.78,319.59a4.67,4.67,0,0,1,3.45-1.76,1.92,1.92,0,0,1,.94.19l-.33,1.71a2.63,2.63,0,0,0-.75-.07,3.83,3.83,0,0,0-3.31,2.25v7.88h-2.06V318.07h2.06Z" transform="translate(-340.81 -312.44)"/><path class="cls-11" d="M465.32,314.88a1.41,1.41,0,1,1-1.41-1.41A1.42,1.42,0,0,1,465.32,314.88Zm-.38,14.91h-2.06V318.07h2.06Z" transform="translate(-340.81 -312.44)"/><path class="cls-11" d="M473.07,334.71c-3,0-4.66-1.5-4.94-3.63h2.25c.23,1,1,1.75,2.62,1.75,2.63,0,3.4-1.54,3.4-3.23v-1.36a4.83,4.83,0,0,1-3.77,1.55c-3.07,0-5.32-2.23-5.32-6s2.48-6,5.36-6a5,5,0,0,1,3.73,1.53v-1.29h2.06v11.65C478.46,332.72,476.52,334.71,473.07,334.71Zm3.33-11.63a3.33,3.33,0,0,0-3.4-3.37c-2,0-3.63,1.15-3.63,4.1s1.66,4.1,3.63,4.1a3.23,3.23,0,0,0,3.4-3.33Z" transform="translate(-340.81 -312.44)"/><path class="cls-11" d="M483.5,314.88a1.41,1.41,0,1,1-1.4-1.41A1.41,1.41,0,0,1,483.5,314.88Zm-.37,14.91h-2.07V318.07h2.07Z" transform="translate(-340.81 -312.44)"/><path class="cls-11" d="M488,319.59a5.89,5.89,0,0,1,4.1-1.76A3.53,3.53,0,0,1,496,321.7v8.09h-2.06v-7.71a2.17,2.17,0,0,0-2.39-2.42,4.49,4.49,0,0,0-3.51,2.25v7.88H486V318.07H488Z" transform="translate(-340.81 -312.44)"/><path class="cls-2" d="M878.68,323.62a4.06,4.06,0,0,0,.86,2.8,3.25,3.25,0,0,0,2.56,1,3.21,3.21,0,0,0,2.54-1,4.11,4.11,0,0,0,.86-2.8V313.38h2.93v10.29a7,7,0,0,1-.77,3.32,5.33,5.33,0,0,1-2.18,2.23,6.68,6.68,0,0,1-3.38.8,6.79,6.79,0,0,1-3.4-.8,5.41,5.41,0,0,1-2.19-2.23,7,7,0,0,1-.76-3.32V313.38h2.93Z" transform="translate(-340.81 -312.44)"/><path class="cls-2" d="M893.82,319.59a5.93,5.93,0,0,1,1.77-1.25,5,5,0,0,1,2.23-.51,3.9,3.9,0,0,1,2.92,1.07,3.84,3.84,0,0,1,1,2.82v8.07h-2.67V322.4a2.27,2.27,0,0,0-.55-1.65,2.13,2.13,0,0,0-1.6-.57,3.08,3.08,0,0,0-1.73.55,5.15,5.15,0,0,0-1.41,1.42v7.64h-2.68V318.07h2.68Z" transform="translate(-340.81 -312.44)"/><path class="cls-2" d="M907,313.71a1.62,1.62,0,0,1,0,2.34,1.63,1.63,0,0,1-2.33,0,1.67,1.67,0,0,1,0-2.34,1.63,1.63,0,0,1,2.33,0Zm.19,16.08h-2.69V318.07h2.69Z" transform="translate(-340.81 -312.44)"/><path class="cls-2" d="M910.92,320.18h-2v-2.11h2V316a3.33,3.33,0,0,1,1.05-2.68,3.88,3.88,0,0,1,2.61-.89,5.4,5.4,0,0,1,1.57.24v2.2l-.07.05a3.78,3.78,0,0,0-1.19-.21,1.35,1.35,0,0,0-.94.32,1.27,1.27,0,0,0-.35,1v2h7v11.72H918v-9.61H913.6v9.61h-2.68Zm9.54-6.47a1.62,1.62,0,0,1,0,2.34,1.56,1.56,0,0,1-1.17.49,1.66,1.66,0,0,1,0-3.32A1.56,1.56,0,0,1,920.46,313.71Z" transform="translate(-340.81 -312.44)"/><path class="cls-2" d="M925.48,324.65a3.21,3.21,0,0,0,1,2.27,3.28,3.28,0,0,0,2.3.83,3.35,3.35,0,0,0,2-.55,2.9,2.9,0,0,0,1.1-1.52l2.32.15.1.11a5.62,5.62,0,0,1-2,3,5.74,5.74,0,0,1-3.52,1,6.05,6.05,0,0,1-3.07-.76,5.23,5.23,0,0,1-2.07-2.15,6.78,6.78,0,0,1-.72-3.18,6.15,6.15,0,0,1,.81-3.17,5.81,5.81,0,0,1,2.14-2.15,5.67,5.67,0,0,1,2.91-.78,5.94,5.94,0,0,1,3,.72,5,5,0,0,1,2,2.07,6.79,6.79,0,0,1,.72,3.21v.82Zm6.44-1.94a2.7,2.7,0,0,0-1-2,3.37,3.37,0,0,0-2.18-.72,3.21,3.21,0,0,0-2.1.72,3.12,3.12,0,0,0-1.11,2Z" transform="translate(-340.81 -312.44)"/><path class="cls-2" d="M948.12,329.79h-2.7v-1.27a4.58,4.58,0,0,1-1.53,1.08,5.14,5.14,0,0,1-2.14.42,5.27,5.27,0,0,1-2.68-.73,5.39,5.39,0,0,1-2-2.11,6.59,6.59,0,0,1-.77-3.25,6.76,6.76,0,0,1,.75-3.28,5.06,5.06,0,0,1,2-2.1,5.52,5.52,0,0,1,2.79-.72,5.66,5.66,0,0,1,2,.35,5,5,0,0,1,1.59,1v-6.49h2.7Zm-8.23-3a3.21,3.21,0,0,0,2.42,1,3.13,3.13,0,0,0,2.2-.84,2.72,2.72,0,0,0,.91-2.09v-1.71a2.76,2.76,0,0,0-.91-2.11,3.41,3.41,0,0,0-4.62.13,4.76,4.76,0,0,0,0,5.65Z" transform="translate(-340.81 -312.44)"/><path class="cls-2" d="M972.37,326a7.76,7.76,0,0,1-3,3,8.8,8.8,0,0,1-8.41,0,7.76,7.76,0,0,1-3-3,9.37,9.37,0,0,1,0-8.77,7.78,7.78,0,0,1,3-3,8.87,8.87,0,0,1,8.41,0,7.78,7.78,0,0,1,3,3,9.37,9.37,0,0,1,0,8.77Zm-2.52-7.41a4.89,4.89,0,0,0-1.87-2.05,5.67,5.67,0,0,0-5.6,0,4.93,4.93,0,0,0-1.86,2.05,6.61,6.61,0,0,0-.66,3,6.69,6.69,0,0,0,.66,3,5,5,0,0,0,1.86,2.05,5.67,5.67,0,0,0,5.6,0,5,5,0,0,0,1.87-2.05,6.82,6.82,0,0,0,.65-3A6.74,6.74,0,0,0,969.85,318.56Z" transform="translate(-340.81 -312.44)"/><path class="cls-2" d="M978.35,319.52a4.43,4.43,0,0,1,3.38-1.69,2.36,2.36,0,0,1,1,.19l-.35,2.16-.1.07a3.15,3.15,0,0,0-.77-.07,3.1,3.1,0,0,0-1.81.56,4.24,4.24,0,0,0-1.36,1.62v7.43h-2.67V318.07h2.67Z" transform="translate(-340.81 -312.44)"/><path class="cls-2" d="M986.86,313.71a1.66,1.66,0,0,1-1.17,2.83,1.56,1.56,0,0,1-1.16-.49,1.67,1.67,0,0,1,0-2.34,1.56,1.56,0,0,1,1.16-.49A1.59,1.59,0,0,1,986.86,313.71Zm.19,16.08h-2.7V318.07h2.7Z" transform="translate(-340.81 -312.44)"/><path class="cls-2" d="M999.41,333.33a7.06,7.06,0,0,1-7.8.39,4.11,4.11,0,0,1-1.61-2.6l.14-.11,2.63-.17a2.19,2.19,0,0,0,2.44,1.62,3.08,3.08,0,0,0,2.34-.8,3,3,0,0,0,.75-2.15v-1.08a5.08,5.08,0,0,1-1.56,1,5.26,5.26,0,0,1-2,.33,5.51,5.51,0,0,1-2.78-.72,5,5,0,0,1-2-2.07,6.73,6.73,0,0,1-.72-3.19,6.32,6.32,0,0,1,.76-3.16,5.36,5.36,0,0,1,4.75-2.82,5,5,0,0,1,2,.39,4.56,4.56,0,0,1,1.46,1v-1.15h2.6v11.46A4.92,4.92,0,0,1,999.41,333.33Zm-1.11-10.18a3,3,0,0,0-.89-2.21,3.06,3.06,0,0,0-2.2-.86,3.23,3.23,0,0,0-2.38.92,4.71,4.71,0,0,0,0,5.62,3.23,3.23,0,0,0,2.38.92,3,3,0,0,0,2.25-.85,3,3,0,0,0,.84-2.18Z" transform="translate(-340.81 -312.44)"/><path class="cls-2" d="M1005.94,313.71a1.66,1.66,0,0,1-1.17,2.83,1.56,1.56,0,0,1-1.16-.49,1.67,1.67,0,0,1,0-2.34,1.56,1.56,0,0,1,1.16-.49A1.59,1.59,0,0,1,1005.94,313.71Zm.19,16.08h-2.7V318.07h2.7Z" transform="translate(-340.81 -312.44)"/><path class="cls-2" d="M1011.54,319.59a6.2,6.2,0,0,1,1.77-1.25,5,5,0,0,1,2.24-.51,3.64,3.64,0,0,1,4,3.89v8.07h-2.67V322.4a2.27,2.27,0,0,0-.55-1.65,2.14,2.14,0,0,0-1.61-.57,3.07,3.07,0,0,0-1.72.55,5.19,5.19,0,0,0-1.42,1.42v7.64h-2.67V318.07h2.67Z" transform="translate(-340.81 -312.44)"/><path class="cls-2" d="M1034.18,324.49l.38,2h0l.38-2,3.61-11.11h3.19l-5.6,16.41H1033l-5.6-16.41h3.18Z" transform="translate(-340.81 -312.44)"/><path class="cls-2" d="M1058.1,326a7.76,7.76,0,0,1-3,3,8.8,8.8,0,0,1-8.41,0,7.76,7.76,0,0,1-3-3,9.37,9.37,0,0,1,0-8.77,7.78,7.78,0,0,1,3-3,8.87,8.87,0,0,1,8.41,0,7.78,7.78,0,0,1,3,3,9.37,9.37,0,0,1,0,8.77Zm-2.52-7.41a4.93,4.93,0,0,0-1.86-2.05,5.67,5.67,0,0,0-5.6,0,4.89,4.89,0,0,0-1.87,2.05,6.74,6.74,0,0,0-.65,3,6.82,6.82,0,0,0,.65,3,5,5,0,0,0,1.87,2.05,5.67,5.67,0,0,0,5.6,0,5,5,0,0,0,1.86-2.05,6.69,6.69,0,0,0,.66-3A6.61,6.61,0,0,0,1055.58,318.56Z" transform="translate(-340.81 -312.44)"/><path class="cls-2" d="M1061.56,329.79V313.38h5.29a10,10,0,0,1,4.61,1,7,7,0,0,1,3,2.84,9.5,9.5,0,0,1,0,8.72,7,7,0,0,1-3,2.85,10.08,10.08,0,0,1-4.61,1Zm2.93-13.78v11.15h2.27a6.16,6.16,0,0,0,4.3-1.39,6.46,6.46,0,0,0,0-8.37,6.16,6.16,0,0,0-4.3-1.39Z" transform="translate(-340.81 -312.44)"/><path class="cls-11" d="M1235.68,324.37h2.25c-.68,3.35-3.39,5.65-7.31,5.65a8.44,8.44,0,0,1,0-16.87c3.94,0,6.63,2.29,7.31,5.64h-2.25a4.93,4.93,0,0,0-5.08-3.58c-3.56,0-5.84,2.69-5.84,6.37S1227,328,1230.6,328A4.93,4.93,0,0,0,1235.68,324.37Z" transform="translate(-340.81 -312.44)"/><path class="cls-11" d="M1240,329.79V313.38h4.73c5.37,0,8.58,3.26,8.58,8.2s-3.21,8.21-8.58,8.21Zm2.25-14.35v12.28h2.39c3.82,0,6.42-1.82,6.42-6.14s-2.6-6.14-6.42-6.14Z" transform="translate(-340.81 -312.44)"/><path class="cls-11" d="M1268,313.38v16.41h-2.53L1258,316.92v12.87h-2.25V313.38h2.53l7.55,12.87V313.38Z" transform="translate(-340.81 -312.44)"/><path class="cls-11" d="M1083.72,361.24c2.26.51,3.61,1.59,3.61,3.6,0,2.24-1.84,3.73-4.2,3.73a4.2,4.2,0,0,1-4.44-3.85h1.57a2.64,2.64,0,0,0,2.87,2.36c1.41,0,2.58-.73,2.58-2.19s-.81-1.94-3.07-2.43c-2-.44-3.55-1.24-3.55-3.13s1.64-2.92,3.72-2.92c2.34,0,3.84,1.25,4,3.38h-1.54a2.16,2.16,0,0,0-2.46-1.89c-1.25,0-2.13.56-2.13,1.38C1080.68,360.31,1081.62,360.77,1083.72,361.24Z" transform="translate(-340.81 -312.44)"/><path class="cls-11" d="M1091.48,360h2v1.35h-2v5c0,.55.32.91,1,.91a4.55,4.55,0,0,0,.89-.1v1.25a5,5,0,0,1-1.35.17,1.91,1.91,0,0,1-2.08-2.13v-5.13h-1.67V360H1090v-2.53l1.49.54Z" transform="translate(-340.81 -312.44)"/><path class="cls-11" d="M1096.47,361.06a3.36,3.36,0,0,1,2.48-1.27,1.46,1.46,0,0,1,.68.13l-.24,1.24a1.72,1.72,0,0,0-.54-.05,2.75,2.75,0,0,0-2.38,1.62v5.67H1095V360h1.48Z" transform="translate(-340.81 -312.44)"/><path class="cls-11" d="M1102.18,364.65a2.47,2.47,0,0,0,2.63,2.57,2.4,2.4,0,0,0,2.48-1.71h1.39a3.77,3.77,0,0,1-3.89,3.06c-2.56,0-4.11-1.76-4.11-4.39a4.16,4.16,0,0,1,4.11-4.39c2.27,0,4,1.57,4,4.29v.57Zm5.18-1.28a2.38,2.38,0,0,0-2.57-2.23,2.54,2.54,0,0,0-2.6,2.23Z" transform="translate(-340.81 -312.44)"/><path class="cls-11" d="M1110.48,366.12c0-1.66,1.33-2.5,2.85-2.65l2.64-.27v-.58c0-1-.8-1.48-1.88-1.48a1.72,1.72,0,0,0-1.84,1.37h-1.4a3.16,3.16,0,0,1,3.34-2.72c2,0,3.26,1.06,3.26,2.67v4c0,.54.24.87.74.87a1.45,1.45,0,0,0,.44-.06v1.11a2.88,2.88,0,0,1-.94.17,1.56,1.56,0,0,1-1.67-1.32,4.14,4.14,0,0,1-2.86,1.39A2.43,2.43,0,0,1,1110.48,366.12Zm5.49-.22v-1.52l-2.54.29c-1,.12-1.46.71-1.46,1.38s.59,1.17,1.36,1.17A3.84,3.84,0,0,0,1116,365.9Z" transform="translate(-340.81 -312.44)"/><path class="cls-11" d="M1121.55,361a3.47,3.47,0,0,1,2.57-1.16,2.11,2.11,0,0,1,2.11,1.21,4.12,4.12,0,0,1,2.8-1.21,2.16,2.16,0,0,1,2.48,2.28v6.33H1130v-5.89a1.25,1.25,0,0,0-1.37-1.4,2.58,2.58,0,0,0-2.12,1.19v6.1H1125v-5.83c0-.89-.38-1.46-1.35-1.46a2.9,2.9,0,0,0-2.14,1.4v5.89h-1.49V360h1.49Z" transform="translate(-340.81 -312.44)"/><path class="cls-11" d="M1135.54,357.66a1,1,0,1,1-1-1A1,1,0,0,1,1135.54,357.66Zm-.27,10.74h-1.49V360h1.49Z" transform="translate(-340.81 -312.44)"/><path class="cls-11" d="M1139,361.06a4.25,4.25,0,0,1,3-1.27,2.55,2.55,0,0,1,2.78,2.78v5.83h-1.48v-5.56a1.56,1.56,0,0,0-1.73-1.73,3.22,3.22,0,0,0-2.53,1.62v5.67h-1.48V360H1139Z" transform="translate(-340.81 -312.44)"/><path class="cls-11" d="M1150.78,371.94c-2.18,0-3.36-1.08-3.56-2.62h1.62c.17.73.69,1.27,1.89,1.27a2.13,2.13,0,0,0,2.44-2.33v-1a3.45,3.45,0,0,1-2.71,1.12c-2.21,0-3.83-1.61-3.83-4.31s1.78-4.3,3.86-4.3a3.57,3.57,0,0,1,2.68,1.1V360h1.49v8.39C1154.66,370.51,1153.26,371.94,1150.78,371.94Zm2.39-8.37a2.4,2.4,0,0,0-2.44-2.43c-1.42,0-2.62.83-2.62,2.95s1.2,3,2.62,3a2.33,2.33,0,0,0,2.44-2.4Z" transform="translate(-340.81 -312.44)"/><path class="cls-11" d="M1088.15,385.56l.3,1.48.3-1.48,2.81-8.73h1.75l-3.92,11.82h-1.88l-3.92-11.82h1.76Z" transform="translate(-340.81 -312.44)"/><path class="cls-11" d="M1100.08,388.82a6.08,6.08,0,1,1,5.87-6.08A5.8,5.8,0,0,1,1100.08,388.82Zm0-10.67c-2.58,0-4.22,1.89-4.22,4.59s1.64,4.59,4.22,4.59,4.22-1.89,4.22-4.59S1102.66,378.15,1100.08,378.15Z" transform="translate(-340.81 -312.44)"/><path class="cls-11" d="M1107.94,388.65V376.83h3.41c3.86,0,6.18,2.35,6.18,5.91s-2.32,5.91-6.18,5.91Zm1.62-10.33v8.84h1.72c2.75,0,4.63-1.31,4.63-4.42s-1.88-4.42-4.63-4.42Z" transform="translate(-340.81 -312.44)"/><path class="cls-11" d="M1130.84,385.59h1.4a3.69,3.69,0,0,1-4,3.23,4.39,4.39,0,0,1,0-8.78,3.69,3.69,0,0,1,4,3.22h-1.4a2.38,2.38,0,0,0-2.57-1.87,3.06,3.06,0,0,0,0,6.08A2.38,2.38,0,0,0,1130.84,385.59Z" transform="translate(-340.81 -312.44)"/><path class="cls-11" d="M1135.51,388.65h-1.45V376.33h1.45Z" transform="translate(-340.81 -312.44)"/><path class="cls-11" d="M1139.55,377.91a1,1,0,1,1-1-1A1,1,0,0,1,1139.55,377.91Zm-.27,10.74h-1.49v-8.44h1.49Z" transform="translate(-340.81 -312.44)"/><path class="cls-11" d="M1141.39,380.21h1.48v.93a3.62,3.62,0,0,1,2.69-1.1c2.07,0,3.86,1.69,3.86,4.39s-1.62,4.39-3.83,4.39a3.73,3.73,0,0,1-2.72-1.07V392h-1.48Zm3.93,1.18a2.37,2.37,0,0,0-2.45,2.21v1.62a2.4,2.4,0,0,0,2.45,2.25c1.42,0,2.62-.92,2.62-3S1146.74,381.39,1145.32,381.39Z" transform="translate(-340.81 -312.44)"/><path class="cls-11" d="M799.91,384.36v4.29h-1.62V376.83H802c2.7,0,4.34,1.52,4.34,3.8a3.63,3.63,0,0,1-2.11,3.34l2.72,4.68h-1.86l-2.45-4.29Zm2.38-1.49a2.19,2.19,0,0,0,2.45-2.27,2.16,2.16,0,0,0-2.45-2.28h-2.38v4.55Z" transform="translate(-340.81 -312.44)"/><path class="cls-11" d="M809.52,384.9a2.47,2.47,0,0,0,2.63,2.57,2.41,2.41,0,0,0,2.48-1.71H816a3.75,3.75,0,0,1-3.88,3.06c-2.56,0-4.12-1.76-4.12-4.39a4.17,4.17,0,0,1,4.12-4.39c2.26,0,4,1.57,4,4.29v.57Zm5.18-1.28a2.38,2.38,0,0,0-2.57-2.23,2.53,2.53,0,0,0-2.6,2.23Z" transform="translate(-340.81 -312.44)"/><path class="cls-11" d="M819.52,381.2a3.47,3.47,0,0,1,2.57-1.16,2.1,2.1,0,0,1,2.11,1.21A4.12,4.12,0,0,1,827,380a2.16,2.16,0,0,1,2.48,2.28v6.33H828v-5.89a1.24,1.24,0,0,0-1.36-1.4,2.59,2.59,0,0,0-2.13,1.19v6.1H823v-5.83c0-.89-.39-1.46-1.35-1.46a2.92,2.92,0,0,0-2.15,1.4v5.89H818v-8.44h1.48Z" transform="translate(-340.81 -312.44)"/><path class="cls-11" d="M833.51,377.91a1,1,0,1,1-1-1A1,1,0,0,1,833.51,377.91Zm-.27,10.74h-1.48v-8.44h1.48Z" transform="translate(-340.81 -312.44)"/><path class="cls-11" d="M839.4,384l3,4.66h-1.66l-2.19-3.51-2.19,3.51h-1.66l3-4.66-2.6-3.78h1.66l1.8,2.68,1.81-2.68H842Z" transform="translate(-340.81 -312.44)"/><path class="cls-11" d="M855.2,388.65h-1.69l-3.07-8v8h-1.62V376.83h1.72l3.81,9.79,3.82-9.79h1.72v11.82h-1.62v-8Z" transform="translate(-340.81 -312.44)"/><path class="cls-11" d="M870.7,380.7c0,2.41-1.74,3.86-4.37,3.86H863.9v4.09h-1.62V376.83h4.05C869,376.83,870.7,378.28,870.7,380.7Zm-4.33,2.38c1.75,0,2.71-.75,2.71-2.38s-1-2.38-2.71-2.38H863.9v4.76Z" transform="translate(-340.81 -312.44)"/><path class="cls-11" d="M877.66,376.83h1.51v7.73h1.42v1.49h-1.42v2.6h-1.62v-2.6h-5.5v-1.49Zm-.11,7.73v-5.18l-3.78,5.18Z" transform="translate(-340.81 -312.44)"/><path class="cls-2" d="M343.74,521.86a4.07,4.07,0,0,0,.87,2.8,3.81,3.81,0,0,0,5.1,0,4.11,4.11,0,0,0,.85-2.8V511.62h2.93v10.29a6.94,6.94,0,0,1-.76,3.31,5.41,5.41,0,0,1-2.18,2.24,7.6,7.6,0,0,1-6.79,0,5.37,5.37,0,0,1-2.19-2.24,6.94,6.94,0,0,1-.76-3.31V511.62h2.93Z" transform="translate(-340.81 -312.44)"/><path class="cls-2" d="M358.88,517.83a5.93,5.93,0,0,1,1.77-1.25,5,5,0,0,1,2.24-.51,3.64,3.64,0,0,1,4,3.89V528h-2.67v-7.39a2.31,2.31,0,0,0-.55-1.65,2.15,2.15,0,0,0-1.61-.57,3,3,0,0,0-1.72.55,4.93,4.93,0,0,0-1.42,1.42V528h-2.67V516.31h2.67Z" transform="translate(-340.81 -312.44)"/><path class="cls-2" d="M372.1,512a1.66,1.66,0,0,1-1.17,2.83,1.54,1.54,0,0,1-1.16-.49,1.67,1.67,0,0,1,0-2.34,1.54,1.54,0,0,1,1.16-.49A1.59,1.59,0,0,1,372.1,512Zm.19,16.08h-2.7V516.31h2.7Z" transform="translate(-340.81 -312.44)"/><path class="cls-2" d="M376,518.42h-2v-2.11h2v-2.07a3.35,3.35,0,0,1,1-2.67,3.92,3.92,0,0,1,2.62-.89,5.5,5.5,0,0,1,1.57.24v2.2l-.07,0A3.84,3.84,0,0,0,380,513a1.33,1.33,0,0,0-.94.32,1.31,1.31,0,0,0-.35,1v2h7V528H383v-9.61h-4.36V528H376Zm9.54-6.47a1.66,1.66,0,1,1-2.35,2.34,1.64,1.64,0,0,1,0-2.34,1.65,1.65,0,0,1,2.35,0Z" transform="translate(-340.81 -312.44)"/><path class="cls-2" d="M390.54,522.89a3.14,3.14,0,0,0,3.31,3.1,3.37,3.37,0,0,0,2-.55,3.06,3.06,0,0,0,1.1-1.52l2.32.14.09.12a5.7,5.7,0,0,1-2,3,5.77,5.77,0,0,1-3.53,1,6.08,6.08,0,0,1-3.07-.76,5.15,5.15,0,0,1-2.06-2.15,6.66,6.66,0,0,1-.73-3.18,6.15,6.15,0,0,1,.81-3.17,5.76,5.76,0,0,1,2.15-2.15,5.63,5.63,0,0,1,2.9-.78,5.91,5.91,0,0,1,2.95.72,5,5,0,0,1,2,2.07,6.79,6.79,0,0,1,.73,3.21v.82ZM397,521a2.71,2.71,0,0,0-1-2,3.35,3.35,0,0,0-2.18-.72,3.15,3.15,0,0,0-3.21,2.7Z" transform="translate(-340.81 -312.44)"/><path class="cls-2" d="M413.18,528h-2.69v-1.27a4.73,4.73,0,0,1-1.54,1.08,5.11,5.11,0,0,1-2.14.42,5.39,5.39,0,0,1-4.71-2.84,6.48,6.48,0,0,1-.77-3.25,6.76,6.76,0,0,1,.75-3.28,5.1,5.1,0,0,1,2-2.1,5.52,5.52,0,0,1,2.79-.72,5.71,5.71,0,0,1,2,.35,5.08,5.08,0,0,1,1.59,1v-6.49h2.69ZM405,525a3.41,3.41,0,0,0,4.62.13,2.76,2.76,0,0,0,.91-2.09v-1.71a2.8,2.8,0,0,0-.91-2.11,3.41,3.41,0,0,0-4.62.13,4.72,4.72,0,0,0,0,5.65Z" transform="translate(-340.81 -312.44)"/><path class="cls-2" d="M437.43,524.21a7.76,7.76,0,0,1-3,3,8.8,8.8,0,0,1-8.41,0,7.76,7.76,0,0,1-3-3,9.37,9.37,0,0,1,0-8.77,7.78,7.78,0,0,1,3-3,8.87,8.87,0,0,1,8.41,0,7.78,7.78,0,0,1,3,3,9.37,9.37,0,0,1,0,8.77Zm-2.52-7.41a4.93,4.93,0,0,0-1.86-2,5.67,5.67,0,0,0-5.6,0,4.89,4.89,0,0,0-1.87,2,6.74,6.74,0,0,0-.65,3,6.82,6.82,0,0,0,.65,3,5,5,0,0,0,1.87,2,5.67,5.67,0,0,0,5.6,0,5.05,5.05,0,0,0,1.86-2,6.69,6.69,0,0,0,.66-3A6.61,6.61,0,0,0,434.91,516.8Z" transform="translate(-340.81 -312.44)"/><path class="cls-2" d="M443.42,517.76a4.41,4.41,0,0,1,3.37-1.69,2.33,2.33,0,0,1,1,.19l-.35,2.16-.09.07a3.24,3.24,0,0,0-.78-.07,3.09,3.09,0,0,0-1.8.56,4.15,4.15,0,0,0-1.36,1.62V528h-2.67V516.31h2.67Z" transform="translate(-340.81 -312.44)"/><path class="cls-2" d="M451.93,512a1.64,1.64,0,0,1,0,2.34,1.6,1.6,0,0,1-1.18.49,1.56,1.56,0,0,1-1.16-.49,1.67,1.67,0,0,1,0-2.34,1.56,1.56,0,0,1,1.16-.49A1.6,1.6,0,0,1,451.93,512Zm.18,16.08h-2.69V516.31h2.69Z" transform="translate(-340.81 -312.44)"/><path class="cls-2" d="M464.48,531.56a5.84,5.84,0,0,1-4.16,1.39,5.91,5.91,0,0,1-3.65-1,4.09,4.09,0,0,1-1.6-2.6l.14-.12,2.62-.16a2.2,2.2,0,0,0,2.44,1.62,3.08,3.08,0,0,0,2.34-.8,3,3,0,0,0,.75-2.16v-1.07a5.17,5.17,0,0,1-1.55,1,5.26,5.26,0,0,1-2,.33,5.46,5.46,0,0,1-2.78-.72,5,5,0,0,1-2-2.07,6.73,6.73,0,0,1-.72-3.19,6.32,6.32,0,0,1,.77-3.16,5.33,5.33,0,0,1,4.74-2.82,5,5,0,0,1,2,.39,4.45,4.45,0,0,1,1.46,1v-1.15H466v11.46A4.92,4.92,0,0,1,464.48,531.56Zm-1.12-10.17a2.91,2.91,0,0,0-.89-2.21,3,3,0,0,0-2.2-.86,3.25,3.25,0,0,0-2.38.92,4.75,4.75,0,0,0,0,5.62,3.25,3.25,0,0,0,2.38.92,3,3,0,0,0,2.25-.85,3,3,0,0,0,.84-2.18Z" transform="translate(-340.81 -312.44)"/><path class="cls-2" d="M471,512a1.62,1.62,0,0,1,0,2.34,1.63,1.63,0,0,1-2.33,0,1.67,1.67,0,0,1,0-2.34,1.63,1.63,0,0,1,2.33,0Zm.19,16.08H468.5V516.31h2.69Z" transform="translate(-340.81 -312.44)"/><path class="cls-2" d="M476.61,517.83a5.93,5.93,0,0,1,1.77-1.25,5,5,0,0,1,2.23-.51,3.9,3.9,0,0,1,2.92,1.07,3.84,3.84,0,0,1,1.05,2.82V528H481.9v-7.39a2.27,2.27,0,0,0-.55-1.65,2.11,2.11,0,0,0-1.6-.57A3.08,3.08,0,0,0,478,519a5,5,0,0,0-1.41,1.42V528h-2.68V516.31h2.68Z" transform="translate(-340.81 -312.44)"/><path class="cls-2" d="M496.88,511.62V525.4h8V528H494V511.62Z" transform="translate(-340.81 -312.44)"/><path class="cls-2" d="M509.54,512a1.64,1.64,0,0,1,0,2.34,1.6,1.6,0,0,1-1.18.49,1.56,1.56,0,0,1-1.16-.49,1.67,1.67,0,0,1,0-2.34,1.56,1.56,0,0,1,1.16-.49A1.6,1.6,0,0,1,509.54,512Zm.18,16.08H507V516.31h2.69Z" transform="translate(-340.81 -312.44)"/><path class="cls-2" d="M516.9,523.48l.37,2h.09l.38-2,2.67-7.17h2.88L518.79,528h-2.93l-4.52-11.72h2.88Z" transform="translate(-340.81 -312.44)"/><path class="cls-2" d="M527,522.89a3.16,3.16,0,0,0,1,2.26,3.24,3.24,0,0,0,2.3.84,3.35,3.35,0,0,0,2-.55,3,3,0,0,0,1.11-1.52l2.32.14.09.12a5.7,5.7,0,0,1-2,3,5.79,5.79,0,0,1-3.53,1,6.05,6.05,0,0,1-3.07-.76,5.15,5.15,0,0,1-2.06-2.15,6.66,6.66,0,0,1-.73-3.18,6.15,6.15,0,0,1,.81-3.17,5.81,5.81,0,0,1,2.14-2.15,5.67,5.67,0,0,1,2.91-.78,5.94,5.94,0,0,1,2.95.72,5,5,0,0,1,2,2.07,6.79,6.79,0,0,1,.72,3.21v.82ZM533.4,521a2.74,2.74,0,0,0-1-2,3.37,3.37,0,0,0-2.18-.72,3.22,3.22,0,0,0-2.1.72,3.12,3.12,0,0,0-1.11,2Z" transform="translate(-340.81 -312.44)"/><path class="cls-11" d="M793.46,709.46v10.33h5.82v1.49h-7.44V709.46Z" transform="translate(-340.81 -312.44)"/><path class="cls-11" d="M802.86,710.54a1,1,0,1,1-1-1A1,1,0,0,1,802.86,710.54Zm-.27,10.74H801.1v-8.44h1.49Z" transform="translate(-340.81 -312.44)"/><path class="cls-11" d="M807.82,718.56l.32,1.4.32-1.4,2.18-5.72h1.57l-3.28,8.44h-1.58l-3.28-8.44h1.57Z" transform="translate(-340.81 -312.44)"/><path class="cls-11" d="M814.77,717.53a2.48,2.48,0,0,0,2.64,2.57,2.41,2.41,0,0,0,2.48-1.71h1.38a3.75,3.75,0,0,1-3.88,3.06c-2.57,0-4.12-1.76-4.12-4.39a4.18,4.18,0,0,1,4.12-4.39c2.26,0,4,1.57,4,4.29v.57Zm5.18-1.28a2.37,2.37,0,0,0-2.56-2.23,2.53,2.53,0,0,0-2.6,2.23Z" transform="translate(-340.81 -312.44)"/><path class="cls-11" d="M830.74,714c-.66,0-1.44.29-1.44,1s.69,1,2.21,1.36c1.77.48,2.74,1.12,2.74,2.43,0,1.56-1.27,2.74-3.19,2.74s-3.31-1.05-3.48-2.8H829c.22.86.76,1.45,2.11,1.45.89,0,1.7-.42,1.7-1.2s-.77-1.1-2.43-1.52-2.48-1.11-2.48-2.43,1.17-2.28,2.86-2.28a2.84,2.84,0,0,1,3.17,2.67h-1.47A1.55,1.55,0,0,0,830.74,714Z" transform="translate(-340.81 -312.44)"/><path class="cls-11" d="M838.25,712.84h2v1.35h-2v5c0,.56.32.91,1,.91a4.66,4.66,0,0,0,.9-.1v1.25a4.66,4.66,0,0,1-1.35.17,1.91,1.91,0,0,1-2.08-2.13v-5.13h-1.67v-1.35h1.67v-2.53l1.49.54Z" transform="translate(-340.81 -312.44)"/><path class="cls-11" d="M843.24,713.94a3.34,3.34,0,0,1,2.48-1.27,1.38,1.38,0,0,1,.68.14l-.24,1.23a1.76,1.76,0,0,0-.54,0,2.73,2.73,0,0,0-2.38,1.62v5.67h-1.49v-8.44h1.49Z" transform="translate(-340.81 -312.44)"/><path class="cls-11" d="M848.94,717.53a2.48,2.48,0,0,0,2.64,2.57,2.41,2.41,0,0,0,2.48-1.71h1.38a3.74,3.74,0,0,1-3.88,3.06c-2.56,0-4.12-1.76-4.12-4.39a4.18,4.18,0,0,1,4.12-4.39c2.26,0,4,1.57,4,4.29v.57Zm5.18-1.28a2.36,2.36,0,0,0-2.56-2.23,2.53,2.53,0,0,0-2.6,2.23Z" transform="translate(-340.81 -312.44)"/><path class="cls-11" d="M857.25,719c0-1.65,1.33-2.5,2.85-2.65l2.63-.27v-.57c0-1-.79-1.49-1.87-1.49a1.72,1.72,0,0,0-1.84,1.37h-1.4a3.16,3.16,0,0,1,3.34-2.72c2,0,3.26,1.07,3.26,2.67v3.95c0,.54.23.87.74.87a1.49,1.49,0,0,0,.44-.06v1.11a2.72,2.72,0,0,1-.95.17,1.56,1.56,0,0,1-1.67-1.32,4.12,4.12,0,0,1-2.85,1.39A2.42,2.42,0,0,1,857.25,719Zm5.48-.22v-1.52l-2.53.29c-1,.12-1.47.71-1.47,1.38s.59,1.17,1.37,1.17A3.79,3.79,0,0,0,862.73,718.78Z" transform="translate(-340.81 -312.44)"/><path class="cls-11" d="M868.32,713.84a3.4,3.4,0,0,1,2.56-1.17,2.11,2.11,0,0,1,2.11,1.22,4.13,4.13,0,0,1,2.8-1.22,2.16,2.16,0,0,1,2.48,2.28v6.33h-1.48v-5.89a1.25,1.25,0,0,0-1.37-1.4,2.59,2.59,0,0,0-2.13,1.2v6.09h-1.48v-5.82c0-.9-.39-1.47-1.35-1.47a2.88,2.88,0,0,0-2.14,1.4v5.89h-1.49v-8.44h1.49Z" transform="translate(-340.81 -312.44)"/><path class="cls-11" d="M943.11,696.3h2.25l5.9,16.4h-2.39l-1.1-3.18h-7.1l-1.08,3.18H937.2Zm4,11.15-2.53-7.38-.31-1.76-.3,1.76-2.56,7.38Z" transform="translate(-340.81 -312.44)"/><path class="cls-11" d="M954.5,702.51a4.63,4.63,0,0,1,3.44-1.76,1.89,1.89,0,0,1,.94.19l-.33,1.71a2.58,2.58,0,0,0-.75-.07,3.79,3.79,0,0,0-3.3,2.25v7.87h-2.06V701h2.06Z" transform="translate(-340.81 -312.44)"/><path class="cls-11" d="M969.45,708.46h1.95c-.42,2.84-2.53,4.48-5.53,4.48a6.1,6.1,0,0,1,0-12.19c3,0,5.11,1.64,5.53,4.48h-1.95a3.3,3.3,0,0,0-3.56-2.61c-2.2,0-3.82,1.58-3.82,4.22s1.62,4.22,3.82,4.22A3.29,3.29,0,0,0,969.45,708.46Z" transform="translate(-340.81 -312.44)"/><path class="cls-11" d="M975.9,702.51a6.11,6.11,0,0,1,4.24-1.76,3.65,3.65,0,0,1,4,3.87v8.08h-2.07V705a2.28,2.28,0,0,0-2.53-2.41,4.74,4.74,0,0,0-3.65,2.11v8h-2.07V695.59h2.07Z" transform="translate(-340.81 -312.44)"/><path class="cls-11" d="M989.19,697.8a1.41,1.41,0,1,1-1.41-1.41A1.41,1.41,0,0,1,989.19,697.8Zm-.38,14.9h-2.06V701h2.06Z" transform="translate(-340.81 -312.44)"/><path class="cls-11" d="M995.75,708.93l.44,1.94.45-1.94,3-7.95h2.18L997.3,712.7h-2.21L990.55,701h2.18Z" transform="translate(-340.81 -312.44)"/><path class="cls-11" d="M1005.08,707.5a3.42,3.42,0,0,0,3.65,3.56,3.34,3.34,0,0,0,3.45-2.36h1.92a5.21,5.21,0,0,1-5.39,4.24c-3.56,0-5.72-2.44-5.72-6.1a5.79,5.79,0,0,1,5.72-6.09c3.14,0,5.51,2.18,5.51,6v.8Zm7.19-1.78a3.3,3.3,0,0,0-3.56-3.1,3.52,3.52,0,0,0-3.61,3.1Z" transform="translate(-340.81 -312.44)"/><path class="cls-2" d="M1562.34,489H1469a19.74,19.74,0,0,1-19.71-19.72V376A19.74,19.74,0,0,1,1469,356.29h93.32A19.74,19.74,0,0,1,1582.05,376v93.32A19.73,19.73,0,0,1,1562.34,489ZM1469,358.92A17.1,17.1,0,0,0,1451.94,376v93.31A17.1,17.1,0,0,0,1469,486.4h93.32a17.1,17.1,0,0,0,17.08-17.08V376a17.1,17.1,0,0,0-17.08-17.08Z" transform="translate(-340.81 -312.44)"/><rect class="cls-2" x="1173.56" y="45.16" width="2.63" height="130.11"/><rect class="cls-2" x="1109.81" y="108.91" width="130.11" height="2.63"/><path class="cls-9" d="M1561.19,401.79h-31a2.73,2.73,0,0,1-2.73-2.73v-21a2.73,2.73,0,0,1,2.73-2.73h31a2.73,2.73,0,0,1,2.73,2.73v21A2.73,2.73,0,0,1,1561.19,401.79Zm-31-24.93a1.23,1.23,0,0,0-1.23,1.23v21a1.23,1.23,0,0,0,1.23,1.23h31a1.23,1.23,0,0,0,1.23-1.23v-21a1.23,1.23,0,0,0-1.23-1.23Z" transform="translate(-340.81 -312.44)"/><path class="cls-9" d="M1564,410.21h-36.55a2.73,2.73,0,0,1,0-5.46H1564a2.73,2.73,0,1,1,0,5.46Zm-36.55-4a1.23,1.23,0,0,0,0,2.46H1564a1.23,1.23,0,1,0,0-2.46Z" transform="translate(-340.81 -312.44)"/><path class="cls-9" d="M1499.48,403.78h-31a2.72,2.72,0,0,1-2.73-2.72V377.85a2.73,2.73,0,0,1,2.73-2.73h31a2.74,2.74,0,0,1,2.73,2.73v23.21A2.73,2.73,0,0,1,1499.48,403.78Zm-31-27.16a1.23,1.23,0,0,0-1.23,1.23v23.21a1.23,1.23,0,0,0,1.23,1.22h31a1.23,1.23,0,0,0,1.23-1.22V377.85a1.23,1.23,0,0,0-1.23-1.23Z" transform="translate(-340.81 -312.44)"/><path class="cls-9" d="M1496.69,410h-25.38a.75.75,0,0,1,0-1.5h25.38a.75.75,0,0,1,0,1.5Z" transform="translate(-340.81 -312.44)"/><path class="cls-9" d="M1484,410a.75.75,0,0,1-.75-.75V403a.75.75,0,0,1,1.5,0v6.19A.74.74,0,0,1,1484,410Z" transform="translate(-340.81 -312.44)"/><path class="cls-9" d="M1557.57,474.8h-25.1a3,3,0,0,1-2.94-2.95V436.72a3,3,0,0,1,2.94-3h25.1a3,3,0,0,1,2.94,3v35.13A3,3,0,0,1,1557.57,474.8Zm-25.1-39.53a1.44,1.44,0,0,0-1.44,1.45v35.13a1.44,1.44,0,0,0,1.44,1.45h25.1a1.45,1.45,0,0,0,1.44-1.45V436.72a1.45,1.45,0,0,0-1.44-1.45Z" transform="translate(-340.81 -312.44)"/><path class="cls-9" d="M1545.66,469.79a1.28,1.28,0,1,1-1.28-1.27A1.28,1.28,0,0,1,1545.66,469.79Z" transform="translate(-340.81 -312.44)"/><path class="cls-9" d="M1559.76,466.41h-29.48a.75.75,0,0,1,0-1.5h29.48a.75.75,0,0,1,0,1.5Z" transform="translate(-340.81 -312.44)"/><path class="cls-9" d="M1490.85,470.93H1478a2.74,2.74,0,0,1-2.73-2.73V441.45a2.74,2.74,0,0,1,2.73-2.73h12.84a2.73,2.73,0,0,1,2.73,2.73V468.2A2.73,2.73,0,0,1,1490.85,470.93ZM1478,440.22a1.23,1.23,0,0,0-1.23,1.23V468.2a1.23,1.23,0,0,0,1.23,1.23h12.84a1.23,1.23,0,0,0,1.23-1.23V441.45a1.23,1.23,0,0,0-1.23-1.23Z" transform="translate(-340.81 -312.44)"/><path class="cls-9" d="M1485,466.35a1.14,1.14,0,1,1-1.14-1.14A1.14,1.14,0,0,1,1485,466.35Z" transform="translate(-340.81 -312.44)"/><path class="cls-9" d="M1492.83,463.38H1476a.75.75,0,0,1,0-1.5h16.8a.75.75,0,0,1,0,1.5Z" transform="translate(-340.81 -312.44)"/><path class="cls-11" d="M1497.38,509.13c0,3.35-2.41,5.37-6.07,5.37h-3.37v5.67h-2.25V503.76h5.62C1495,503.76,1497.38,505.78,1497.38,509.13Zm-6,3.31c2.44,0,3.77-1,3.77-3.31s-1.33-3.3-3.77-3.3h-3.42v6.61Z" transform="translate(-340.81 -312.44)"/><path class="cls-11" d="M1501.53,520.17h-2V503.06h2Z" transform="translate(-340.81 -312.44)"/><path class="cls-11" d="M1504,517c0-2.3,1.85-3.47,4-3.68l3.65-.38v-.8c0-1.4-1.1-2.06-2.6-2.06a2.38,2.38,0,0,0-2.55,1.9h-2a4.39,4.39,0,0,1,4.64-3.77c2.74,0,4.53,1.47,4.53,3.7v5.48c0,.75.32,1.22,1,1.22a2.09,2.09,0,0,0,.61-.09v1.55a4.1,4.1,0,0,1-1.32.23,2.17,2.17,0,0,1-2.32-1.83,5.71,5.71,0,0,1-4,1.92C1505.47,520.4,1504,519.09,1504,517Zm7.61-.31v-2.11l-3.51.4c-1.39.16-2,1-2,1.92,0,1.1.82,1.62,1.9,1.62A5.26,5.26,0,0,0,1511.56,516.7Z" transform="translate(-340.81 -312.44)"/><path class="cls-11" d="M1526.89,508.45l-6.51,16.41h-2l2.08-5.21-4.64-11.2h2.16l3.14,7.48.3,1.43,3.43-8.91Z" transform="translate(-340.81 -312.44)"/><path class="cls-11" d="M1529.89,515a3.43,3.43,0,0,0,3.66,3.56,3.32,3.32,0,0,0,3.44-2.37h1.92a5.2,5.2,0,0,1-5.39,4.24c-3.56,0-5.71-2.43-5.71-6.09a5.78,5.78,0,0,1,5.71-6.09c3.14,0,5.51,2.18,5.51,5.95v.8Zm7.2-1.78a3.31,3.31,0,0,0-3.57-3.1,3.52,3.52,0,0,0-3.61,3.1Z" transform="translate(-340.81 -312.44)"/><path class="cls-11" d="M1543.46,510a4.66,4.66,0,0,1,3.45-1.75,2,2,0,0,1,.93.18l-.32,1.72a2.59,2.59,0,0,0-.75-.08,3.81,3.81,0,0,0-3.31,2.25v7.88h-2.06V508.45h2.06Z" transform="translate(-340.81 -312.44)"/><path class="cls-11" d="M1348.74,455.81v4.29h-1.62V448.28h3.73c2.7,0,4.33,1.52,4.33,3.8a3.62,3.62,0,0,1-2.11,3.34l2.72,4.68h-1.86l-2.44-4.29Zm2.38-1.48a2.19,2.19,0,0,0,2.44-2.28,2.16,2.16,0,0,0-2.44-2.28h-2.38v4.56Z" transform="translate(-340.81 -312.44)"/><path class="cls-11" d="M1358.34,456.35a2.47,2.47,0,0,0,2.63,2.57,2.4,2.4,0,0,0,2.48-1.71h1.38a3.75,3.75,0,0,1-3.88,3.06c-2.56,0-4.11-1.76-4.11-4.39a4.17,4.17,0,0,1,4.11-4.39c2.26,0,4,1.57,4,4.29v.57Zm5.18-1.28a2.38,2.38,0,0,0-2.57-2.23,2.54,2.54,0,0,0-2.6,2.23Z" transform="translate(-340.81 -312.44)"/><path class="cls-11" d="M1373.07,459.2a3.73,3.73,0,0,1-2.72,1.07c-2.21,0-3.83-1.69-3.83-4.39s1.79-4.39,3.87-4.39a3.59,3.59,0,0,1,2.68,1.1v-.93h1.49v11.81h-1.49Zm0-4.15a2.36,2.36,0,0,0-2.45-2.21c-1.42,0-2.61.91-2.61,3s1.19,3,2.61,3a2.39,2.39,0,0,0,2.45-2.25Z" transform="translate(-340.81 -312.44)"/><path class="cls-11" d="M1382.32,459a4.29,4.29,0,0,1-3,1.27,2.55,2.55,0,0,1-2.78-2.79v-5.82h1.48v5.55a1.56,1.56,0,0,0,1.73,1.74,3.26,3.26,0,0,0,2.53-1.62v-5.67h1.48v8.44h-1.48Z" transform="translate(-340.81 -312.44)"/><path class="cls-11" d="M1387.16,456.35a2.47,2.47,0,0,0,2.63,2.57,2.4,2.4,0,0,0,2.48-1.71h1.39a3.77,3.77,0,0,1-3.89,3.06c-2.56,0-4.11-1.76-4.11-4.39a4.17,4.17,0,0,1,4.11-4.39c2.27,0,4,1.57,4,4.29v.57Zm5.18-1.28a2.38,2.38,0,0,0-2.57-2.23,2.52,2.52,0,0,0-2.59,2.23Z" transform="translate(-340.81 -312.44)"/><path class="cls-11" d="M1398.16,452.77c-.66,0-1.43.29-1.43,1s.69,1,2.21,1.37c1.77.47,2.73,1.12,2.73,2.43,0,1.55-1.26,2.74-3.19,2.74s-3.3-1-3.47-2.81h1.4c.22.87.76,1.46,2.11,1.46.89,0,1.7-.43,1.7-1.2s-.78-1.1-2.43-1.52-2.48-1.12-2.48-2.43,1.16-2.28,2.85-2.28a2.85,2.85,0,0,1,3.18,2.67h-1.47A1.56,1.56,0,0,0,1398.16,452.77Z" transform="translate(-340.81 -312.44)"/><path class="cls-11" d="M1405.67,451.66h2V453h-2v5c0,.56.32.91,1,.91a4.47,4.47,0,0,0,.89-.1v1.25a4.57,4.57,0,0,1-1.35.17,1.91,1.91,0,0,1-2.07-2.13V453h-1.67v-1.35h1.67v-2.53l1.48.54Z" transform="translate(-340.81 -312.44)"/></svg>